<svg xmlns="http://www.w3.org/2000/svg" xmlns:xlink="http://www.w3.org/1999/xlink" width="1920" zoomAndPan="magnify" viewBox="0 0 1440 809.999993" height="1080" preserveAspectRatio="xMidYMid meet" version="1.0"><defs><clipPath id="770ccd9220"><path d="M 13.765625 342 L 742.917969 342 L 742.917969 793.902344 L 13.765625 793.902344 Z M 13.765625 342 " clip-rule="nonzero"/></clipPath><clipPath id="67d7af8adc"><path d="M 13.765625 360 L 742.917969 360 L 742.917969 793.902344 L 13.765625 793.902344 Z M 13.765625 360 " clip-rule="nonzero"/></clipPath></defs><g clip-path="url(#770ccd9220)"><path fill="#f79584" d="M 741.589844 793.902344 C 741.484375 793.902344 15.53125 793.902344 15.53125 793.902344 C 15.167969 793.359375 14.847656 792.789062 14.589844 792.164062 C 13.210938 788.808594 13.839844 784.996094 14.480469 781.421875 C 34.613281 669.996094 43.617188 552.027344 105.839844 464.761719 C 122.5625 441.3125 143.128906 420.070312 168.785156 401.777344 C 180.574219 393.375 193.441406 385.59375 207.507812 378.492188 C 221.398438 371.480469 236.167969 365.527344 251.585938 360.605469 C 333.6875 334.378906 434.386719 337.308594 521.367188 365.449219 C 528.949219 367.90625 536.425781 370.554688 543.78125 373.386719 C 573.785156 384.957031 601.695312 399.671875 626.058594 417.363281 C 633.5625 422.816406 640.734375 428.550781 647.53125 434.558594 C 694.761719 476.371094 715.566406 527.417969 726.003906 588.015625 C 728.890625 604.777344 748.066406 793.902344 741.589844 793.902344 " fill-opacity="1" fill-rule="nonzero"/></g><path fill="#f79584" d="M 376.472656 54.273438 C 332.714844 26.859375 268.355469 38.152344 238.132812 80.011719 C 202.128906 129.882812 211.75 219.625 217.394531 277.644531 C 217.699219 280.769531 218.152344 284.160156 220.398438 286.351562 C 222.503906 288.402344 225.65625 288.871094 228.585938 289.167969 C 279.058594 294.324219 330.933594 279.292969 371.808594 249.515625 C 387.242188 238.28125 410.445312 221.4375 421.453125 205.886719 C 434.957031 186.816406 428.472656 153.515625 425.304688 132.097656 C 420.691406 100.941406 403.457031 71.183594 376.472656 54.273438 " fill-opacity="1" fill-rule="nonzero"/><path fill="#f79584" d="M 483.1875 424.066406 C 482.199219 425.160156 480.558594 425.304688 479.078125 425.371094 C 433.980469 427.476562 388.878906 429.574219 343.777344 431.675781 C 340.769531 431.8125 337.550781 431.90625 334.964844 430.355469 C 331.820312 428.472656 330.445312 424.695312 329.390625 421.195312 C 319.933594 389.960938 311.777344 358.390625 303.941406 326.734375 C 300.570312 313.132812 297.261719 299.515625 293.929688 285.910156 C 289.453125 267.597656 284.941406 249.292969 280.199219 231.046875 C 273.574219 205.535156 252.644531 173.953125 281.253906 162.789062 C 307.628906 152.492188 346.414062 152.875 374.636719 149.398438 C 411.53125 144.859375 414.9375 159.382812 423.886719 193.222656 C 443.765625 268.398438 463.664062 343.578125 483.554688 418.753906 C 484.03125 420.546875 484.425781 422.6875 483.1875 424.066406 " fill-opacity="1" fill-rule="nonzero"/><path fill="#f79584" d="M 375.101562 43.917969 C 406.742188 52.542969 436.144531 72.222656 452.164062 100.820312 C 468.1875 129.417969 468.957031 167.136719 450.328125 194.109375 C 429.554688 224.171875 387.457031 235.816406 352.628906 224.714844 C 317.804688 213.605469 291.261719 182.515625 281.226562 147.386719 C 273.765625 121.300781 270.335938 75.515625 287.84375 51.878906 C 305.367188 28.214844 351.292969 37.433594 375.101562 43.917969 " fill-opacity="1" fill-rule="nonzero"/><path fill="#f5765a" d="M 224.695312 149.890625 C 214.898438 166.199219 205.472656 182.722656 196.425781 199.453125 C 195.21875 201.679688 193.992188 204.070312 194.199219 206.589844 C 194.644531 212.011719 216.589844 216.5625 221.882812 216.375 C 227.277344 216.183594 226.160156 217.226562 226.992188 211.003906 C 227.542969 206.894531 227.515625 202.597656 227.632812 198.457031 C 228.089844 182.222656 227.109375 165.953125 224.695312 149.890625 " fill-opacity="1" fill-rule="nonzero"/><path fill="#f5765a" d="M 368.855469 221.242188 C 364.277344 234.546875 359.179688 247.539062 352.824219 260.113281 C 346.148438 273.300781 338.417969 285.953125 329.707031 297.898438 C 325.355469 303.871094 320.75 309.667969 315.929688 315.265625 C 313.824219 317.695312 308.003906 326.839844 303.941406 326.734375 C 300.570312 313.132812 297.261719 299.515625 293.929688 285.910156 C 294.03125 285.84375 294.136719 285.777344 294.234375 285.714844 C 296.875 284.050781 300.019531 282.867188 302.632812 281.441406 C 306.375 279.390625 310.042969 277.199219 313.632812 274.886719 C 320.953125 270.167969 327.929688 264.921875 334.53125 259.230469 C 341.140625 253.53125 347.367188 247.394531 353.191406 240.898438 C 356.054688 237.707031 358.8125 234.429688 361.480469 231.082031 C 363.667969 228.324219 367.707031 224.578125 368.855469 221.242188 " fill-opacity="1" fill-rule="nonzero"/><path fill="#f5765a" d="M 256.886719 128.675781 C 270.664062 136.289062 284.277344 144.433594 298.507812 151.160156 C 304.105469 153.808594 300.160156 163.070312 294.289062 161.160156 C 286.804688 158.726562 279.984375 153.550781 273.296875 149.515625 C 266.25 145.253906 259.207031 141.003906 252.160156 136.75 C 247.003906 133.640625 251.597656 125.753906 256.886719 128.675781 " fill-opacity="1" fill-rule="nonzero"/><path fill="#f5765a" d="M 268.613281 175.125 C 262.996094 175.125 258.230469 170.359375 258.230469 164.746094 C 258.230469 159.121094 262.976562 154.371094 268.613281 154.371094 C 274.222656 154.371094 278.996094 159.140625 278.996094 164.746094 C 278.996094 170.378906 274.242188 175.125 268.613281 175.125 " fill-opacity="1" fill-rule="nonzero"/><path fill="#f5765a" d="M 424.242188 181.808594 C 422.363281 191.074219 410.824219 201.207031 401.855469 203.28125 C 390.363281 205.9375 379.894531 193.203125 387.621094 182.554688 C 389.066406 180.566406 391.222656 178.703125 391.101562 176.246094 C 391.046875 175.074219 390.449219 174.007812 390.003906 172.914062 C 387.417969 166.632812 390.296875 158.617188 396.289062 155.40625 C 402.144531 152.265625 409.6875 153.796875 415.019531 157.753906 C 422.296875 163.167969 426.042969 172.925781 424.242188 181.808594 " fill-opacity="1" fill-rule="nonzero"/><path fill="#ef5b56" d="M 480.574219 145.128906 C 477.683594 175.929688 461.957031 205.324219 437.933594 224.835938 C 435.839844 226.53125 433.582031 228.207031 430.925781 228.636719 C 428.273438 229.070312 425.152344 227.816406 424.351562 225.25 C 423.75 223.308594 424.570312 221.234375 425.402344 219.367188 C 429.917969 209.164062 434.773438 198.980469 437.097656 188.066406 C 437.542969 185.992188 437.851562 183.851562 438.027344 181.679688 C 439.707031 160.964844 429.164062 137.363281 404.402344 140.46875 C 394.226562 141.742188 385.691406 148.550781 378.25 155.582031 C 374.019531 159.566406 367.257812 163.8125 363.140625 159.703125 C 363.054688 159.617188 362.972656 159.519531 362.886719 159.425781 C 361.855469 158.253906 361.324219 156.695312 360.820312 155.1875 C 353.003906 131.578125 341.585938 108.984375 320.054688 94.675781 C 312.347656 89.554688 304.261719 86.015625 295.925781 83.570312 C 280.121094 78.945312 263.382812 78.273438 246.460938 78.273438 C 239.101562 78.824219 229.335938 78.210938 227.535156 71.0625 C 226.746094 67.945312 227.992188 64.695312 229.441406 61.820312 C 240.136719 40.632812 262.410156 27.574219 285.058594 20.4375 C 324.703125 7.941406 370.644531 11.871094 408.890625 27.988281 C 410.605469 28.707031 412.300781 29.457031 413.980469 30.222656 C 434.9375 39.824219 450.402344 52.023438 462.660156 71.34375 C 465.734375 76.1875 468.445312 81.261719 470.777344 86.503906 C 478.925781 104.796875 482.449219 125.179688 480.574219 145.128906 " fill-opacity="1" fill-rule="nonzero"/><g clip-path="url(#67d7af8adc)"><path fill="#ef5b56" d="M 741.589844 793.902344 C 741.484375 793.902344 15.53125 793.902344 15.53125 793.902344 C 15.167969 793.359375 14.847656 792.789062 14.59375 792.164062 C 13.210938 788.808594 13.839844 784.996094 14.480469 781.421875 C 34.613281 669.996094 43.617188 552.027344 105.839844 464.761719 C 122.5625 441.3125 143.128906 420.070312 168.785156 401.777344 C 180.574219 393.375 193.441406 385.59375 207.507812 378.492188 C 221.398438 371.480469 236.167969 365.527344 251.585938 360.605469 C 253.09375 361.445312 254.542969 362.433594 255.941406 363.429688 C 280.773438 381.125 298.761719 407.644531 325.160156 422.925781 C 365.070312 446.050781 416.265625 438.617188 458.289062 419.59375 C 484.007812 407.957031 509.363281 390.269531 521.367188 365.449219 C 528.949219 367.90625 536.425781 370.554688 543.78125 373.386719 C 573.785156 384.957031 601.695312 399.671875 626.058594 417.363281 C 633.5625 422.816406 640.734375 428.550781 647.53125 434.558594 C 678.160156 461.679688 697.679688 492.683594 710.457031 527.65625 C 717.382812 546.609375 722.335938 566.722656 726.003906 588.015625 C 726.789062 592.578125 728.78125 609.925781 731.136719 632.761719 C 737.429688 693.765625 746.300781 793.902344 741.589844 793.902344 " fill-opacity="1" fill-rule="nonzero"/></g><path fill="#484f68" d="M 231.742188 502.121094 C 250.359375 519.746094 268.984375 537.375 287.609375 555.003906 C 293.121094 560.226562 299.125 566.832031 297.730469 574.292969 C 280.851562 566.441406 264.777344 556.894531 249.796875 545.847656 C 237.320312 536.644531 227.066406 526.777344 212.207031 520.945312 C 213.5 528.726562 218.355469 535.375 223 541.75 C 234.628906 557.75 245.792969 574.09375 256.457031 590.753906 C 258.289062 593.613281 260.023438 597.652344 257.644531 600.082031 C 247.324219 595.394531 239.816406 586.316406 232.523438 577.667969 C 219.011719 561.648438 204.953125 546.09375 190.394531 531.019531 C 188.582031 529.140625 185.378906 527.277344 183.734375 529.304688 C 175.21875 539.777344 219.777344 580.253906 225.894531 588.28125 C 226.265625 588.777344 226.644531 589.449219 226.308594 589.964844 C 225.996094 590.429688 225.335938 590.429688 224.789062 590.363281 C 213.324219 588.964844 203.933594 580.929688 195.308594 573.25 C 181.054688 560.570312 170 543.3125 157.566406 528.578125 C 140.007812 507.765625 124.074219 485.546875 106.21875 465.214844 C 106.089844 465.066406 105.960938 464.914062 105.835938 464.761719 C 122.554688 441.3125 143.121094 420.078125 168.777344 401.777344 C 175.195312 403.496094 182.710938 412.023438 189.035156 413.804688 C 202.488281 417.59375 214.074219 410.847656 227.363281 411.207031 C 237.023438 411.46875 247.105469 411.371094 256.539062 413.792969 C 257.496094 414.039062 275.664062 421.515625 271.296875 423.519531 C 270.871094 423.71875 270.4375 423.902344 270 424.078125 C 257.15625 429.183594 241.953125 424.390625 231.972656 436.738281 C 219.855469 451.738281 238.742188 467.277344 249.621094 475.328125 C 256.136719 480.140625 263.324219 483.941406 270.476562 488 C 286.613281 497.1875 302.546875 506.75 318.230469 516.695312 C 320.726562 518.28125 323.554688 521.292969 321.828125 523.699219 C 296.363281 518.964844 271.296875 512.105469 246.964844 503.226562 C 242.027344 501.425781 236.34375 499.578125 231.742188 502.121094 " fill-opacity="1" fill-rule="nonzero"/><path fill="#484f68" d="M 470.777344 86.503906 C 467.8125 90.023438 464.972656 93.726562 461.429688 96.628906 C 456.011719 101.070312 450.621094 105.554688 445.125 109.898438 C 434.457031 118.335938 423.308594 126.1875 411.09375 132.214844 C 394.527344 140.382812 378.867188 150.195312 362.886719 159.425781 C 359.253906 161.53125 355.609375 163.59375 351.933594 165.605469 C 329.183594 178.058594 306.371094 195.949219 278.78125 191.070312 C 284.085938 187.410156 289.949219 184.730469 295.800781 182.089844 C 301.566406 179.492188 306.535156 176.085938 311.691406 172.402344 C 314.050781 170.726562 316.367188 168.957031 318.242188 166.753906 C 320.117188 164.550781 321.535156 161.867188 321.785156 158.988281 C 321.964844 156.675781 317.871094 159.023438 317.222656 159.453125 C 310.90625 163.671875 304.234375 167.417969 297.367188 170.675781 C 289.605469 174.355469 280.632812 176.582031 272.289062 178.808594 C 267.152344 180.1875 261.855469 181.371094 256.554688 180.863281 C 255.621094 180.777344 254.511719 180.496094 254.21875 179.601562 C 253.949219 178.777344 254.554688 177.929688 255.175781 177.332031 C 257.125 175.445312 259.597656 174.214844 262.085938 173.160156 C 275.210938 167.601562 287.953125 162.972656 299.5 154.265625 C 302.457031 152.039062 305.433594 149.78125 307.738281 146.890625 C 308.339844 146.128906 308.890625 144.96875 308.214844 144.265625 C 306.625 142.601562 299.515625 145.859375 297.714844 146.390625 C 293.722656 147.550781 289.734375 148.714844 285.742188 149.875 C 273.972656 153.300781 262.460938 157.808594 250.21875 159.347656 C 247.992188 159.621094 234.355469 160.957031 234.21875 157.394531 C 234.089844 153.992188 245.03125 151.617188 247.363281 150.617188 C 251.03125 149.050781 254.695312 147.34375 258.441406 145.96875 C 271.507812 141.191406 285.609375 136.527344 297.457031 129.136719 C 298.109375 128.730469 298.835938 127.949219 298.390625 127.328125 C 292.828125 127.644531 287.769531 129.570312 282.292969 130.175781 C 278.027344 130.644531 273.722656 130.863281 269.46875 131.382812 C 257.894531 132.804688 246.226562 134.484375 234.542969 133.511719 C 232.242188 133.328125 224.441406 133.195312 228.738281 129.765625 C 230.59375 128.285156 233.542969 128.152344 235.726562 127.375 C 239.964844 125.875 244.199219 124.351562 248.441406 122.84375 C 256.734375 119.890625 265.042969 116.972656 273.421875 114.273438 C 275.382812 113.636719 304.890625 100.375 302.554688 99.035156 C 291.882812 93.519531 278.851562 100.046875 268.125 94.367188 C 275.957031 89.328125 285.917969 86.1875 295.925781 83.570312 C 303.402344 81.617188 310.90625 79.9375 317.566406 77.980469 C 323.109375 76.347656 328.742188 74.949219 334.363281 73.558594 C 347.007812 70.441406 359.648438 67.335938 371.390625 61.527344 C 385.808594 54.390625 401.15625 42.605469 408.890625 27.988281 C 410.605469 28.707031 412.300781 29.457031 413.980469 30.222656 C 434.9375 39.824219 450.402344 52.023438 462.660156 71.34375 C 465.734375 76.1875 468.445312 81.261719 470.777344 86.503906 " fill-opacity="1" fill-rule="nonzero"/><path fill="#484f68" d="M 436.171875 253.335938 C 436.273438 253.691406 436.390625 254.039062 436.507812 254.386719 C 438.496094 260.460938 441.476562 266.445312 441.324219 272.839844 C 441.078125 283.179688 432.386719 291.785156 422.636719 295.265625 C 402.375 302.5 378.148438 305.996094 357.066406 310.058594 C 338.203125 313.691406 319.425781 317.773438 300.757812 322.3125 C 297.785156 323.03125 294.019531 325.050781 294.917969 327.972656 C 326.050781 332.453125 357.441406 333.183594 388.835938 334.09375 C 360.21875 340.636719 330.257812 341.265625 301.386719 335.929688 C 300.636719 335.792969 299.867188 335.648438 299.125 335.789062 C 296.765625 336.222656 295.765625 339.34375 296.695312 341.554688 C 297.621094 343.761719 299.777344 345.164062 301.890625 346.292969 C 329.171875 360.824219 369.679688 354.339844 399.464844 354.472656 C 399.257812 354.46875 388.152344 361.679688 385.375 362.246094 C 377.828125 363.796875 369.917969 364.363281 362.230469 364.515625 C 355.5 364.636719 348.753906 364.3125 342.082031 363.410156 C 336.074219 362.605469 329.023438 359.453125 323.011719 359.902344 C 321.582031 360.011719 320.105469 360.761719 319.542969 362.082031 C 318.964844 363.453125 319.511719 365.101562 320.507812 366.210938 C 321.496094 367.320312 322.863281 368.011719 324.199219 368.679688 C 327.480469 370.324219 330.757812 372.421875 334.324219 373.238281 C 341.476562 374.878906 348.496094 376.667969 355.871094 377.378906 C 359.09375 377.691406 362.3125 378.007812 365.535156 378.320312 C 379.769531 379.699219 393.359375 377.722656 407.632812 379.667969 C 400.792969 387.097656 390.648438 390.910156 380.730469 389.519531 C 378.195312 389.160156 350.425781 384.585938 350.835938 385.773438 C 352.378906 390.3125 357.019531 392.992188 361.492188 394.734375 C 383.984375 403.496094 409.242188 398.433594 432.699219 392.753906 C 450.417969 388.457031 462.5 380.730469 476.527344 369.632812 C 500.425781 350.726562 498.054688 324.171875 483.554688 300.132812 C 476.667969 288.710938 467.75 278.640625 461.304688 266.988281 C 454.355469 254.429688 451.070312 240.207031 444.625 227.410156 C 443.394531 224.964844 441.492188 222.242188 438.757812 222.347656 C 435.359375 222.480469 433.90625 226.714844 433.625 230.105469 C 432.992188 237.914062 433.855469 245.851562 436.171875 253.335938 " fill-opacity="1" fill-rule="nonzero"/><path fill="#484f68" d="M 271.085938 199.496094 C 274.132812 199.292969 276.96875 199.945312 278.605469 202.398438 C 267.007812 208.144531 255.75 214.574219 244.914062 221.65625 C 243.425781 222.632812 241.886719 223.675781 241.03125 225.238281 C 240.175781 226.800781 240.269531 229.027344 241.703125 230.074219 C 242.691406 230.796875 244.023438 230.789062 245.238281 230.671875 C 251.3125 230.09375 256.996094 227.523438 262.542969 224.992188 C 274.460938 219.550781 286.378906 214.117188 298.292969 208.675781 C 302.195312 206.898438 307.039062 205.199219 310.472656 207.765625 C 295.839844 227.054688 275.25 239.945312 255.957031 254.039062 C 270.144531 248.394531 284.324219 242.746094 298.507812 237.109375 C 301.9375 235.742188 305.851562 234.375 309.214844 235.90625 C 308.855469 239.355469 306.320312 242.140625 303.800781 244.519531 C 289.082031 258.398438 270.480469 267.332031 253.839844 278.839844 C 264.328125 280.929688 275.230469 280.859375 285.707031 278.71875 C 289.53125 277.933594 302.890625 272.589844 304.765625 275.4375 C 306.429688 277.980469 297.75 284.644531 296.308594 285.789062 C 292.195312 289.070312 287.578125 291.71875 282.703125 293.675781 C 272.085938 297.9375 260.378906 299.035156 248.972656 298.105469 C 233.4375 296.84375 220.113281 289.222656 210.394531 277.058594 C 199.753906 263.742188 196.976562 245.558594 200.558594 229.171875 C 202.347656 220.984375 205.707031 212.8125 210.757812 206.082031 C 213.226562 202.800781 216.148438 202.105469 218.804688 199.542969 C 220.570312 197.839844 221.746094 192.179688 225.070312 193.089844 C 226.558594 193.492188 227.285156 195.167969 227.589844 196.6875 C 228.351562 200.445312 227.765625 204.460938 225.964844 207.839844 C 225.441406 208.828125 224.792969 209.902344 225.074219 210.976562 C 225.617188 213.074219 228.652344 212.867188 230.710938 212.183594 C 241.992188 208.425781 253.273438 204.660156 264.558594 200.898438 C 266.578125 200.226562 268.886719 199.632812 271.085938 199.496094 " fill-opacity="1" fill-rule="nonzero"/><path fill="#484f68" d="M 731.136719 632.761719 C 699.398438 642.601562 664.804688 644.886719 631.71875 643.050781 C 591.574219 640.832031 552.167969 631.9375 513.492188 621.417969 C 500.734375 617.953125 488.710938 612.207031 475.898438 608.921875 C 463.875 605.832031 451.773438 607.882812 439.804688 604.703125 C 427.808594 601.53125 407.851562 589.992188 409.835938 575.140625 C 416.332031 577.796875 420.292969 583.230469 426.582031 586.164062 C 440.371094 592.613281 451.140625 587.722656 464.941406 586.136719 C 465.136719 583.402344 463.605469 581.871094 461.078125 580.925781 C 449.796875 576.519531 437.617188 573.957031 427.117188 568.167969 C 416.28125 562.191406 405.960938 555.980469 396.765625 547.597656 C 393.445312 544.574219 390.199219 541.21875 388.683594 536.992188 C 389.414062 535.890625 391.0625 536.125 392.308594 536.539062 C 399.457031 538.941406 405.613281 543.519531 411.984375 547.554688 C 421.367188 553.503906 429.320312 553.554688 439.449219 555.957031 C 446.816406 557.707031 454.519531 559.5625 461.90625 557.824219 C 460.414062 557.824219 446.394531 545.511719 444.058594 544.105469 C 437.617188 540.1875 430.945312 536.613281 424.308594 533.074219 C 410.386719 525.648438 398.671875 515.9375 390.839844 501.992188 C 390.0625 500.621094 389.59375 498.4375 391.058594 497.855469 C 391.707031 497.601562 392.433594 497.851562 393.078125 498.101562 C 405.703125 503 417.605469 509.660156 429.988281 515.152344 C 433.871094 516.859375 471.441406 531.324219 471.441406 533.488281 C 471.992188 528.46875 468.238281 524.101562 464.8125 520.390625 C 447.898438 502.085938 432.515625 482.363281 418.863281 461.515625 C 420.359375 459.09375 424.089844 460.484375 426.414062 462.109375 C 441.078125 472.355469 455.492188 482.949219 469.636719 493.886719 C 475.894531 498.71875 481.941406 503.699219 488.640625 507.695312 C 504.992188 517.445312 523.070312 533.84375 533.832031 502.9375 C 537.542969 492.324219 531.785156 483.210938 532.941406 472.882812 C 532.953125 472.742188 532.976562 472.613281 532.988281 472.472656 C 533.0625 471.894531 533.191406 471.296875 533.59375 470.882812 C 534.699219 469.765625 536.542969 470.980469 537.5625 472.175781 C 545.003906 480.859375 551.945312 493.0625 553.160156 504.664062 C 554.207031 514.835938 548.664062 521.867188 553.445312 531.300781 C 558.128906 540.542969 571.332031 546.390625 580.75 548.734375 C 592.730469 551.71875 605.292969 551.136719 617.566406 549.894531 C 649.34375 546.695312 680.675781 539.191406 710.457031 527.65625 C 717.382812 546.609375 722.335938 566.722656 726.003906 588.015625 C 726.789062 592.578125 728.78125 609.925781 731.136719 632.761719 " fill-opacity="1" fill-rule="nonzero"/></svg>