<svg xmlns="http://www.w3.org/2000/svg" xmlns:xlink="http://www.w3.org/1999/xlink" width="1920" zoomAndPan="magnify" viewBox="0 0 1440 809.999993" height="1080" preserveAspectRatio="xMidYMid meet" version="1.0"><defs><filter x="0%" y="0%" width="100%" height="100%" id="504c85c325"><feColorMatrix values="0 0 0 0 1 0 0 0 0 1 0 0 0 0 1 0 0 0 1 0" color-interpolation-filters="sRGB"/></filter><mask id="9deee111a6"><g filter="url(#504c85c325)"><rect x="-144" width="1728" fill="#000000" y="-80.999999" height="971.999992" fill-opacity="0.83"/></g></mask><clipPath id="aee43efa46"><path d="M 0.480469 1 L 1440 1 L 1440 344 L 0.480469 344 Z M 0.480469 1 " clip-rule="nonzero"/></clipPath><clipPath id="2881d8e4b3"><rect x="0" width="1440" y="0" height="345"/></clipPath></defs><g mask="url(#9deee111a6)"><g transform="matrix(1, 0, 0, 1, -0.000000000000000056, 245)"><g clip-path="url(#2881d8e4b3)"><g clip-path="url(#aee43efa46)"><path fill="#fffaf1" d="M 1439.308594 119.390625 L 1439.308594 1.074219 L 1439.308594 38.480469 C 1434.28125 39.921875 1422.070312 43.683594 1413.742188 40.550781 C 1396.0625 29.082031 1407.730469 32.085938 1393.589844 37.417969 C 1375.101562 31.941406 1372.050781 45.152344 1355.25 37.683594 C 1336.617188 38.292969 1372.183594 32.160156 1336.328125 34.558594 C 1300.402344 43.75 1300.941406 11.808594 1285.933594 41.296875 C 1241.183594 61.695312 1254.828125 49.453125 1221.378906 44.210938 C 1213.324219 28.152344 1210.164062 40.449219 1193.980469 43.542969 C 1178.144531 39.027344 1178.332031 38.191406 1161.800781 44.210938 C 1152.160156 38.332031 1140.660156 51.972656 1135.335938 46.007812 C 1123.328125 47.222656 1116.105469 40.035156 1107.898438 35.566406 C 1098 6.339844 1090.738281 25.121094 1079.476562 22.664062 C 1066.960938 19.523438 1055.011719 19.957031 1042.195312 19.664062 C 1030.03125 13.078125 1017.847656 22.042969 1005.664062 19.476562 C 993.488281 21 981.304688 19.390625 969.148438 19.542969 C 957.167969 19.863281 945.925781 33.410156 933.96875 22.710938 C 917.746094 10.546875 901.523438 20.003906 885.304688 22.636719 C 866.382812 11.347656 850.492188 8.027344 832.914062 27.886719 C 823.074219 29.769531 813.503906 35.507812 803.652344 38.445312 C 795.921875 41.992188 789.332031 42.105469 781.648438 41.011719 C 770.355469 33.007812 761.003906 65.796875 749.363281 52.71875 C 728.074219 57.253906 706.320312 73.753906 685.742188 48.773438 C 674.667969 39.433594 663.5 57.882812 652.171875 43.394531 C 642.226562 38.90625 632.175781 58.542969 622.222656 43.609375 C 611.0625 69.523438 600.78125 28.1875 589.460938 40.523438 C 581.105469 36.761719 575.140625 35.113281 567.820312 36.222656 C 548.804688 31.519531 527.503906 27.023438 506.878906 15.335938 C 494 25.214844 482.539062 5.617188 468.304688 4.648438 C 463.230469 3.96875 457.566406 2.285156 451.789062 1.074219 L 432.230469 1.074219 C 428.386719 2.390625 425.140625 4.585938 422.484375 7.660156 C 413.542969 25.148438 405.734375 37.042969 396.089844 16.757812 C 391.386719 17.058594 390.378906 18.636719 385.789062 19.785156 C 381.761719 27.191406 378.042969 4.0625 373.988281 20.210938 C 362.03125 12.296875 353.976562 29.871094 343.757812 40.796875 C 335.054688 38.914062 328.074219 54.121094 318.035156 49.519531 C 295.574219 47.023438 277.746094 61.261719 256.078125 63.09375 C 253.441406 85.167969 249.492188 69.023438 239.621094 62.464844 C 241.503906 49.292969 231.371094 53.855469 230.863281 55.425781 C 230.382812 48.691406 222.328125 56.660156 219.277344 58.644531 C 211.066406 53.941406 218.121094 69.457031 204.074219 58.496094 C 202.257812 49.347656 189.886719 49.554688 174.90625 57.9375 C 168.519531 57.996094 169.789062 46.835938 160.164062 49.019531 C 153.578125 46.507812 158.101562 55.417969 140.800781 37.144531 C 136.519531 33.035156 134.835938 30.210938 134.402344 28.367188 C 132.371094 29.488281 130.238281 30.351562 128.003906 30.964844 C 127.871094 30.417969 108.847656 22.28125 118.085938 27.878906 C 109.535156 28.820312 124.476562 16.964844 111.605469 23.398438 C 95.28125 10.773438 101.253906 22.167969 92.324219 20.417969 C 92.898438 -4.046875 78.0625 12.804688 57.898438 16.652344 C 52.800781 18.535156 46.410156 2.425781 26.941406 16.652344 C 19.511719 21.246094 10.101562 22.382812 0.691406 21.667969 L 0.691406 1.074219 L 0.691406 75.554688 C 1.007812 78.03125 1.007812 80.507812 0.691406 82.984375 L 0.691406 143.683594 C 1.171875 144.304688 1.722656 144.855469 2.339844 145.339844 C 1.902344 146.53125 1.351562 147.667969 0.691406 148.753906 L 0.691406 159.359375 C 1.003906 159.4375 1.316406 159.496094 1.632812 159.535156 C 2.996094 159.695312 2.320312 160.382812 0.691406 161.417969 L 0.691406 290.628906 C 10.101562 291.335938 19.511719 290.207031 26.960938 285.625 C 46.429688 271.40625 52.816406 287.507812 57.917969 285.625 C 78.082031 281.738281 92.917969 264.925781 92.34375 289.386719 C 101.292969 291.136719 95.296875 279.734375 111.625 292.359375 C 124.496094 285.933594 109.554688 297.78125 118.105469 296.847656 C 108.867188 291.25 127.890625 299.390625 128.023438 299.933594 C 130.257812 299.320312 132.390625 298.453125 134.421875 297.339844 C 134.855469 299.21875 136.539062 302.042969 140.820312 306.109375 C 158.121094 324.390625 153.578125 315.515625 160.183594 317.980469 C 169.808594 315.808594 168.539062 326.957031 174.925781 326.910156 C 189.886719 318.519531 202.210938 318.3125 204.09375 327.457031 C 218.140625 338.425781 211.085938 322.941406 219.296875 327.617188 C 222.347656 325.632812 230.402344 317.660156 230.878906 324.398438 C 231.386719 322.828125 241.484375 318.226562 239.640625 331.4375 C 249.511719 338.023438 253.460938 354.128906 256.097656 332.066406 C 277.738281 330.183594 295.613281 315.996094 318.054688 318.488281 C 328.09375 323.089844 335.074219 307.90625 343.777344 309.769531 C 353.996094 298.84375 362.050781 281.269531 374.007812 289.171875 C 378.0625 273.027344 381.78125 296.152344 385.808594 288.75 C 390.398438 287.589844 391.453125 286.019531 396.109375 285.71875 C 405.753906 306.011719 413.5625 294.121094 422.5 276.628906 C 435.523438 261.972656 454.199219 271.71875 468.3125 273.601562 C 482.511719 274.539062 493.972656 294.160156 506.890625 284.289062 C 527.511719 295.972656 548.816406 300.460938 567.832031 305.167969 C 575.160156 304.066406 581.125 305.664062 589.472656 309.476562 C 600.761719 297.132812 611.109375 338.472656 622.234375 312.5625 C 632.1875 327.492188 642.234375 307.859375 652.179688 312.335938 C 663.472656 326.824219 674.675781 308.382812 685.75 317.71875 C 706.328125 342.699219 728.089844 326.1875 749.375 321.671875 C 761.011719 334.75 770.402344 301.910156 781.65625 309.957031 C 789.34375 311.058594 795.929688 310.945312 803.664062 307.398438 C 813.515625 304.453125 823.082031 298.710938 832.925781 296.839844 C 850.5 276.976562 866.390625 280.261719 885.3125 291.589844 C 901.535156 288.957031 917.753906 279.5 933.976562 291.65625 C 945.933594 302.355469 957.179688 288.832031 969.15625 288.496094 C 981.3125 288.34375 993.496094 289.953125 1005.671875 288.417969 C 1017.902344 290.996094 1030.039062 282.078125 1042.207031 288.617188 C 1055.050781 288.910156 1066.96875 288.476562 1079.484375 291.617188 C 1090.773438 294.074219 1098.011719 275.292969 1107.910156 304.519531 C 1116.113281 308.988281 1123.339844 316.164062 1135.34375 314.953125 C 1140.671875 320.925781 1152.167969 307.273438 1161.8125 313.15625 C 1178.34375 307.144531 1178.15625 307.980469 1193.988281 312.496094 C 1210.171875 309.363281 1213.335938 297.105469 1221.390625 313.15625 C 1254.835938 318.40625 1241.148438 330.636719 1285.941406 310.238281 C 1300.996094 280.75 1300.414062 312.703125 1336.335938 303.5 C 1372.15625 301.101562 1336.628906 307.265625 1355.257812 306.636719 C 1372.0625 314.097656 1375.109375 300.894531 1393.597656 306.371094 C 1407.710938 301 1396.074219 298.035156 1413.753906 309.496094 C 1422.078125 312.636719 1434.292969 308.863281 1439.316406 307.433594 L 1439.316406 124.996094 C 1431.78125 122.117188 1431.195312 120.566406 1439.308594 119.390625 Z M 1439.308594 119.390625 " fill-opacity="1" fill-rule="nonzero"/></g></g></g></g></svg>