<svg xmlns="http://www.w3.org/2000/svg" xmlns:xlink="http://www.w3.org/1999/xlink" width="1920" zoomAndPan="magnify" viewBox="0 0 1440 809.999993" height="1080" preserveAspectRatio="xMidYMid meet" version="1.0"><defs><filter x="0%" y="0%" width="100%" height="100%" id="766d3f50ac"><feColorMatrix values="0 0 0 0 1 0 0 0 0 1 0 0 0 0 1 0 0 0 1 0" color-interpolation-filters="sRGB"/></filter><mask id="e445cc0eb5"><g filter="url(#766d3f50ac)"><rect x="-144" width="1728" fill="#000000" y="-80.999999" height="971.999992" fill-opacity="0.16"/></g></mask><clipPath id="54dbef08fc"><path d="M 0.859375 0.800781 L 352.664062 0.800781 L 352.664062 47.199219 L 0.859375 47.199219 Z M 0.859375 0.800781 " clip-rule="nonzero"/></clipPath><clipPath id="d36fad7bbe"><path d="M 24.058594 0.800781 L 329.394531 0.800781 C 342.207031 0.800781 352.59375 11.1875 352.59375 24 C 352.59375 36.8125 342.207031 47.199219 329.394531 47.199219 L 24.058594 47.199219 C 11.246094 47.199219 0.859375 36.8125 0.859375 24 C 0.859375 11.1875 11.246094 0.800781 24.058594 0.800781 Z M 24.058594 0.800781 " clip-rule="nonzero"/></clipPath><clipPath id="7c632d0363"><rect x="0" width="353" y="0" height="48"/></clipPath></defs><g mask="url(#e445cc0eb5)"><g transform="matrix(1, 0, 0, 1, 527, 381)"><g clip-path="url(#7c632d0363)"><g clip-path="url(#54dbef08fc)"><g clip-path="url(#d36fad7bbe)"><path fill="#ef5b56" d="M 0.859375 0.800781 L 352.664062 0.800781 L 352.664062 47.199219 L 0.859375 47.199219 Z M 0.859375 0.800781 " fill-opacity="1" fill-rule="nonzero"/></g></g></g></g></g></svg>