<svg xmlns="http://www.w3.org/2000/svg" xmlns:xlink="http://www.w3.org/1999/xlink" width="1920" zoomAndPan="magnify" viewBox="0 0 1440 809.999993" height="1080" preserveAspectRatio="xMidYMid meet" version="1.0"><defs><clipPath id="6695295cef"><path d="M 10.175781 14 L 772.925781 14 L 772.925781 773.503906 L 10.175781 773.503906 Z M 10.175781 14 " clip-rule="nonzero"/></clipPath></defs><g clip-path="url(#6695295cef)"><path fill="#d4491d" d="M 391.699219 14.015625 C 180.953125 14.015625 10.175781 184.792969 10.175781 395.539062 C 10.175781 584.816406 148.25 742.046875 328.9375 771.777344 L 328.9375 513.136719 L 231.820312 513.136719 L 231.820312 399.835938 L 328.9375 399.835938 L 328.9375 317.582031 C 328.9375 228.398438 401.277344 167.949219 490.464844 167.949219 C 530.101562 167.949219 554.878906 173.894531 554.878906 173.894531 L 554.878906 269.027344 L 490.464844 269.027344 C 463.707031 269.027344 441.90625 290.828125 441.90625 317.582031 L 441.90625 399.835938 L 545.957031 399.835938 L 531.425781 513.136719 L 441.90625 513.136719 L 441.90625 773.429688 C 628.539062 748.65625 772.558594 588.777344 772.558594 395.539062 C 772.890625 184.792969 602.113281 14.015625 391.699219 14.015625 Z M 391.699219 14.015625 " fill-opacity="1" fill-rule="nonzero"/></g></svg>