<svg xmlns="http://www.w3.org/2000/svg" xmlns:xlink="http://www.w3.org/1999/xlink" width="1920" zoomAndPan="magnify" viewBox="0 0 1440 809.999993" height="1080" preserveAspectRatio="xMidYMid meet" version="1.0"><defs><g/><clipPath id="10c85e6381"><path d="M 1091.089844 31.28125 L 1391.042969 31.28125 L 1391.042969 332.40625 L 1091.089844 332.40625 Z M 1091.089844 31.28125 " clip-rule="nonzero"/></clipPath><clipPath id="3ba594ed7f"><path d="M 1241.066406 31.28125 C 1158.238281 31.28125 1091.089844 98.65625 1091.089844 181.765625 C 1091.089844 264.878906 1158.238281 332.253906 1241.066406 332.253906 C 1323.894531 332.253906 1391.042969 264.878906 1391.042969 181.765625 C 1391.042969 98.65625 1323.894531 31.28125 1241.066406 31.28125 Z M 1241.066406 31.28125 " clip-rule="nonzero"/></clipPath><clipPath id="a472948afd"><path d="M 49.574219 275.976562 L 1160.394531 275.976562 L 1160.394531 305.902344 L 49.574219 305.902344 Z M 49.574219 275.976562 " clip-rule="nonzero"/></clipPath><clipPath id="a83f461cd8"><path d="M 18.207031 261.015625 L 1129 261.015625 L 1129 290.941406 L 18.207031 290.941406 Z M 18.207031 261.015625 " clip-rule="nonzero"/></clipPath><clipPath id="3f2ca220b7"><path d="M 26.25 65.21875 L 1128.75 65.21875 L 1128.75 260.96875 L 26.25 260.96875 Z M 26.25 65.21875 " clip-rule="nonzero"/></clipPath><clipPath id="a8c2b330e0"><path d="M 1077.835938 13.699219 L 1376.335938 13.699219 L 1376.335938 312.199219 L 1077.835938 312.199219 Z M 1077.835938 13.699219 " clip-rule="nonzero"/></clipPath></defs><g clip-path="url(#10c85e6381)"><g clip-path="url(#3ba594ed7f)"><path fill="#48557b" d="M 1091.089844 31.28125 L 1391.042969 31.28125 L 1391.042969 332.40625 L 1091.089844 332.40625 Z M 1091.089844 31.28125 " fill-opacity="1" fill-rule="nonzero"/></g></g><g clip-path="url(#a472948afd)"><path fill="#2b3349" d="M 49.574219 275.976562 L 1160.359375 275.976562 L 1160.359375 305.902344 L 49.574219 305.902344 Z M 49.574219 275.976562 " fill-opacity="1" fill-rule="nonzero"/></g><g clip-path="url(#a83f461cd8)"><path fill="#d4491d" d="M 18.207031 261.015625 L 1128.992188 261.015625 L 1128.992188 290.941406 L 18.207031 290.941406 Z M 18.207031 261.015625 " fill-opacity="1" fill-rule="nonzero"/></g><g clip-path="url(#3f2ca220b7)"><path stroke-linecap="butt" transform="matrix(0.75, 0, 0, 0.75, 26.248569, 65.217557)" fill="none" stroke-linejoin="miter" d="M 0.00190738 0.00159104 L 1470.36145 0.00159104 L 1470.36145 261.058913 L 0.00190738 261.058913 Z M 0.00190738 0.00159104 " stroke="#334e5f" stroke-width="4" stroke-opacity="1" stroke-miterlimit="4"/></g><g clip-path="url(#a8c2b330e0)"><path fill="#e67644" d="M 1376.335938 163.113281 C 1376.335938 80.726562 1309.3125 13.699219 1226.921875 13.699219 C 1144.535156 13.699219 1077.507812 80.726562 1077.507812 163.113281 C 1077.507812 245.5 1144.535156 312.527344 1226.921875 312.527344 C 1309.3125 312.527344 1376.335938 245.5 1376.335938 163.113281 Z M 1178.363281 174.320312 C 1184.191406 168.492188 1193.664062 168.492188 1199.492188 174.320312 L 1211.980469 186.808594 L 1211.980469 103.347656 C 1211.980469 95.097656 1218.675781 88.40625 1226.921875 88.40625 C 1235.171875 88.40625 1241.863281 95.097656 1241.863281 103.347656 L 1241.863281 186.808594 L 1254.355469 174.320312 C 1260.183594 168.492188 1269.65625 168.492188 1275.484375 174.320312 C 1281.308594 180.144531 1281.308594 189.617188 1275.484375 195.445312 L 1237.488281 233.441406 C 1231.660156 239.269531 1222.1875 239.269531 1216.359375 233.441406 L 1178.363281 195.445312 C 1172.535156 189.617188 1172.535156 180.144531 1178.363281 174.320312 Z M 1178.363281 174.320312 " fill-opacity="1" fill-rule="nonzero"/></g><g fill="#484f68" fill-opacity="1"><g transform="translate(109.550903, 219.561706)"><g><path d="M 8.035156 0 L 89.683594 0 L 89.683594 -24.101562 L 37.546875 -24.101562 L 37.546875 -117.226562 L 8.035156 -117.226562 Z M 8.035156 0 "/></g></g></g><g fill="#484f68" fill-opacity="1"><g transform="translate(202.146535, 219.561706)"><g><path d="M 61.320312 2.625 C 98.207031 2.625 119.359375 -23.28125 119.359375 -58.695312 C 119.359375 -93.945312 98.207031 -119.851562 61.320312 -119.851562 C 24.101562 -119.851562 3.277344 -93.945312 3.277344 -58.695312 C 3.277344 -23.28125 24.101562 2.625 61.320312 2.625 Z M 61.320312 -21.476562 C 39.839844 -21.476562 32.789062 -38.203125 32.789062 -58.695312 C 32.789062 -79.027344 39.839844 -95.75 61.320312 -95.75 C 82.632812 -95.75 89.847656 -79.027344 89.847656 -58.695312 C 89.847656 -38.203125 82.632812 -21.476562 61.320312 -21.476562 Z M 61.320312 -21.476562 "/></g></g></g><g fill="#484f68" fill-opacity="1"><g transform="translate(324.733386, 219.561706)"><g><path d="M -0.164062 0 L 29.347656 0 L 36.890625 -24.429688 L 77.058594 -24.429688 L 84.601562 0 L 114.113281 0 L 71.8125 -117.226562 L 42.300781 -117.226562 Z M 43.613281 -46.890625 L 56.890625 -90.175781 L 57.21875 -90.175781 L 70.5 -46.890625 Z M 43.613281 -46.890625 "/></g></g></g><g fill="#484f68" fill-opacity="1"><g transform="translate(438.961982, 219.561706)"><g><path d="M 8.035156 0 L 61.648438 0 C 94.273438 0 112.308594 -20.820312 112.308594 -58.53125 C 112.308594 -96.242188 92.632812 -117.226562 60.007812 -117.226562 L 8.035156 -117.226562 Z M 37.546875 -24.101562 L 37.546875 -93.125 L 57.054688 -93.125 C 75.417969 -93.125 82.796875 -79.847656 82.796875 -58.53125 C 82.796875 -37.21875 75.417969 -24.101562 57.054688 -24.101562 Z M 37.546875 -24.101562 "/></g></g></g><g fill="#484f68" fill-opacity="1"><g transform="translate(554.501746, 219.561706)"><g/></g></g><g fill="#484f68" fill-opacity="1"><g transform="translate(582.362418, 219.561706)"><g><path d="M 8.035156 0 L 35.90625 0 L 35.90625 -72.960938 L 36.234375 -72.960938 L 58.039062 0 L 78.699219 0 L 100.503906 -72.960938 L 100.832031 -72.960938 L 100.832031 0 L 128.703125 0 L 128.703125 -117.226562 L 92.632812 -117.226562 L 68.53125 -42.464844 L 68.203125 -42.464844 L 44.105469 -117.226562 L 8.035156 -117.226562 Z M 8.035156 0 "/></g></g></g><g fill="#484f68" fill-opacity="1"><g transform="translate(719.043444, 219.561706)"><g><path d="M 61.320312 2.625 C 98.207031 2.625 119.359375 -23.28125 119.359375 -58.695312 C 119.359375 -93.945312 98.207031 -119.851562 61.320312 -119.851562 C 24.101562 -119.851562 3.277344 -93.945312 3.277344 -58.695312 C 3.277344 -23.28125 24.101562 2.625 61.320312 2.625 Z M 61.320312 -21.476562 C 39.839844 -21.476562 32.789062 -38.203125 32.789062 -58.695312 C 32.789062 -79.027344 39.839844 -95.75 61.320312 -95.75 C 82.632812 -95.75 89.847656 -79.027344 89.847656 -58.695312 C 89.847656 -38.203125 82.632812 -21.476562 61.320312 -21.476562 Z M 61.320312 -21.476562 "/></g></g></g><g fill="#484f68" fill-opacity="1"><g transform="translate(841.630295, 219.561706)"><g><path d="M 8.035156 0 L 37.546875 0 L 37.546875 -40.824219 L 55.910156 -40.824219 C 80.992188 -40.824219 70.335938 -4.917969 76.074219 0 L 106.734375 0 L 106.734375 -1.640625 C 100.011719 -3.605469 110.667969 -49.023438 81.320312 -54.105469 L 81.320312 -54.433594 C 95.914062 -57.710938 105.09375 -67.550781 105.09375 -83.125 C 105.09375 -105.257812 89.355469 -117.226562 63.285156 -117.226562 L 8.035156 -117.226562 Z M 37.546875 -64.925781 L 37.546875 -93.125 L 57.546875 -93.125 C 69.351562 -93.125 75.582031 -88.863281 75.582031 -79.027344 C 75.582031 -69.1875 69.351562 -64.925781 57.546875 -64.925781 Z M 37.546875 -64.925781 "/></g></g></g><g fill="#484f68" fill-opacity="1"><g transform="translate(951.597885, 219.561706)"><g><path d="M 8.035156 0 L 97.878906 0 L 97.878906 -24.101562 L 37.546875 -24.101562 L 37.546875 -48.203125 L 88.699219 -48.203125 L 88.699219 -72.304688 L 37.546875 -72.304688 L 37.546875 -93.125 L 96.898438 -93.125 L 96.898438 -117.226562 L 8.035156 -117.226562 Z M 8.035156 0 "/></g></g></g></svg>