<svg xmlns="http://www.w3.org/2000/svg" xmlns:xlink="http://www.w3.org/1999/xlink" width="1920" zoomAndPan="magnify" viewBox="0 0 1440 809.999993" height="1080" preserveAspectRatio="xMidYMid meet" version="1.0"><defs><g/><clipPath id="e0ef21a677"><path d="M 20.039062 162.148438 L 1420 162.148438 L 1420 560.367188 L 20.039062 560.367188 Z M 20.039062 162.148438 " clip-rule="nonzero"/></clipPath><clipPath id="7980390ce6"><path d="M 56.039062 162.148438 L 1383.960938 162.148438 C 1393.511719 162.148438 1402.667969 165.941406 1409.417969 172.691406 C 1416.167969 179.445312 1419.960938 188.601562 1419.960938 198.148438 L 1419.960938 524.367188 C 1419.960938 533.914062 1416.167969 543.070312 1409.417969 549.820312 C 1402.667969 556.574219 1393.511719 560.367188 1383.960938 560.367188 L 56.039062 560.367188 C 46.488281 560.367188 37.332031 556.574219 30.582031 549.820312 C 23.832031 543.070312 20.039062 533.914062 20.039062 524.367188 L 20.039062 198.148438 C 20.039062 188.601562 23.832031 179.445312 30.582031 172.691406 C 37.332031 165.941406 46.488281 162.148438 56.039062 162.148438 Z M 56.039062 162.148438 " clip-rule="nonzero"/></clipPath><clipPath id="ceb92bcc41"><path d="M 1211.246094 266.132812 L 1327.496094 266.132812 L 1327.496094 472.382812 L 1211.246094 472.382812 Z M 1211.246094 266.132812 " clip-rule="nonzero"/></clipPath><clipPath id="3682790c46"><path d="M 1177.132812 287.363281 L 1269.382812 287.363281 L 1269.382812 450.863281 L 1177.132812 450.863281 Z M 1177.132812 287.363281 " clip-rule="nonzero"/></clipPath></defs><g clip-path="url(#e0ef21a677)"><g clip-path="url(#7980390ce6)"><path fill="#d4491d" d="M 20.039062 162.148438 L 1420.019531 162.148438 L 1420.019531 560.367188 L 20.039062 560.367188 Z M 20.039062 162.148438 " fill-opacity="1" fill-rule="nonzero"/></g></g><g clip-path="url(#ceb92bcc41)"><path fill="#f1f1f1" d="M 1224.175781 472.308594 L 1327.25 369.238281 L 1224.175781 266.164062 L 1211.246094 279.09375 L 1301.390625 369.238281 L 1211.246094 459.378906 Z M 1224.175781 472.308594 " fill-opacity="1" fill-rule="nonzero"/></g><g clip-path="url(#3682790c46)"><path fill="#f1f1f1" d="M 1187.402344 451.078125 L 1269.238281 369.238281 L 1187.398438 287.398438 L 1177.132812 297.664062 L 1248.707031 369.238281 L 1177.132812 440.808594 Z M 1187.402344 451.078125 " fill-opacity="1" fill-rule="nonzero"/></g><g fill="#f1f1f1" fill-opacity="1"><g transform="translate(257.992719, 425.737063)"><g><path d="M 74.964844 3.269531 C 115 3.269531 136.246094 -20.425781 139.511719 -54.742188 L 102.746094 -54.742188 C 100.292969 -38.402344 92.941406 -26.757812 73.332031 -26.757812 C 49.023438 -26.757812 40.851562 -45.550781 40.851562 -73.125 C 40.851562 -100.5 49.023438 -119.289062 73.332031 -119.289062 C 92.734375 -119.289062 100.089844 -107.648438 102.746094 -91.714844 L 139.511719 -91.714844 C 136.039062 -125.621094 114.796875 -149.316406 74.964844 -149.316406 C 28.800781 -149.316406 4.085938 -117.042969 4.085938 -73.125 C 4.085938 -29.003906 28.800781 3.269531 74.964844 3.269531 Z M 74.964844 3.269531 "/></g></g></g><g fill="#f1f1f1" fill-opacity="1"><g transform="translate(400.352593, 425.737063)"><g><path d="M 59.238281 3.269531 C 93.960938 3.269531 115 -19.8125 115 -52.292969 C 115 -84.769531 93.960938 -107.851562 59.238281 -107.851562 C 24.308594 -107.851562 3.269531 -84.769531 3.269531 -52.292969 C 3.269531 -19.8125 24.308594 3.269531 59.238281 3.269531 Z M 59.238281 -21.242188 C 44.734375 -21.242188 35.949219 -32.070312 35.949219 -52.292969 C 35.949219 -72.515625 44.734375 -83.339844 59.238281 -83.339844 C 73.535156 -83.339844 82.320312 -72.515625 82.320312 -52.292969 C 82.320312 -32.070312 73.535156 -21.242188 59.238281 -21.242188 Z M 59.238281 -21.242188 "/></g></g></g><g fill="#f1f1f1" fill-opacity="1"><g transform="translate(518.611425, 425.737063)"><g><path d="M 7.964844 0 L 40.648438 0 L 40.648438 -60.460938 C 40.648438 -74.964844 47.796875 -81.296875 60.257812 -81.296875 C 71.085938 -81.296875 76.597656 -75.988281 76.597656 -60.257812 L 76.597656 0 L 109.28125 0 L 109.28125 -70.675781 C 109.28125 -94.574219 95.597656 -107.851562 75.375 -107.851562 C 56.785156 -107.851562 46.574219 -99.070312 41.058594 -89.46875 L 40.648438 -89.46875 L 40.648438 -104.582031 L 7.964844 -104.582031 Z M 7.964844 0 "/></g></g></g><g fill="#f1f1f1" fill-opacity="1"><g transform="translate(635.032012, 425.737063)"><g><path d="M 47.390625 1.839844 C 56.582031 1.839844 61.6875 0.816406 67.613281 -0.410156 L 67.613281 -24.921875 C 53.722656 -24.921875 49.433594 -24.921875 49.433594 -36.769531 L 49.433594 -80.070312 L 67.613281 -80.070312 L 67.613281 -104.582031 L 49.433594 -104.582031 L 49.433594 -133.792969 L 16.75 -133.792969 L 16.75 -104.582031 L 2.246094 -104.582031 L 2.246094 -80.070312 L 16.75 -80.070312 L 16.75 -34.316406 C 16.75 -10.824219 23.492188 1.839844 47.390625 1.839844 Z M 47.390625 1.839844 "/></g></g></g><g fill="#f1f1f1" fill-opacity="1"><g transform="translate(706.72258, 425.737063)"><g><path d="M 37.378906 3.269531 C 51.269531 3.269531 63.527344 -3.269531 70.265625 -11.03125 L 70.675781 -11.03125 C 70.675781 -3.675781 74.761719 3.269531 89.46875 3.269531 C 96.003906 3.269531 101.929688 2.453125 108.464844 0 L 108.464844 -7.761719 C 104.378906 -7.761719 102.335938 -10.007812 102.335938 -15.523438 L 102.335938 -63.527344 C 102.335938 -96.414062 85.996094 -107.851562 56.582031 -107.851562 C 22.46875 -107.851562 8.171875 -90.898438 7.148438 -70.878906 L 37.789062 -70.878906 C 38.808594 -80.890625 44.53125 -85.382812 56.378906 -85.382812 C 65.363281 -85.382812 69.65625 -81.707031 69.65625 -75.578125 C 69.65625 -66.792969 56.378906 -64.753906 42.894531 -62.097656 C 18.382812 -57.195312 3.0625 -47.59375 3.0625 -26.757812 C 3.0625 -9.191406 15.320312 3.269531 37.378906 3.269531 Z M 48.820312 -19.199219 C 40.851562 -19.199219 35.746094 -22.878906 35.746094 -31.457031 C 35.746094 -37.992188 40.035156 -43.304688 52.90625 -46.164062 C 60.460938 -47.796875 65.570312 -49.226562 69.65625 -50.863281 L 69.65625 -38.199219 C 69.65625 -28.1875 62.914062 -19.199219 48.820312 -19.199219 Z M 48.820312 -19.199219 "/></g></g></g><g fill="#f1f1f1" fill-opacity="1"><g transform="translate(819.670955, 425.737063)"><g><path d="M 57.195312 3.269531 C 87.222656 3.269531 106.011719 -14.707031 107.648438 -39.421875 L 75.578125 -39.421875 C 74.558594 -30.027344 70.0625 -21.242188 56.988281 -21.242188 C 43.304688 -21.242188 35.949219 -32.683594 35.949219 -52.292969 C 35.949219 -71.902344 43.507812 -83.339844 56.988281 -83.339844 C 70.0625 -83.339844 74.558594 -73.945312 75.578125 -65.570312 L 107.648438 -65.570312 C 104.992188 -89.875 86.8125 -107.851562 56.378906 -107.851562 C 24.101562 -107.851562 3.269531 -84.769531 3.269531 -52.292969 C 3.269531 -19.609375 24.101562 3.269531 57.195312 3.269531 Z M 57.195312 3.269531 "/></g></g></g><g fill="#f1f1f1" fill-opacity="1"><g transform="translate(929.964102, 425.737063)"><g><path d="M 47.390625 1.839844 C 56.582031 1.839844 61.6875 0.816406 67.613281 -0.410156 L 67.613281 -24.921875 C 53.722656 -24.921875 49.433594 -24.921875 49.433594 -36.769531 L 49.433594 -80.070312 L 67.613281 -80.070312 L 67.613281 -104.582031 L 49.433594 -104.582031 L 49.433594 -133.792969 L 16.75 -133.792969 L 16.75 -104.582031 L 2.246094 -104.582031 L 2.246094 -80.070312 L 16.75 -80.070312 L 16.75 -34.316406 C 16.75 -10.824219 23.492188 1.839844 47.390625 1.839844 Z M 47.390625 1.839844 "/></g></g></g></svg>