<svg xmlns="http://www.w3.org/2000/svg" xmlns:xlink="http://www.w3.org/1999/xlink" width="1920" zoomAndPan="magnify" viewBox="0 0 1440 809.999993" height="1080" preserveAspectRatio="xMidYMid meet" version="1.0"><defs><g/><clipPath id="42f561ce39"><path d="M 0 0 L 1440 0 L 1440 269.59375 L 0 269.59375 Z M 0 0 " clip-rule="nonzero"/></clipPath></defs><g clip-path="url(#42f561ce39)"><path fill="#d4491d" d="M 0 0 L 1439.589844 0 L 1439.589844 269.59375 L 0 269.59375 Z M 0 0 " fill-opacity="1" fill-rule="nonzero"/></g><g fill="#ffffff" fill-opacity="1"><g transform="translate(349.372607, 165.507283)"><g><path d="M 6.601562 0 L 73.6875 0 L 73.6875 -19.800781 L 30.847656 -19.800781 L 30.847656 -96.316406 L 6.601562 -96.316406 Z M 6.601562 0 "/></g></g></g><g fill="#ffffff" fill-opacity="1"><g transform="translate(425.462198, 165.507283)"><g><path d="M 38.929688 2.15625 C 57.65625 2.15625 68.433594 -7.003906 72.203125 -20.878906 L 50.785156 -20.878906 C 49.4375 -17.511719 45.9375 -14.007812 38.527344 -14.007812 C 30.847656 -14.007812 23.707031 -19.128906 23.707031 -28.828125 L 73.28125 -28.828125 C 73.28125 -53.882812 61.292969 -71.125 37.71875 -71.125 C 15.761719 -71.125 2.15625 -55.5 2.15625 -34.484375 C 2.15625 -12.933594 16.03125 2.15625 38.929688 2.15625 Z M 23.707031 -41.894531 C 23.707031 -51.457031 29.5 -56.308594 37.71875 -56.308594 C 45.9375 -56.308594 51.726562 -51.457031 51.726562 -41.894531 Z M 23.707031 -41.894531 "/></g></g></g><g fill="#ffffff" fill-opacity="1"><g transform="translate(500.878413, 165.507283)"><g><path d="M 24.652344 2.15625 C 33.8125 2.15625 41.894531 -2.15625 46.339844 -7.273438 L 46.609375 -7.273438 C 46.609375 -2.425781 49.304688 2.15625 59.003906 2.15625 C 63.3125 2.15625 67.21875 1.617188 71.53125 0 L 71.53125 -5.117188 C 68.835938 -5.117188 67.488281 -6.601562 67.488281 -10.238281 L 67.488281 -41.894531 C 67.488281 -63.582031 56.710938 -71.125 37.3125 -71.125 C 14.816406 -71.125 5.386719 -59.945312 4.714844 -46.742188 L 24.921875 -46.742188 C 25.59375 -53.34375 29.367188 -56.308594 37.179688 -56.308594 C 43.105469 -56.308594 45.9375 -53.882812 45.9375 -49.84375 C 45.9375 -44.050781 37.179688 -42.703125 28.289062 -40.953125 C 12.125 -37.71875 2.019531 -31.386719 2.019531 -17.648438 C 2.019531 -6.0625 10.101562 2.15625 24.652344 2.15625 Z M 32.195312 -12.664062 C 26.941406 -12.664062 23.574219 -15.085938 23.574219 -20.746094 C 23.574219 -25.054688 26.402344 -28.558594 34.890625 -30.445312 C 39.875 -31.523438 43.242188 -32.464844 45.9375 -33.542969 L 45.9375 -25.191406 C 45.9375 -18.589844 41.492188 -12.664062 32.195312 -12.664062 Z M 32.195312 -12.664062 "/></g></g></g><g fill="#ffffff" fill-opacity="1"><g transform="translate(575.351902, 165.507283)"><g><path d="M 5.253906 0 L 26.808594 0 L 26.808594 -32.0625 C 26.808594 -46.742188 38.527344 -52.804688 49.574219 -50.785156 L 49.84375 -50.785156 L 49.84375 -69.644531 C 47.417969 -70.183594 45.800781 -70.183594 43.914062 -70.183594 C 36.371094 -70.183594 30.445312 -65.332031 27.078125 -57.65625 L 26.808594 -57.65625 L 26.808594 -68.972656 L 5.253906 -68.972656 Z M 5.253906 0 "/></g></g></g><g fill="#ffffff" fill-opacity="1"><g transform="translate(626.93119, 165.507283)"><g><path d="M 5.253906 0 L 26.808594 0 L 26.808594 -39.875 C 26.808594 -49.4375 31.523438 -53.613281 39.738281 -53.613281 C 46.878906 -53.613281 50.515625 -50.113281 50.515625 -39.738281 L 50.515625 0 L 72.070312 0 L 72.070312 -46.609375 C 72.070312 -62.371094 63.042969 -71.125 49.707031 -71.125 C 37.449219 -71.125 30.714844 -65.332031 27.078125 -59.003906 L 26.808594 -59.003906 L 26.808594 -68.972656 L 5.253906 -68.972656 Z M 5.253906 0 "/></g></g></g><g fill="#ffffff" fill-opacity="1"><g transform="translate(703.694083, 165.507283)"><g/></g></g><g fill="#ffffff" fill-opacity="1"><g transform="translate(726.588283, 165.507283)"><g><path d="M 5.253906 0 L 26.808594 0 L 26.808594 -39.875 C 26.808594 -49.4375 31.253906 -53.613281 37.988281 -53.613281 C 45.667969 -53.613281 47.820312 -50.113281 47.820312 -39.738281 L 47.820312 0 L 69.375 0 L 69.375 -39.875 C 69.375 -49.4375 73.6875 -53.613281 80.554688 -53.613281 C 88.234375 -53.613281 90.390625 -50.113281 90.390625 -39.738281 L 90.390625 0 L 112.210938 0 L 112.210938 -46.609375 C 112.210938 -62.371094 103.996094 -71.125 90.121094 -71.125 C 78.9375 -71.125 72.878906 -65.871094 66.949219 -59.003906 L 66.679688 -59.003906 C 63.988281 -66.140625 57.65625 -71.125 48.628906 -71.125 C 38.257812 -71.125 30.714844 -65.332031 27.078125 -59.003906 L 26.808594 -59.003906 L 26.808594 -68.972656 L 5.253906 -68.972656 Z M 5.253906 0 "/></g></g></g><g fill="#ffffff" fill-opacity="1"><g transform="translate(843.483363, 165.507283)"><g><path d="M 39.066406 2.15625 C 61.964844 2.15625 75.839844 -13.066406 75.839844 -34.484375 C 75.839844 -55.902344 61.964844 -71.125 39.066406 -71.125 C 16.03125 -71.125 2.15625 -55.902344 2.15625 -34.484375 C 2.15625 -13.066406 16.03125 2.15625 39.066406 2.15625 Z M 39.066406 -14.007812 C 29.5 -14.007812 23.707031 -21.148438 23.707031 -34.484375 C 23.707031 -47.820312 29.5 -54.960938 39.066406 -54.960938 C 48.496094 -54.960938 54.289062 -47.820312 54.289062 -34.484375 C 54.289062 -21.148438 48.496094 -14.007812 39.066406 -14.007812 Z M 39.066406 -14.007812 "/></g></g></g><g fill="#ffffff" fill-opacity="1"><g transform="translate(921.458334, 165.507283)"><g><path d="M 5.253906 0 L 26.808594 0 L 26.808594 -32.0625 C 26.808594 -46.742188 38.527344 -52.804688 49.574219 -50.785156 L 49.84375 -50.785156 L 49.84375 -69.644531 C 47.417969 -70.183594 45.800781 -70.183594 43.914062 -70.183594 C 36.371094 -70.183594 30.445312 -65.332031 27.078125 -57.65625 L 26.808594 -57.65625 L 26.808594 -68.972656 L 5.253906 -68.972656 Z M 5.253906 0 "/></g></g></g><g fill="#ffffff" fill-opacity="1"><g transform="translate(973.037622, 165.507283)"><g><path d="M 38.929688 2.15625 C 57.65625 2.15625 68.433594 -7.003906 72.203125 -20.878906 L 50.785156 -20.878906 C 49.4375 -17.511719 45.9375 -14.007812 38.527344 -14.007812 C 30.847656 -14.007812 23.707031 -19.128906 23.707031 -28.828125 L 73.28125 -28.828125 C 73.28125 -53.882812 61.292969 -71.125 37.71875 -71.125 C 15.761719 -71.125 2.15625 -55.5 2.15625 -34.484375 C 2.15625 -12.933594 16.03125 2.15625 38.929688 2.15625 Z M 23.707031 -41.894531 C 23.707031 -51.457031 29.5 -56.308594 37.71875 -56.308594 C 45.9375 -56.308594 51.726562 -51.457031 51.726562 -41.894531 Z M 23.707031 -41.894531 "/></g></g></g><g fill="#ffffff" fill-opacity="1"><g transform="translate(1048.453837, 165.507283)"><g><path d="M 15.761719 1.210938 C 22.09375 1.210938 27.210938 -3.234375 27.210938 -10.238281 C 27.210938 -17.109375 22.09375 -21.6875 15.761719 -21.6875 C 9.292969 -21.6875 4.3125 -17.109375 4.3125 -10.238281 C 4.3125 -3.234375 9.292969 1.210938 15.761719 1.210938 Z M 15.761719 1.210938 "/></g></g></g><g fill="#ffffff" fill-opacity="1"><g transform="translate(1079.967031, 165.507283)"><g><path d="M 15.761719 1.210938 C 22.09375 1.210938 27.210938 -3.234375 27.210938 -10.238281 C 27.210938 -17.109375 22.09375 -21.6875 15.761719 -21.6875 C 9.292969 -21.6875 4.3125 -17.109375 4.3125 -10.238281 C 4.3125 -3.234375 9.292969 1.210938 15.761719 1.210938 Z M 15.761719 1.210938 "/></g></g></g><g fill="#ffffff" fill-opacity="1"><g transform="translate(1111.480225, 165.507283)"><g><path d="M 15.761719 1.210938 C 22.09375 1.210938 27.210938 -3.234375 27.210938 -10.238281 C 27.210938 -17.109375 22.09375 -21.6875 15.761719 -21.6875 C 9.292969 -21.6875 4.3125 -17.109375 4.3125 -10.238281 C 4.3125 -3.234375 9.292969 1.210938 15.761719 1.210938 Z M 15.761719 1.210938 "/></g></g></g></svg>