<svg xmlns="http://www.w3.org/2000/svg" xmlns:xlink="http://www.w3.org/1999/xlink" width="1920" zoomAndPan="magnify" viewBox="0 0 1440 809.999993" height="1080" preserveAspectRatio="xMidYMid meet" version="1.0"><defs><g/><clipPath id="8e7627e107"><path d="M 0 0 L 1440 0 L 1440 351.800781 L 0 351.800781 Z M 0 0 " clip-rule="nonzero"/></clipPath><clipPath id="9ad0f47537"><path d="M 48 0 L 1392 0 C 1404.730469 0 1416.9375 5.058594 1425.941406 14.058594 C 1434.941406 23.0625 1440 35.269531 1440 48 L 1440 303.800781 C 1440 316.53125 1434.941406 328.738281 1425.941406 337.742188 C 1416.9375 346.742188 1404.730469 351.800781 1392 351.800781 L 48 351.800781 C 35.269531 351.800781 23.0625 346.742188 14.058594 337.742188 C 5.058594 328.738281 0 316.53125 0 303.800781 L 0 48 C 0 35.269531 5.058594 23.0625 14.058594 14.058594 C 23.0625 5.058594 35.269531 0 48 0 Z M 48 0 " clip-rule="nonzero"/></clipPath></defs><g clip-path="url(#8e7627e107)"><g clip-path="url(#9ad0f47537)"><path fill="#e67644" d="M 0 0 L 1440.183594 0 L 1440.183594 351.800781 L 0 351.800781 Z M 0 0 " fill-opacity="1" fill-rule="nonzero"/></g></g><g fill="#fffaf1" fill-opacity="1"><g transform="translate(150.77493, 267.972609)"><g><path d="M 250.675781 -32.441406 L 223.546875 -176.359375 C 220.890625 -190.515625 235.046875 -194.347656 235.046875 -202.605469 L 235.046875 -203.785156 C 235.046875 -207.324219 232.394531 -209.390625 228.265625 -209.390625 L 188.15625 -209.390625 C 180.488281 -209.390625 175.472656 -205.554688 172.820312 -198.183594 L 131.53125 -73.730469 L 88.769531 -198.773438 C 86.113281 -205.851562 80.804688 -209.390625 72.84375 -209.390625 L 33.914062 -209.390625 C 29.785156 -209.390625 27.132812 -207.324219 27.132812 -203.785156 L 27.132812 -202.605469 C 27.132812 -194.054688 40.699219 -190.515625 38.632812 -176.949219 L 16.21875 -32.441406 C 14.15625 -18.578125 4.128906 -15.039062 4.128906 -6.78125 L 4.128906 -5.601562 C 4.128906 -2.0625 6.78125 0 11.207031 0 L 47.777344 0 C 51.90625 0 54.855469 -2.0625 54.855469 -5.601562 L 54.855469 -6.78125 C 54.855469 -15.039062 42.171875 -18.578125 44.238281 -32.441406 L 60.164062 -140.085938 L 111.773438 -8.550781 C 114.425781 -2.652344 117.964844 -0.292969 124.160156 -0.292969 C 130.058594 -0.292969 132.710938 -2.949219 134.777344 -8.847656 L 179.898438 -135.367188 L 197.59375 -32.441406 C 199.953125 -18.875 187.269531 -15.039062 187.269531 -6.78125 L 187.269531 -5.601562 C 187.269531 -2.0625 189.925781 0 194.347656 0 L 255.691406 0 C 259.820312 0 262.769531 -2.0625 262.769531 -5.601562 L 262.769531 -6.78125 C 262.769531 -15.039062 253.332031 -18.578125 250.675781 -32.441406 Z M 250.675781 -32.441406 "/></g></g></g><g fill="#fffaf1" fill-opacity="1"><g transform="translate(416.39754, 267.972609)"><g><path d="M 87.882812 2.949219 C 130.941406 2.949219 166.625 -27.425781 166.625 -70.484375 C 166.625 -113.835938 130.058594 -144.507812 85.820312 -144.507812 C 43.648438 -144.507812 6.191406 -114.722656 6.191406 -71.074219 C 6.191406 -28.3125 42.761719 2.949219 87.882812 2.949219 Z M 94.078125 -11.5 C 70.191406 -11.5 58.394531 -69.304688 58.394531 -93.191406 C 58.394531 -117.082031 63.40625 -130.058594 77.5625 -130.058594 C 100.859375 -130.058594 112.953125 -70.78125 112.953125 -47.777344 C 112.953125 -25.65625 107.9375 -11.5 94.078125 -11.5 Z M 94.078125 -11.5 "/></g></g></g><g fill="#fffaf1" fill-opacity="1"><g transform="translate(589.450176, 267.972609)"><g><path d="M 106.167969 -144.507812 C 85.820312 -144.507812 71.960938 -134.1875 65.472656 -115.3125 L 65.472656 -136.839844 C 65.472656 -142.738281 62.523438 -146.867188 54.855469 -143.328125 L 13.269531 -123.863281 C 8.847656 -121.503906 6.488281 -118.851562 6.488281 -115.3125 L 6.488281 -114.425781 C 6.488281 -105.875 20.644531 -104.695312 20.644531 -90.832031 L 20.644531 -32.144531 C 20.644531 -18.578125 8.847656 -15.039062 8.847656 -6.78125 L 8.847656 -5.601562 C 8.847656 -2.0625 11.796875 0 15.925781 0 L 79.332031 0 C 83.460938 0 86.410156 -2.0625 86.410156 -5.601562 L 86.410156 -6.78125 C 86.410156 -15.039062 70.78125 -18.578125 70.78125 -32.144531 L 70.78125 -87 C 70.78125 -99.976562 72.253906 -115.3125 81.691406 -115.3125 C 96.4375 -115.3125 84.34375 -87.589844 111.183594 -87.589844 C 128.289062 -87.589844 133.890625 -100.566406 133.890625 -115.3125 C 133.890625 -131.828125 123.570312 -144.507812 106.167969 -144.507812 Z M 106.167969 -144.507812 "/></g></g></g><g fill="#fffaf1" fill-opacity="1"><g transform="translate(723.293336, 267.972609)"><g><path d="M 128.289062 -46.597656 C 122.980469 -39.519531 111.476562 -33.621094 98.796875 -33.621094 C 84.34375 -33.621094 72.84375 -40.699219 65.175781 -52.789062 L 123.863281 -85.820312 C 130.648438 -89.359375 135.367188 -95.257812 135.367188 -104.105469 C 135.367188 -122.683594 117.671875 -144.507812 79.039062 -144.507812 C 40.402344 -144.507812 6.488281 -115.3125 6.488281 -71.664062 C 6.488281 -26.835938 36.570312 2.949219 79.332031 2.949219 C 117.964844 2.949219 138.609375 -26.246094 139.199219 -42.46875 C 139.496094 -48.957031 132.417969 -50.726562 128.289062 -46.597656 Z M 73.730469 -130.058594 C 88.769531 -130.058594 93.488281 -109.117188 93.488281 -99.679688 C 93.488281 -93.488281 90.539062 -87.882812 85.820312 -84.640625 L 58.394531 -68.125 C 55.445312 -76.972656 53.96875 -87.589844 53.96875 -99.089844 C 53.96875 -116.195312 61.636719 -130.058594 73.730469 -130.058594 Z M 73.730469 -130.058594 "/></g></g></g><g fill="#fffaf1" fill-opacity="1"><g transform="translate(867.454714, 267.972609)"><g><path d="M 40.109375 2.949219 C 56.917969 2.949219 71.074219 -5.898438 71.074219 -25.066406 C 71.074219 -44.238281 56.917969 -52.789062 40.109375 -52.789062 C 23.003906 -52.789062 8.847656 -44.238281 8.847656 -25.066406 C 8.847656 -5.898438 23.003906 2.949219 40.109375 2.949219 Z M 40.109375 2.949219 "/></g></g></g><g fill="#fffaf1" fill-opacity="1"><g transform="translate(947.347846, 267.972609)"><g><path d="M 40.109375 2.949219 C 56.917969 2.949219 71.074219 -5.898438 71.074219 -25.066406 C 71.074219 -44.238281 56.917969 -52.789062 40.109375 -52.789062 C 23.003906 -52.789062 8.847656 -44.238281 8.847656 -25.066406 C 8.847656 -5.898438 23.003906 2.949219 40.109375 2.949219 Z M 40.109375 2.949219 "/></g></g></g><g fill="#fffaf1" fill-opacity="1"><g transform="translate(1027.240979, 267.972609)"><g><path d="M 40.109375 2.949219 C 56.917969 2.949219 71.074219 -5.898438 71.074219 -25.066406 C 71.074219 -44.238281 56.917969 -52.789062 40.109375 -52.789062 C 23.003906 -52.789062 8.847656 -44.238281 8.847656 -25.066406 C 8.847656 -5.898438 23.003906 2.949219 40.109375 2.949219 Z M 40.109375 2.949219 "/></g></g></g></svg>