<svg xmlns="http://www.w3.org/2000/svg" xmlns:xlink="http://www.w3.org/1999/xlink" width="1920" zoomAndPan="magnify" viewBox="0 0 1440 809.999993" height="1080" preserveAspectRatio="xMidYMid meet" version="1.0"><defs><clipPath id="601a1a3e0b"><path d="M 79.648438 13.753906 L 850.648438 13.753906 L 850.648438 784.753906 L 79.648438 784.753906 Z M 79.648438 13.753906 " clip-rule="nonzero"/></clipPath></defs><path fill="#d4491d" d="M 465.265625 313.902344 C 418.191406 313.902344 379.796875 352.296875 379.796875 399.371094 C 379.796875 446.445312 418.191406 484.84375 465.265625 484.84375 C 512.339844 484.84375 550.734375 446.445312 550.734375 399.371094 C 550.734375 352.296875 512.339844 313.902344 465.265625 313.902344 Z M 465.265625 313.902344 " fill-opacity="1" fill-rule="nonzero"/><path fill="#d4491d" d="M 580.117188 189.703125 L 350.414062 189.703125 C 298.332031 189.703125 255.597656 232.105469 255.597656 284.519531 L 255.597656 514.222656 C 255.597656 566.304688 298 609.039062 350.414062 609.039062 L 580.117188 609.039062 C 632.199219 609.039062 674.933594 566.640625 674.933594 514.222656 L 674.933594 284.519531 C 674.601562 232.105469 632.199219 189.703125 580.117188 189.703125 Z M 465.265625 527.910156 C 394.152344 527.910156 336.394531 470.152344 336.394531 399.039062 C 336.394531 327.925781 394.152344 270.164062 465.265625 270.164062 C 536.378906 270.164062 594.140625 327.925781 594.140625 399.039062 C 593.804688 470.152344 536.046875 527.910156 465.265625 527.910156 Z M 603.152344 291.867188 C 586.125 291.867188 572.105469 277.84375 572.105469 260.816406 C 572.105469 243.789062 586.125 229.765625 603.152344 229.765625 C 620.179688 229.765625 634.203125 243.789062 634.203125 260.816406 C 634.203125 278.179688 620.515625 291.867188 603.152344 291.867188 Z M 603.152344 291.867188 " fill-opacity="1" fill-rule="nonzero"/><g clip-path="url(#601a1a3e0b)"><path fill="#d4491d" d="M 465.265625 13.753906 C 252.257812 13.753906 79.648438 186.363281 79.648438 399.371094 C 79.648438 612.378906 252.257812 784.988281 465.265625 784.988281 C 678.273438 784.988281 850.882812 612.378906 850.882812 399.371094 C 850.550781 186.363281 677.941406 13.753906 465.265625 13.753906 Z M 718.003906 514.222656 C 718.003906 590.34375 655.90625 652.445312 579.78125 652.445312 L 350.414062 652.445312 C 274.292969 652.445312 212.195312 590.34375 212.195312 514.222656 L 212.195312 284.519531 C 212.195312 208.398438 274.292969 146.300781 350.414062 146.300781 L 580.117188 146.300781 C 656.238281 146.300781 718.335938 208.398438 718.335938 284.519531 L 718.335938 514.222656 Z M 718.003906 514.222656 " fill-opacity="1" fill-rule="nonzero"/></g></svg>