<?xml version="1.0" encoding="UTF-8" standalone="no" ?>
<!DOCTYPE svg PUBLIC "-//W3C//DTD SVG 1.1//EN" "http://www.w3.org/Graphics/SVG/1.1/DTD/svg11.dtd">
<svg xmlns="http://www.w3.org/2000/svg" xmlns:xlink="http://www.w3.org/1999/xlink" version="1.1" width="1080" height="1080" viewBox="0 0 1080 1080" xml:space="preserve">
<desc>Created with Fabric.js 5.2.4</desc>
<defs>
</defs>
<g transform="matrix(1 0 0 1 540 540)" id="5a7951f3-ae93-42f4-a393-94a9aab97fa9"  >
<rect style="stroke: none; stroke-width: 1; stroke-dasharray: none; stroke-linecap: butt; stroke-dashoffset: 0; stroke-linejoin: miter; stroke-miterlimit: 4; fill: rgb(255,255,255); fill-rule: nonzero; opacity: 1; visibility: hidden;" vector-effect="non-scaling-stroke"  x="-540" y="-540" rx="0" ry="0" width="1080" height="1080" />
</g>
<g transform="matrix(1 0 0 1 540 540)" id="2a2aac79-0de2-487e-936d-5b5da675477b"  >
</g>
<g transform="matrix(1 0 0 1 540 540)"  >
<g style="" vector-effect="non-scaling-stroke"   >
		<g transform="matrix(1.33 0 0 1.33 -147.71 83.34)" clip-path="url(#CLIPPATH_3)"  >
<clipPath id="CLIPPATH_3" >
	<path transform="matrix(1 0 0 1 -0.16 0) translate(-609.14, -467.5)" id="dee773c290" clip-path="url(#undefined)" d="M 115.113281 373.164062 L 1103.164062 373.164062 C 1114.492188 373.164062 1125.359375 377.664062 1133.367188 385.675781 C 1141.378906 393.6875 1145.878906 404.550781 1145.878906 415.878906 L 1145.878906 519.121094 C 1145.878906 530.449219 1141.378906 541.3125 1133.367188 549.324219 C 1125.359375 557.335938 1114.492188 561.835938 1103.164062 561.835938 L 115.113281 561.835938 C 103.785156 561.835938 92.921875 557.335938 84.910156 549.324219 C 76.898438 541.3125 72.398438 530.449219 72.398438 519.121094 L 72.398438 415.878906 C 72.398438 404.550781 76.898438 393.6875 84.910156 385.675781 C 92.921875 377.664062 103.785156 373.164062 115.113281 373.164062 Z M 115.113281 373.164062" stroke-linecap="round" />
</clipPath>
<path style="stroke: none; stroke-width: 1; stroke-dasharray: none; stroke-linecap: butt; stroke-dashoffset: 0; stroke-linejoin: miter; stroke-miterlimit: 4; fill: rgb(43,51,73); fill-rule: nonzero; opacity: 1;" vector-effect="non-scaling-stroke"  transform=" translate(-609.3, -467.5)" d="M 72.398438 373.164062 L 1146.203125 373.164062 L 1146.203125 561.835938 L 72.398438 561.835938 Z M 72.398438 373.164062" stroke-linecap="round" />
</g>
		<g transform="matrix(1.33 0 0 1.33 -315.5 -43.73)" clip-path="url(#CLIPPATH_4)"  >
<clipPath id="CLIPPATH_4" >
	<path transform="matrix(1 0 0 1 0.08 0.04) translate(-483.53, -372.24)" id="17" clip-path="url(#undefined)" d="M 326.824219 295.382812 L 329.925781 289.359375 C 335.550781 278.433594 345.285156 270.1875 356.988281 266.441406 C 368.691406 262.691406 381.402344 263.746094 392.328125 269.367188 L 620.25 386.691406 C 631.175781 392.316406 639.417969 402.050781 643.167969 413.753906 C 646.917969 425.457031 645.863281 438.171875 640.238281 449.097656 L 637.136719 455.121094 C 631.515625 466.046875 621.78125 474.292969 610.078125 478.039062 C 598.375 481.789062 585.660156 480.734375 574.734375 475.113281 L 346.816406 357.789062 C 335.890625 352.164062 327.644531 342.429688 323.894531 330.726562 C 320.148438 319.023438 321.199219 306.308594 326.824219 295.382812 Z M 326.824219 295.382812" stroke-linecap="round" />
</clipPath>
<path style="stroke: none; stroke-width: 1; stroke-dasharray: none; stroke-linecap: butt; stroke-dashoffset: 0; stroke-linejoin: miter; stroke-miterlimit: 4; fill: rgb(230,200,187); fill-rule: nonzero; opacity: 1;" vector-effect="non-scaling-stroke"  transform=" translate(-483.46, -372.2)" d="M 305.617188 336.582031 L 351.132812 248.160156 L 661.292969 407.820312 L 615.777344 496.238281 Z M 305.617188 336.582031" stroke-linecap="round" />
</g>
		<g transform="matrix(1.33 0 0 1.33 323.08 18)" clip-path="url(#CLIPPATH_5)"  >
<clipPath id="CLIPPATH_5" >
	<path transform="matrix(1 0 0 1 -0.08 0) translate(-962.3, -418.5)" id="3" clip-path="url(#undefined)" d="M 557.011719 435.984375 L 557.011719 401.007812 C 557.011719 388.71875 561.894531 376.933594 570.582031 368.246094 C 579.273438 359.554688 591.058594 354.675781 603.347656 354.675781 L 1321.261719 354.675781 C 1333.550781 354.675781 1345.339844 359.554688 1354.027344 368.246094 C 1362.71875 376.933594 1367.597656 388.71875 1367.597656 401.007812 L 1367.597656 435.984375 C 1367.597656 448.273438 1362.71875 460.058594 1354.027344 468.75 C 1345.339844 477.4375 1333.550781 482.320312 1321.261719 482.320312 L 603.347656 482.320312 C 591.058594 482.320312 579.273438 477.4375 570.582031 468.75 C 561.894531 460.058594 557.011719 448.273438 557.011719 435.984375 Z M 557.011719 435.984375" stroke-linecap="round" />
</clipPath>
<path style="stroke: none; stroke-width: 1; stroke-dasharray: none; stroke-linecap: butt; stroke-dashoffset: 0; stroke-linejoin: miter; stroke-miterlimit: 4; fill: rgb(230,200,187); fill-rule: nonzero; opacity: 1;" vector-effect="non-scaling-stroke"  transform=" translate(-962.39, -418.5)" d="M 557.011719 482.320312 L 557.011719 354.675781 L 1367.765625 354.675781 L 1367.765625 482.320312 Z M 557.011719 482.320312" stroke-linecap="round" />
</g>
</g>
</g>
</svg>