<svg xmlns="http://www.w3.org/2000/svg" xmlns:xlink="http://www.w3.org/1999/xlink" width="1920" zoomAndPan="magnify" viewBox="0 0 1440 809.999993" height="1080" preserveAspectRatio="xMidYMid meet" version="1.0"><defs><clipPath id="4f08d7acc8"><path d="M 37 53 L 435 53 L 435 752 L 37 752 Z M 37 53 " clip-rule="nonzero"/></clipPath><clipPath id="95bd631819"><path d="M 115.523438 19.523438 L 640.304688 265.929688 L 394.21875 790.03125 L -130.5625 543.625 Z M 115.523438 19.523438 " clip-rule="nonzero"/></clipPath><clipPath id="5dda38f6bc"><path d="M 115.523438 19.523438 L 640.304688 265.929688 L 394.21875 790.03125 L -130.5625 543.625 Z M 115.523438 19.523438 " clip-rule="nonzero"/></clipPath></defs><g clip-path="url(#4f08d7acc8)"><g clip-path="url(#95bd631819)"><g clip-path="url(#5dda38f6bc)"><path fill="#e67644" d="M 178.433594 448.125 C 184.871094 463.3125 199.054688 493.183594 207.460938 507.375 C 214.824219 519.800781 230.207031 544.710938 240.742188 554.585938 C 242.839844 556.554688 247.789062 559.796875 250.554688 560.597656 C 254.242188 561.660156 262.121094 561.425781 265.902344 560.785156 C 277.273438 558.871094 301.730469 545.742188 313.089844 543.753906 C 317.007812 543.066406 325.054688 543.226562 329 543.738281 C 332.523438 544.195312 339.621094 545.675781 342.734375 547.382812 C 371.640625 563.203125 410.796875 614.878906 429.058594 642.304688 C 430.304688 644.175781 431.714844 648.546875 432.105469 650.757812 C 434.5625 664.605469 436.730469 693.652344 432.355469 707.023438 C 430.597656 712.414062 423.242188 721.636719 418.882812 725.261719 C 408.976562 733.484375 391.789062 739.316406 379.535156 743.28125 C 368.261719 746.933594 344.703125 751.777344 332.847656 751.539062 C 323.566406 751.355469 305.109375 747.257812 296.558594 743.625 C 276.011719 734.894531 239.351562 708.425781 222.296875 694.015625 C 200.78125 675.835938 162.332031 634.257812 144.960938 612.082031 C 128.898438 591.582031 101.898438 546.867188 88.519531 524.519531 C 84.898438 518.46875 79.292969 505.238281 76.375 498.816406 C 73.519531 492.527344 66.992188 472.828125 66.992188 472.828125 C 66.992188 472.828125 59.429688 453.5 57.613281 446.839844 C 55.753906 440.035156 51.617188 426.273438 50.539062 419.304688 C 46.5625 393.5625 38.777344 341.910156 38.039062 315.875 C 37.246094 287.722656 40.273438 231.171875 45.214844 203.4375 C 49.132812 181.460938 60.4375 137.679688 70.667969 117.835938 C 74.929688 109.582031 86.511719 94.636719 93.535156 88.566406 C 102.507812 80.816406 123.726562 69.492188 134.738281 65.097656 C 146.691406 60.328125 163.648438 53.835938 176.519531 53.835938 C 182.1875 53.839844 193.742188 56.238281 198.535156 59.261719 C 210.441406 66.757812 227.324219 90.492188 234.28125 102.71875 C 235.394531 104.667969 237.09375 108.933594 237.332031 111.164062 C 240.800781 143.933594 243.679688 208.703125 231.542969 239.34375 C 230.234375 242.644531 225.71875 248.3125 223.300781 250.914062 C 220.59375 253.832031 214.503906 259.09375 211.050781 261.066406 C 201.039062 266.792969 173.835938 272.3125 163.863281 278.105469 C 160.542969 280.027344 154.332031 284.875 152.171875 288.054688 C 150.554688 290.429688 148.820312 296.089844 148.464844 298.945312 C 146.664062 313.269531 150.738281 342.261719 153.007812 356.523438 C 155.605469 372.816406 163.773438 404.859375 168.515625 420.65625 C 169.535156 424.046875 173.324219 433.96875 173.324219 433.96875 L 178.433594 448.125 " fill-opacity="1" fill-rule="nonzero"/></g></g></g></svg>