<svg xmlns="http://www.w3.org/2000/svg" xmlns:xlink="http://www.w3.org/1999/xlink" width="1920" zoomAndPan="magnify" viewBox="0 0 1440 809.999993" height="1080" preserveAspectRatio="xMidYMid meet" version="1.0"><defs><clipPath id="14f7155a4e"><path d="M 23.800781 10.832031 L 575.800781 10.832031 L 575.800781 799.082031 L 23.800781 799.082031 Z M 23.800781 10.832031 " clip-rule="nonzero"/></clipPath></defs><g clip-path="url(#14f7155a4e)"><path fill="#e67644" d="M 299.714844 10.839844 C 147.371094 10.839844 23.800781 134.410156 23.800781 286.75 C 23.800781 493.683594 299.714844 799.160156 299.714844 799.160156 C 299.714844 799.160156 575.625 493.683594 575.625 286.75 C 575.625 134.410156 452.058594 10.839844 299.714844 10.839844 Z M 299.714844 385.292969 C 245.320312 385.292969 201.171875 341.144531 201.171875 286.75 C 201.171875 232.355469 245.320312 188.210938 299.714844 188.210938 C 354.109375 188.210938 398.253906 232.355469 398.253906 286.75 C 398.253906 341.144531 354.109375 385.292969 299.714844 385.292969 Z M 299.714844 385.292969 " fill-opacity="1" fill-rule="nonzero"/></g></svg>