<svg xmlns="http://www.w3.org/2000/svg" xmlns:xlink="http://www.w3.org/1999/xlink" width="1920" zoomAndPan="magnify" viewBox="0 0 1440 809.999993" height="1080" preserveAspectRatio="xMidYMid meet" version="1.0"><defs><g/></defs><g fill="#2b3349" fill-opacity="1"><g transform="translate(272.692668, 473.105612)"><g><path d="M 14.550781 0 L 37.285156 0 C 39.46875 0 40.921875 -0.910156 40.921875 -2.363281 L 40.921875 -2.726562 C 40.921875 -5.820312 33.828125 -6.183594 33.828125 -12.730469 L 33.828125 -43.832031 L 52.5625 -43.832031 C 85.847656 -43.832031 105.671875 -59.292969 105.671875 -87.121094 C 105.671875 -117.3125 78.753906 -129.132812 48.378906 -129.132812 L 14.550781 -129.132812 C 12.1875 -129.132812 10.730469 -128.40625 10.730469 -126.953125 L 10.730469 -126.40625 C 10.730469 -123.132812 17.460938 -122.402344 17.460938 -116.402344 L 17.460938 -12.730469 C 17.460938 -6.183594 10.730469 -5.820312 10.730469 -2.726562 L 10.730469 -2.363281 C 10.730469 -0.910156 12.1875 0 14.550781 0 Z M 40.378906 -51.289062 C 36.011719 -51.289062 33.828125 -53.652344 33.828125 -57.835938 L 33.828125 -115.855469 C 33.828125 -119.675781 35.285156 -121.675781 38.558594 -121.675781 L 48.378906 -121.675781 C 69.296875 -121.675781 88.757812 -109.671875 88.757812 -83.117188 C 88.757812 -63.113281 74.753906 -51.289062 52.5625 -51.289062 Z M 40.378906 -51.289062 "/></g></g></g><g fill="#2b3349" fill-opacity="1"><g transform="translate(382.687357, 473.105612)"><g><path d="M 42.558594 1.636719 C 65.113281 1.636719 79.300781 -9.277344 79.300781 -22.917969 C 79.300781 -59.292969 23.824219 -41.46875 23.824219 -67.660156 C 23.824219 -76.753906 32.011719 -83.480469 42.558594 -83.480469 C 64.929688 -83.480469 60.382812 -61.292969 70.75 -61.292969 C 74.386719 -61.292969 77.296875 -64.019531 77.296875 -67.660156 C 77.296875 -77.480469 64.386719 -89.121094 41.832031 -89.121094 C 21.824219 -89.121094 7.640625 -78.207031 7.640625 -64.203125 C 7.640625 -28.375 63.292969 -46.378906 63.292969 -19.644531 C 63.292969 -9.277344 54.199219 -3.636719 42.558594 -3.636719 C 18.1875 -3.636719 24.007812 -25.828125 12.730469 -25.828125 C 8.546875 -25.828125 5.636719 -23.460938 5.636719 -19.097656 C 5.636719 -10.550781 18.371094 1.636719 42.558594 1.636719 Z M 42.558594 1.636719 "/></g></g></g><g fill="#2b3349" fill-opacity="1"><g transform="translate(467.592322, 473.105612)"><g><path d="M 83.117188 -88.757812 L 67.660156 -85.664062 C 65.839844 -85.300781 65.113281 -84.210938 65.113281 -82.9375 L 65.113281 -82.390625 C 65.113281 -79.117188 72.023438 -78.753906 72.023438 -71.84375 L 72.023438 -34.011719 C 72.023438 -18.007812 61.839844 -7.09375 48.925781 -7.09375 C 35.648438 -7.09375 28.007812 -19.097656 28.007812 -38.375 L 28.191406 -86.210938 C 28.191406 -88.574219 26.371094 -88.9375 23.28125 -88.394531 L 8.003906 -85.664062 C 6.367188 -85.300781 5.273438 -84.210938 5.273438 -82.9375 L 5.273438 -82.390625 C 5.273438 -79.300781 12.003906 -78.753906 12.003906 -71.84375 L 12.003906 -39.648438 C 12.003906 -15.824219 25.828125 0 45.289062 0 C 57.292969 0 66.566406 -4.910156 72.023438 -13.460938 L 72.023438 -6.003906 C 72.023438 20.1875 63.113281 30.917969 49.289062 30.917969 C 22.917969 30.738281 28.191406 3.457031 17.277344 3.457031 C 12.730469 3.457031 10.003906 6.367188 10.003906 10.183594 C 10.003906 21.824219 23.824219 36.738281 46.742188 36.738281 C 70.75 36.738281 88.027344 21.824219 88.027344 -7.820312 L 88.027344 -86.210938 C 88.027344 -88.574219 86.390625 -89.300781 83.117188 -88.757812 Z M 83.117188 -88.757812 "/></g></g></g><g fill="#2b3349" fill-opacity="1"><g transform="translate(566.678479, 473.105612)"><g><path d="M 50.742188 1.820312 C 71.84375 1.820312 83.847656 -12.003906 86.390625 -25.28125 C 87.121094 -28.917969 82.574219 -29.464844 81.117188 -26.734375 C 76.933594 -17.640625 68.566406 -9.640625 55.835938 -9.640625 C 35.648438 -9.640625 21.28125 -25.828125 21.28125 -51.289062 C 21.28125 -69.296875 32.011719 -83.300781 47.105469 -83.300781 C 67.839844 -83.117188 67.660156 -60.566406 78.207031 -60.203125 C 83.300781 -60.019531 85.484375 -62.929688 85.484375 -66.566406 C 85.484375 -76.753906 69.839844 -89.300781 50.015625 -89.121094 C 25.28125 -88.9375 5.273438 -71.476562 5.273438 -44.195312 C 5.273438 -17.824219 25.464844 1.820312 50.742188 1.820312 Z M 50.742188 1.820312 "/></g></g></g><g fill="#2b3349" fill-opacity="1"><g transform="translate(657.946771, 473.105612)"><g><path d="M 92.210938 -13.09375 L 90.210938 -49.652344 C 88.574219 -77.117188 73.660156 -89.121094 55.835938 -89.121094 C 44.195312 -89.121094 34.375 -83.480469 28.738281 -74.753906 L 29.101562 -133.679688 C 29.101562 -136.410156 27.101562 -137.683594 23.824219 -136.046875 L 8.910156 -129.496094 C 7.273438 -128.769531 6.367188 -127.859375 6.367188 -126.40625 L 6.367188 -125.859375 C 6.367188 -122.949219 13.277344 -122.585938 13.277344 -115.492188 L 13.277344 -12.730469 C 13.277344 -6.367188 6.546875 -6.546875 6.546875 -2.910156 L 6.546875 -2.363281 C 6.546875 -0.910156 7.820312 0 10.003906 0 L 32.738281 0 C 34.921875 0 36.558594 -0.910156 36.558594 -2.363281 L 36.558594 -2.910156 C 36.558594 -6.546875 29.28125 -6.367188 29.28125 -12.730469 L 29.28125 -56.929688 C 29.28125 -71.296875 38.558594 -82.027344 52.015625 -82.027344 C 64.566406 -82.027344 73.480469 -71.476562 74.386719 -50.015625 L 76.207031 -12.914062 C 76.570312 -6.546875 69.660156 -6.367188 69.660156 -2.910156 L 69.660156 -2.183594 C 69.660156 -0.726562 71.113281 0 73.296875 0 L 95.121094 0 C 97.304688 0 98.761719 -0.726562 98.761719 -2.183594 L 98.761719 -2.910156 C 98.761719 -6.367188 92.757812 -6.546875 92.210938 -13.09375 Z M 92.210938 -13.09375 "/></g></g></g><g fill="#2b3349" fill-opacity="1"><g transform="translate(761.214549, 473.105612)"><g><path d="M 39.46875 1.820312 C 54.019531 1.820312 62.75 -9.09375 62.75 -20.371094 C 62.75 -23.644531 58.382812 -23.824219 57.292969 -21.097656 C 56.5625 -14.914062 51.835938 -10.183594 43.832031 -10.183594 C 37.101562 -10.183594 32.375 -15.460938 32.375 -25.464844 L 32.375 -80.027344 L 57.472656 -80.027344 C 58.929688 -80.027344 60.203125 -81.117188 60.203125 -82.753906 L 60.203125 -84.574219 C 60.203125 -86.027344 58.929688 -87.300781 57.472656 -87.300781 L 32.375 -87.300781 L 32.191406 -104.582031 C 32.191406 -106.945312 31.464844 -108.21875 29.28125 -108.21875 L 27.464844 -108.21875 C 25.828125 -108.21875 24.554688 -106.945312 24.371094 -104.582031 C 23.460938 -94.214844 19.277344 -87.300781 10.550781 -87.300781 L 4 -87.300781 C 2.183594 -87.300781 1.273438 -86.210938 1.273438 -84.574219 L 1.273438 -82.753906 C 1.273438 -81.117188 2.363281 -80.027344 4 -80.027344 L 16.003906 -80.027344 L 16.003906 -25.644531 C 16.003906 -7.09375 25.464844 1.820312 39.46875 1.820312 Z M 39.46875 1.820312 "/></g></g></g><g fill="#2b3349" fill-opacity="1"><g transform="translate(825.938677, 473.105612)"><g><path d="M 92.210938 -13.09375 L 90.210938 -49.652344 C 88.574219 -77.117188 73.660156 -89.121094 55.835938 -89.121094 C 44.195312 -89.121094 34.375 -83.480469 28.738281 -74.753906 L 29.101562 -133.679688 C 29.101562 -136.410156 27.101562 -137.683594 23.824219 -136.046875 L 8.910156 -129.496094 C 7.273438 -128.769531 6.367188 -127.859375 6.367188 -126.40625 L 6.367188 -125.859375 C 6.367188 -122.949219 13.277344 -122.585938 13.277344 -115.492188 L 13.277344 -12.730469 C 13.277344 -6.367188 6.546875 -6.546875 6.546875 -2.910156 L 6.546875 -2.363281 C 6.546875 -0.910156 7.820312 0 10.003906 0 L 32.738281 0 C 34.921875 0 36.558594 -0.910156 36.558594 -2.363281 L 36.558594 -2.910156 C 36.558594 -6.546875 29.28125 -6.367188 29.28125 -12.730469 L 29.28125 -56.929688 C 29.28125 -71.296875 38.558594 -82.027344 52.015625 -82.027344 C 64.566406 -82.027344 73.480469 -71.476562 74.386719 -50.015625 L 76.207031 -12.914062 C 76.570312 -6.546875 69.660156 -6.367188 69.660156 -2.910156 L 69.660156 -2.183594 C 69.660156 -0.726562 71.113281 0 73.296875 0 L 95.121094 0 C 97.304688 0 98.761719 -0.726562 98.761719 -2.183594 L 98.761719 -2.910156 C 98.761719 -6.367188 92.757812 -6.546875 92.210938 -13.09375 Z M 92.210938 -13.09375 "/></g></g></g><g fill="#2b3349" fill-opacity="1"><g transform="translate(929.206455, 473.105612)"><g><path d="M 80.390625 -25.644531 C 76.570312 -16.914062 67.839844 -9.820312 54.019531 -9.820312 C 38.011719 -9.820312 26.371094 -20.734375 22.371094 -37.832031 C 31.28125 -37.101562 41.46875 -36.558594 53.109375 -38.738281 C 70.207031 -42.195312 81.664062 -52.382812 81.664062 -64.929688 C 81.664062 -80.570312 67.839844 -89.300781 49.652344 -89.121094 C 24.371094 -88.9375 6.183594 -70.75 6.183594 -44.378906 C 6.183594 -16.734375 24.554688 1.820312 49.835938 1.820312 C 72.207031 1.820312 83.480469 -13.277344 85.847656 -24.191406 C 86.210938 -27.644531 82.027344 -28.191406 80.390625 -25.644531 Z M 46.925781 -82.9375 C 58.199219 -82.9375 66.023438 -75.480469 66.203125 -64.929688 C 66.386719 -53.289062 60.203125 -47.652344 50.015625 -45.46875 C 40.378906 -43.46875 29.464844 -43.832031 21.28125 -44.378906 C 21.097656 -46.5625 20.917969 -48.742188 20.917969 -50.925781 C 20.917969 -68.566406 31.28125 -82.9375 46.925781 -82.9375 Z M 46.925781 -82.9375 "/></g></g></g><g fill="#2b3349" fill-opacity="1"><g transform="translate(1019.565686, 473.105612)"><g><path d="M 52.015625 -89.121094 C 40.742188 -89.121094 32.375 -82.9375 28.375 -71.296875 L 28.375 -85.847656 C 28.375 -88.574219 27.101562 -90.03125 23.644531 -88.394531 L 9.820312 -82.210938 C 8.183594 -81.300781 7.09375 -80.207031 7.09375 -78.933594 L 7.09375 -78.570312 C 7.09375 -75.117188 14.367188 -74.933594 14.367188 -68.023438 L 14.367188 -12.730469 C 14.367188 -6.367188 7.640625 -6.183594 7.640625 -2.910156 L 7.640625 -2.183594 C 7.640625 -0.726562 8.910156 0 11.277344 0 L 33.828125 0 C 36.195312 0 37.46875 -0.726562 37.46875 -2.183594 L 37.46875 -2.910156 C 37.46875 -6.183594 29.828125 -6.367188 29.828125 -12.730469 L 29.828125 -54.199219 C 29.828125 -67.839844 35.285156 -79.300781 45.289062 -79.300781 C 56.5625 -79.300781 52.015625 -66.566406 61.476562 -66.566406 C 66.566406 -66.566406 68.75 -70.386719 68.75 -75.117188 C 68.75 -82.753906 62.929688 -89.121094 52.015625 -89.121094 Z M 52.015625 -89.121094 "/></g></g></g><g fill="#2b3349" fill-opacity="1"><g transform="translate(1088.835021, 473.105612)"><g><path d="M 97.488281 -81.480469 L 97.488281 -82.027344 C 97.488281 -83.664062 96.578125 -84.574219 94.757812 -85.121094 L 82.210938 -88.394531 C 78.570312 -89.667969 76.570312 -88.027344 76.570312 -85.300781 L 76.570312 -75.480469 C 70.570312 -83.480469 60.746094 -89.121094 48.925781 -89.121094 C 24.554688 -89.121094 6.183594 -70.386719 6.183594 -43.832031 C 6.183594 -16.1875 26.007812 1.820312 48.199219 1.820312 C 59.472656 1.820312 70.386719 -3.273438 76.390625 -13.09375 L 76.390625 -2.910156 C 76.390625 -1.273438 77.664062 0 79.300781 0 L 94.757812 0 C 96.394531 0 97.304688 -0.726562 97.304688 -2 L 97.304688 -2.546875 C 97.304688 -5.636719 90.574219 -6.183594 90.574219 -12.730469 L 90.574219 -70.570312 C 90.574219 -77.664062 97.488281 -78.753906 97.488281 -81.480469 Z M 52.015625 -4.183594 C 33.828125 -4.363281 21.460938 -24.371094 21.824219 -49.289062 C 22.007812 -69.660156 32.921875 -83.300781 48.742188 -83.300781 C 63.476562 -83.300781 75.117188 -69.476562 75.117188 -57.835938 L 75.117188 -30.375 C 75.117188 -12.914062 62.382812 -4.183594 52.015625 -4.183594 Z M 52.015625 -4.183594 "/></g></g></g><g fill="#2b3349" fill-opacity="1"><g transform="translate(1193.920821, 473.105612)"><g><path d="M 55.835938 -89.121094 C 43.105469 -89.121094 32.191406 -83.117188 26.734375 -73.84375 L 26.917969 -85.847656 C 26.917969 -88.574219 25.464844 -90.03125 21.824219 -88.394531 L 8.730469 -82.027344 C 6.910156 -81.300781 5.820312 -80.207031 5.820312 -78.753906 L 5.820312 -78.207031 C 5.820312 -74.570312 13.09375 -74.386719 13.09375 -68.023438 L 13.09375 28.375 C 13.09375 35.101562 6.367188 35.101562 6.367188 38.558594 L 6.367188 39.105469 C 6.367188 40.742188 8.003906 41.46875 10.183594 41.46875 L 32.554688 41.46875 C 34.738281 41.46875 36.195312 40.742188 36.195312 39.105469 L 36.195312 38.558594 C 36.195312 35.101562 29.101562 35.101562 29.101562 28.375 L 29.101562 -10.730469 C 35.464844 -2.910156 44.742188 1.820312 56.019531 1.820312 C 78.933594 1.820312 97.667969 -18.007812 97.667969 -44.925781 C 97.667969 -71.84375 78.027344 -89.121094 55.835938 -89.121094 Z M 53.835938 -4 C 41.105469 -4 29.101562 -17.460938 29.101562 -32.011719 L 29.101562 -63.113281 C 30.554688 -74.207031 40.558594 -83.300781 51.835938 -83.300781 C 69.476562 -83.300781 81.480469 -65.65625 81.480469 -40.558594 C 81.480469 -18.1875 70.570312 -4 53.835938 -4 Z M 53.835938 -4 "/></g></g></g><g fill="#2b3349" fill-opacity="1"><g transform="translate(1297.915768, 473.105612)"><g><path d="M 83.117188 -88.757812 L 67.660156 -85.664062 C 65.839844 -85.300781 65.113281 -84.210938 65.113281 -82.9375 L 65.113281 -82.390625 C 65.113281 -79.117188 72.023438 -78.753906 72.023438 -71.84375 L 72.023438 -34.011719 C 72.023438 -18.007812 61.839844 -7.09375 48.925781 -7.09375 C 35.648438 -7.09375 28.007812 -19.097656 28.007812 -38.375 L 28.191406 -86.210938 C 28.191406 -88.574219 26.371094 -88.9375 23.28125 -88.394531 L 8.003906 -85.664062 C 6.367188 -85.300781 5.273438 -84.210938 5.273438 -82.9375 L 5.273438 -82.390625 C 5.273438 -79.300781 12.003906 -78.753906 12.003906 -71.84375 L 12.003906 -39.648438 C 12.003906 -15.824219 25.828125 0 45.289062 0 C 57.292969 0 66.566406 -4.910156 72.023438 -13.460938 L 72.023438 -6.003906 C 72.023438 20.1875 63.113281 30.917969 49.289062 30.917969 C 22.917969 30.738281 28.191406 3.457031 17.277344 3.457031 C 12.730469 3.457031 10.003906 6.367188 10.003906 10.183594 C 10.003906 21.824219 23.824219 36.738281 46.742188 36.738281 C 70.75 36.738281 88.027344 21.824219 88.027344 -7.820312 L 88.027344 -86.210938 C 88.027344 -88.574219 86.390625 -89.300781 83.117188 -88.757812 Z M 83.117188 -88.757812 "/></g></g></g><g fill="#d4491d" fill-opacity="1"><g transform="translate(124.439599, 273.609911)"><g><path d="M 195.328125 -30.746094 C 194.121094 -58.175781 182.367188 -80.179688 159.457031 -94.347656 C 179.652344 -107.007812 192.011719 -127.503906 192.011719 -145.894531 C 192.011719 -191.109375 155.839844 -214.015625 100.679688 -214.015625 L 19.59375 -214.015625 C 15.371094 -214.015625 12.359375 -211.90625 12.359375 -208.289062 L 12.359375 -207.082031 C 12.359375 -198.644531 24.414062 -195.027344 24.414062 -181.160156 L 24.414062 -32.855469 C 24.414062 -18.988281 12.359375 -15.371094 12.359375 -6.933594 L 12.359375 -5.726562 C 12.359375 -2.109375 15.371094 0 19.59375 0 L 85.90625 0 C 90.128906 0 93.140625 -2.109375 93.140625 -5.726562 L 93.140625 -6.933594 C 93.140625 -15.371094 79.578125 -18.988281 79.578125 -32.855469 L 79.578125 -81.386719 L 113.035156 -81.6875 C 131.121094 -72.042969 139.261719 -51.847656 139.5625 -28.335938 C 139.5625 -17.484375 130.21875 -15.371094 130.21875 -6.933594 L 130.21875 -5.726562 C 130.21875 -2.109375 132.929688 0 137.453125 0 L 201.054688 0 C 205.273438 0 208.289062 -2.109375 208.289062 -5.726562 L 208.289062 -6.933594 C 208.289062 -15.371094 195.929688 -19.292969 195.328125 -30.746094 Z M 98.871094 -101.882812 C 86.210938 -101.882812 79.578125 -108.515625 79.578125 -126 L 79.578125 -177.242188 C 79.578125 -186.285156 84.097656 -192.917969 91.03125 -192.917969 L 96.457031 -192.917969 C 114.84375 -192.917969 135.042969 -172.71875 135.042969 -140.164062 C 135.042969 -114.242188 122.683594 -101.882812 107.308594 -101.882812 Z M 98.871094 -101.882812 "/></g></g></g><g fill="#d4491d" fill-opacity="1"><g transform="translate(335.709576, 273.609911)"><g><path d="M 133.234375 -47.625 C 127.808594 -40.390625 116.050781 -34.363281 100.980469 -34.363281 C 84.097656 -34.363281 70.835938 -43.707031 63 -58.777344 C 72.042969 -58.476562 82.59375 -59.082031 93.140625 -60.890625 C 121.476562 -65.410156 141.371094 -82.894531 141.371094 -103.992188 C 141.371094 -130.519531 117.257812 -148.003906 81.386719 -147.703125 C 40.996094 -147.398438 6.632812 -118.160156 6.632812 -73.246094 C 6.632812 -27.730469 38.28125 3.015625 82.894531 3.015625 C 126.300781 3.015625 143.480469 -26.828125 144.386719 -43.40625 C 144.6875 -50.039062 137.453125 -51.847656 133.234375 -47.625 Z M 75.054688 -131.726562 C 85.003906 -131.726562 92.539062 -121.175781 92.839844 -107.914062 C 92.839844 -87.113281 85.605469 -77.769531 72.34375 -75.359375 C 68.425781 -74.753906 63 -74.453125 57.273438 -74.753906 C 55.464844 -81.988281 54.558594 -89.828125 54.558594 -97.964844 C 54.558594 -117.859375 62.699219 -131.726562 75.054688 -131.726562 Z M 75.054688 -131.726562 "/></g></g></g><g fill="#d4491d" fill-opacity="1"><g transform="translate(486.100058, 273.609911)"><g><path d="M 160.363281 -32.855469 L 160.363281 -219.742188 C 160.363281 -227.882812 155.839844 -229.691406 147.097656 -226.976562 L 100.074219 -212.8125 C 95.855469 -211.605469 93.140625 -208.289062 93.140625 -204.972656 L 93.140625 -204.070312 C 93.140625 -195.328125 109.117188 -193.519531 109.117188 -179.351562 L 109.117188 -139.261719 C 100.980469 -144.6875 90.730469 -147.703125 78.070312 -147.703125 C 40.089844 -147.703125 6.632812 -117.257812 6.632812 -72.34375 C 6.632812 -22.910156 41.296875 3.015625 77.769531 3.015625 C 92.539062 3.015625 105.5 -1.808594 114.542969 -10.25 L 114.542969 -7.535156 C 114.542969 -3.015625 117.558594 0 122.382812 0 L 165.484375 0 C 169.707031 0 172.417969 -2.109375 172.417969 -5.726562 L 172.417969 -6.933594 C 172.417969 -15.371094 160.363281 -18.988281 160.363281 -32.855469 Z M 89.828125 -11.753906 C 67.21875 -12.660156 57.273438 -70.535156 58.175781 -95.855469 C 59.082031 -119.96875 67.21875 -132.929688 81.988281 -132.929688 C 95.855469 -132.929688 109.117188 -114.542969 109.117188 -95.253906 L 109.117188 -37.074219 C 109.117188 -20.796875 100.074219 -11.453125 89.828125 -11.753906 Z M 89.828125 -11.753906 "/></g></g></g><g fill="#d4491d" fill-opacity="1"><g transform="translate(663.916439, 273.609911)"><g><path d="M 160.363281 -32.855469 L 160.363281 -219.742188 C 160.363281 -227.882812 155.839844 -229.691406 147.097656 -226.976562 L 100.074219 -212.8125 C 95.855469 -211.605469 93.140625 -208.289062 93.140625 -204.972656 L 93.140625 -204.070312 C 93.140625 -195.328125 109.117188 -193.519531 109.117188 -179.351562 L 109.117188 -139.261719 C 100.980469 -144.6875 90.730469 -147.703125 78.070312 -147.703125 C 40.089844 -147.703125 6.632812 -117.257812 6.632812 -72.34375 C 6.632812 -22.910156 41.296875 3.015625 77.769531 3.015625 C 92.539062 3.015625 105.5 -1.808594 114.542969 -10.25 L 114.542969 -7.535156 C 114.542969 -3.015625 117.558594 0 122.382812 0 L 165.484375 0 C 169.707031 0 172.417969 -2.109375 172.417969 -5.726562 L 172.417969 -6.933594 C 172.417969 -15.371094 160.363281 -18.988281 160.363281 -32.855469 Z M 89.828125 -11.753906 C 67.21875 -12.660156 57.273438 -70.535156 58.175781 -95.855469 C 59.082031 -119.96875 67.21875 -132.929688 81.988281 -132.929688 C 95.855469 -132.929688 109.117188 -114.542969 109.117188 -95.253906 L 109.117188 -37.074219 C 109.117188 -20.796875 100.074219 -11.453125 89.828125 -11.753906 Z M 89.828125 -11.753906 "/></g></g></g><g fill="#d4491d" fill-opacity="1"><g transform="translate(841.73282, 273.609911)"><g><path d="M 146.195312 -146.496094 L 101.28125 -140.164062 C 97.0625 -139.5625 94.347656 -136.546875 94.347656 -133.234375 L 94.347656 -132.027344 C 94.347656 -124.492188 106.707031 -120.875 106.707031 -106.707031 L 106.707031 -47.324219 C 106.707031 -31.648438 97.664062 -19.894531 86.511719 -19.894531 C 75.359375 -19.894531 69.027344 -29.238281 69.328125 -50.941406 L 70.234375 -140.164062 C 70.234375 -145.589844 64.808594 -147.398438 56.066406 -146.195312 L 11.152344 -140.164062 C 6.933594 -139.5625 4.21875 -136.546875 4.21875 -133.234375 L 4.21875 -132.027344 C 4.21875 -124.492188 16.277344 -120.875 16.277344 -106.707031 L 16.277344 -56.367188 C 16.277344 -21.703125 42.199219 0 70.535156 0 C 86.511719 0 98.265625 -3.917969 106.707031 -10.851562 L 106.707031 -10.550781 C 106.707031 32.855469 96.15625 46.117188 82.894531 45.816406 C 54.257812 45.214844 63.601562 -2.410156 32.554688 -2.410156 C 18.988281 -2.410156 11.152344 6.632812 11.152344 17.484375 C 11.152344 44.308594 43.105469 60.285156 77.167969 60.285156 C 121.175781 60.285156 159.457031 34.363281 159.457031 -18.988281 L 159.457031 -140.164062 C 159.457031 -145.589844 154.9375 -147.703125 146.195312 -146.496094 Z M 146.195312 -146.496094 "/></g></g></g></svg>