<svg xmlns="http://www.w3.org/2000/svg" xmlns:xlink="http://www.w3.org/1999/xlink" width="1920" zoomAndPan="magnify" viewBox="0 0 1440 809.999993" height="1080" preserveAspectRatio="xMidYMid meet" version="1.0"><defs><g/></defs><g fill="#2b3349" fill-opacity="1"><g transform="translate(349.230845, 558.686068)"><g><path d="M 10.816406 0 L 27.714844 0 C 29.339844 0 30.421875 -0.675781 30.421875 -1.757812 L 30.421875 -2.027344 C 30.421875 -4.328125 25.148438 -4.597656 25.148438 -9.464844 L 25.148438 -32.582031 L 39.074219 -32.582031 C 63.816406 -32.582031 78.550781 -44.074219 78.550781 -64.761719 C 78.550781 -87.203125 58.542969 -95.992188 35.964844 -95.992188 L 10.816406 -95.992188 C 9.058594 -95.992188 7.976562 -95.453125 7.976562 -94.371094 L 7.976562 -93.964844 C 7.976562 -91.53125 12.980469 -90.988281 12.980469 -86.527344 L 12.980469 -9.464844 C 12.980469 -4.597656 7.976562 -4.328125 7.976562 -2.027344 L 7.976562 -1.757812 C 7.976562 -0.675781 9.058594 0 10.816406 0 Z M 30.015625 -38.125 C 26.769531 -38.125 25.148438 -39.882812 25.148438 -42.992188 L 25.148438 -86.121094 C 25.148438 -88.960938 26.230469 -90.449219 28.664062 -90.449219 L 35.964844 -90.449219 C 51.511719 -90.449219 65.976562 -81.527344 65.976562 -61.785156 C 65.976562 -46.914062 55.566406 -38.125 39.074219 -38.125 Z M 30.015625 -38.125 "/></g></g></g><g fill="#2b3349" fill-opacity="1"><g transform="translate(430.996099, 558.686068)"><g><path d="M 31.636719 1.21875 C 48.402344 1.21875 58.949219 -6.894531 58.949219 -17.035156 C 58.949219 -44.074219 17.710938 -30.824219 17.710938 -50.292969 C 17.710938 -57.054688 23.796875 -62.058594 31.636719 -62.058594 C 48.265625 -62.058594 44.886719 -45.5625 52.59375 -45.5625 C 55.296875 -45.5625 57.460938 -47.589844 57.460938 -50.292969 C 57.460938 -57.59375 47.859375 -66.25 31.097656 -66.25 C 16.222656 -66.25 5.679688 -58.136719 5.679688 -47.726562 C 5.679688 -21.089844 47.050781 -34.476562 47.050781 -14.601562 C 47.050781 -6.894531 40.289062 -2.703125 31.636719 -2.703125 C 13.519531 -2.703125 17.847656 -19.199219 9.464844 -19.199219 C 6.355469 -19.199219 4.191406 -17.441406 4.191406 -14.195312 C 4.191406 -7.839844 13.65625 1.21875 31.636719 1.21875 Z M 31.636719 1.21875 "/></g></g></g><g fill="#2b3349" fill-opacity="1"><g transform="translate(494.110746, 558.686068)"><g><path d="M 61.785156 -65.976562 L 50.292969 -63.679688 C 48.941406 -63.410156 48.402344 -62.597656 48.402344 -61.652344 L 48.402344 -61.246094 C 48.402344 -58.8125 53.539062 -58.542969 53.539062 -53.402344 L 53.539062 -25.28125 C 53.539062 -13.386719 45.96875 -5.273438 36.367188 -5.273438 C 26.5 -5.273438 20.820312 -14.195312 20.820312 -28.527344 L 20.957031 -64.085938 C 20.957031 -65.84375 19.605469 -66.113281 17.304688 -65.707031 L 5.949219 -63.679688 C 4.730469 -63.410156 3.921875 -62.597656 3.921875 -61.652344 L 3.921875 -61.246094 C 3.921875 -58.949219 8.921875 -58.542969 8.921875 -53.402344 L 8.921875 -29.472656 C 8.921875 -11.761719 19.199219 0 33.664062 0 C 42.589844 0 49.484375 -3.652344 53.539062 -10.003906 L 53.539062 -4.460938 C 53.539062 15.007812 46.914062 22.984375 36.640625 22.984375 C 17.035156 22.847656 20.957031 2.570312 12.84375 2.570312 C 9.464844 2.570312 7.4375 4.730469 7.4375 7.570312 C 7.4375 16.222656 17.710938 27.308594 34.746094 27.308594 C 52.59375 27.308594 65.4375 16.222656 65.4375 -5.8125 L 65.4375 -64.085938 C 65.4375 -65.84375 64.21875 -66.382812 61.785156 -65.976562 Z M 61.785156 -65.976562 "/></g></g></g><g fill="#2b3349" fill-opacity="1"><g transform="translate(567.767073, 558.686068)"><g><path d="M 37.722656 1.351562 C 53.402344 1.351562 62.328125 -8.921875 64.21875 -18.792969 C 64.761719 -21.496094 61.382812 -21.902344 60.300781 -19.875 C 57.191406 -13.113281 50.96875 -7.164062 41.507812 -7.164062 C 26.5 -7.164062 15.820312 -19.199219 15.820312 -38.125 C 15.820312 -51.511719 23.796875 -61.921875 35.015625 -61.921875 C 50.429688 -61.785156 50.292969 -45.023438 58.136719 -44.75 C 61.921875 -44.617188 63.542969 -46.78125 63.542969 -49.484375 C 63.542969 -57.054688 51.917969 -66.382812 37.179688 -66.25 C 18.792969 -66.113281 3.921875 -53.132812 3.921875 -32.855469 C 3.921875 -13.25 18.929688 1.351562 37.722656 1.351562 Z M 37.722656 1.351562 "/></g></g></g><g fill="#2b3349" fill-opacity="1"><g transform="translate(635.61194, 558.686068)"><g><path d="M 68.546875 -9.734375 L 67.058594 -36.910156 C 65.84375 -57.324219 54.757812 -66.25 41.507812 -66.25 C 32.855469 -66.25 25.554688 -62.058594 21.363281 -55.566406 L 21.632812 -99.371094 C 21.632812 -101.402344 20.144531 -102.347656 17.710938 -101.128906 L 6.625 -96.261719 C 5.40625 -95.722656 4.730469 -95.046875 4.730469 -93.964844 L 4.730469 -93.558594 C 4.730469 -91.394531 9.871094 -91.125 9.871094 -85.851562 L 9.871094 -9.464844 C 9.871094 -4.730469 4.867188 -4.867188 4.867188 -2.164062 L 4.867188 -1.757812 C 4.867188 -0.675781 5.8125 0 7.4375 0 L 24.335938 0 C 25.957031 0 27.175781 -0.675781 27.175781 -1.757812 L 27.175781 -2.164062 C 27.175781 -4.867188 21.765625 -4.730469 21.765625 -9.464844 L 21.765625 -42.316406 C 21.765625 -53 28.664062 -60.976562 38.667969 -60.976562 C 47.996094 -60.976562 54.621094 -53.132812 55.296875 -37.179688 L 56.648438 -9.597656 C 56.917969 -4.867188 51.78125 -4.730469 51.78125 -2.164062 L 51.78125 -1.621094 C 51.78125 -0.539062 52.863281 0 54.484375 0 L 70.710938 0 C 72.332031 0 73.414062 -0.539062 73.414062 -1.621094 L 73.414062 -2.164062 C 73.414062 -4.730469 68.953125 -4.867188 68.546875 -9.734375 Z M 68.546875 -9.734375 "/></g></g></g><g fill="#2b3349" fill-opacity="1"><g transform="translate(712.376701, 558.686068)"><g><path d="M 39.75 1.351562 C 58.8125 1.351562 71.65625 -13.25 71.65625 -31.90625 C 71.65625 -50.835938 57.59375 -66.25 37.316406 -66.25 C 18.792969 -66.25 4.460938 -52.1875 4.460938 -33.394531 C 4.460938 -15.007812 18.253906 1.351562 39.75 1.351562 Z M 41.371094 -3.109375 C 26.5 -3.109375 16.496094 -19.875 16.496094 -37.179688 C 16.496094 -52.324219 24.472656 -61.785156 35.964844 -61.785156 C 49.753906 -61.785156 59.757812 -46.78125 59.757812 -27.851562 C 59.757812 -12.707031 51.917969 -3.109375 41.371094 -3.109375 Z M 41.371094 -3.109375 "/></g></g></g><g fill="#2b3349" fill-opacity="1"><g transform="translate(788.735979, 558.686068)"><g><path d="M 29.339844 1.351562 C 40.15625 1.351562 46.644531 -6.761719 46.644531 -15.140625 C 46.644531 -17.574219 43.398438 -17.710938 42.589844 -15.683594 C 42.046875 -11.085938 38.53125 -7.570312 32.582031 -7.570312 C 27.582031 -7.570312 24.066406 -11.492188 24.066406 -18.929688 L 24.066406 -59.488281 L 42.722656 -59.488281 C 43.804688 -59.488281 44.75 -60.300781 44.75 -61.515625 L 44.75 -62.867188 C 44.75 -63.949219 43.804688 -64.894531 42.722656 -64.894531 L 24.066406 -64.894531 L 23.929688 -77.742188 C 23.929688 -79.496094 23.390625 -80.445312 21.765625 -80.445312 L 20.414062 -80.445312 C 19.199219 -80.445312 18.253906 -79.496094 18.117188 -77.742188 C 17.441406 -70.035156 14.332031 -64.894531 7.839844 -64.894531 L 2.972656 -64.894531 C 1.621094 -64.894531 0.945312 -64.085938 0.945312 -62.867188 L 0.945312 -61.515625 C 0.945312 -60.300781 1.757812 -59.488281 2.972656 -59.488281 L 11.898438 -59.488281 L 11.898438 -19.0625 C 11.898438 -5.273438 18.929688 1.351562 29.339844 1.351562 Z M 29.339844 1.351562 "/></g></g></g><g fill="#2b3349" fill-opacity="1"><g transform="translate(836.849073, 558.686068)"><g><path d="M 68.546875 -9.734375 L 67.058594 -36.910156 C 65.84375 -57.324219 54.757812 -66.25 41.507812 -66.25 C 32.855469 -66.25 25.554688 -62.058594 21.363281 -55.566406 L 21.632812 -99.371094 C 21.632812 -101.402344 20.144531 -102.347656 17.710938 -101.128906 L 6.625 -96.261719 C 5.40625 -95.722656 4.730469 -95.046875 4.730469 -93.964844 L 4.730469 -93.558594 C 4.730469 -91.394531 9.871094 -91.125 9.871094 -85.851562 L 9.871094 -9.464844 C 9.871094 -4.730469 4.867188 -4.867188 4.867188 -2.164062 L 4.867188 -1.757812 C 4.867188 -0.675781 5.8125 0 7.4375 0 L 24.335938 0 C 25.957031 0 27.175781 -0.675781 27.175781 -1.757812 L 27.175781 -2.164062 C 27.175781 -4.867188 21.765625 -4.730469 21.765625 -9.464844 L 21.765625 -42.316406 C 21.765625 -53 28.664062 -60.976562 38.667969 -60.976562 C 47.996094 -60.976562 54.621094 -53.132812 55.296875 -37.179688 L 56.648438 -9.597656 C 56.917969 -4.867188 51.78125 -4.730469 51.78125 -2.164062 L 51.78125 -1.621094 C 51.78125 -0.539062 52.863281 0 54.484375 0 L 70.710938 0 C 72.332031 0 73.414062 -0.539062 73.414062 -1.621094 L 73.414062 -2.164062 C 73.414062 -4.730469 68.953125 -4.867188 68.546875 -9.734375 Z M 68.546875 -9.734375 "/></g></g></g><g fill="#2b3349" fill-opacity="1"><g transform="translate(913.613834, 558.686068)"><g><path d="M 59.757812 -19.0625 C 56.917969 -12.574219 50.429688 -7.300781 40.15625 -7.300781 C 28.257812 -7.300781 19.605469 -15.414062 16.628906 -28.121094 C 23.253906 -27.582031 30.824219 -27.175781 39.480469 -28.796875 C 52.1875 -31.367188 60.703125 -38.9375 60.703125 -48.265625 C 60.703125 -59.894531 50.429688 -66.382812 36.910156 -66.25 C 18.117188 -66.113281 4.597656 -52.59375 4.597656 -32.988281 C 4.597656 -12.4375 18.253906 1.351562 37.046875 1.351562 C 53.675781 1.351562 62.058594 -9.871094 63.816406 -17.980469 C 64.085938 -20.550781 60.976562 -20.957031 59.757812 -19.0625 Z M 34.882812 -61.652344 C 43.265625 -61.652344 49.078125 -56.109375 49.214844 -48.265625 C 49.347656 -39.613281 44.75 -35.421875 37.179688 -33.800781 C 30.015625 -32.3125 21.902344 -32.582031 15.820312 -32.988281 C 15.683594 -34.613281 15.546875 -36.234375 15.546875 -37.855469 C 15.546875 -50.96875 23.253906 -61.652344 34.882812 -61.652344 Z M 34.882812 -61.652344 "/></g></g></g><g fill="#2b3349" fill-opacity="1"><g transform="translate(980.782945, 558.686068)"><g><path d="M 38.667969 -66.25 C 30.285156 -66.25 24.066406 -61.652344 21.089844 -53 L 21.089844 -63.816406 C 21.089844 -65.84375 20.144531 -66.925781 17.574219 -65.707031 L 7.300781 -61.109375 C 6.085938 -60.433594 5.273438 -59.625 5.273438 -58.675781 L 5.273438 -58.40625 C 5.273438 -55.835938 10.679688 -55.703125 10.679688 -50.566406 L 10.679688 -9.464844 C 10.679688 -4.730469 5.679688 -4.597656 5.679688 -2.164062 L 5.679688 -1.621094 C 5.679688 -0.539062 6.625 0 8.382812 0 L 25.148438 0 C 26.90625 0 27.851562 -0.539062 27.851562 -1.621094 L 27.851562 -2.164062 C 27.851562 -4.597656 22.171875 -4.730469 22.171875 -9.464844 L 22.171875 -40.289062 C 22.171875 -50.429688 26.230469 -58.949219 33.664062 -58.949219 C 42.046875 -58.949219 38.667969 -49.484375 45.699219 -49.484375 C 49.484375 -49.484375 51.105469 -52.324219 51.105469 -55.835938 C 51.105469 -61.515625 46.78125 -66.25 38.667969 -66.25 Z M 38.667969 -66.25 "/></g></g></g><g fill="#2b3349" fill-opacity="1"><g transform="translate(1032.274747, 558.686068)"><g><path d="M 72.46875 -60.570312 L 72.46875 -60.976562 C 72.46875 -62.191406 71.792969 -62.867188 70.441406 -63.273438 L 61.109375 -65.707031 C 58.40625 -66.652344 56.917969 -65.4375 56.917969 -63.410156 L 56.917969 -56.109375 C 52.457031 -62.058594 45.15625 -66.25 36.367188 -66.25 C 18.253906 -66.25 4.597656 -52.324219 4.597656 -32.582031 C 4.597656 -12.03125 19.332031 1.351562 35.828125 1.351562 C 44.210938 1.351562 52.324219 -2.433594 56.785156 -9.734375 L 56.785156 -2.164062 C 56.785156 -0.945312 57.730469 0 58.949219 0 L 70.441406 0 C 71.65625 0 72.332031 -0.539062 72.332031 -1.488281 L 72.332031 -1.894531 C 72.332031 -4.191406 67.328125 -4.597656 67.328125 -9.464844 L 67.328125 -52.457031 C 67.328125 -57.730469 72.46875 -58.542969 72.46875 -60.570312 Z M 38.667969 -3.109375 C 25.148438 -3.246094 15.953125 -18.117188 16.222656 -36.640625 C 16.359375 -51.78125 24.472656 -61.921875 36.234375 -61.921875 C 47.183594 -61.921875 55.835938 -51.648438 55.835938 -42.992188 L 55.835938 -22.578125 C 55.835938 -9.597656 46.375 -3.109375 38.667969 -3.109375 Z M 38.667969 -3.109375 "/></g></g></g><g fill="#2b3349" fill-opacity="1"><g transform="translate(1110.390947, 558.686068)"><g><path d="M 41.507812 -66.25 C 32.042969 -66.25 23.929688 -61.785156 19.875 -54.890625 L 20.007812 -63.816406 C 20.007812 -65.84375 18.929688 -66.925781 16.222656 -65.707031 L 6.488281 -60.976562 C 5.136719 -60.433594 4.328125 -59.625 4.328125 -58.542969 L 4.328125 -58.136719 C 4.328125 -55.433594 9.734375 -55.296875 9.734375 -50.566406 L 9.734375 21.089844 C 9.734375 26.09375 4.730469 26.09375 4.730469 28.664062 L 4.730469 29.066406 C 4.730469 30.285156 5.949219 30.824219 7.570312 30.824219 L 24.199219 30.824219 C 25.824219 30.824219 26.90625 30.285156 26.90625 29.066406 L 26.90625 28.664062 C 26.90625 26.09375 21.632812 26.09375 21.632812 21.089844 L 21.632812 -7.976562 C 26.363281 -2.164062 33.257812 1.351562 41.640625 1.351562 C 58.675781 1.351562 72.601562 -13.386719 72.601562 -33.394531 C 72.601562 -53.402344 58 -66.25 41.507812 -66.25 Z M 40.019531 -2.972656 C 30.554688 -2.972656 21.632812 -12.980469 21.632812 -23.796875 L 21.632812 -46.914062 C 22.714844 -55.160156 30.148438 -61.921875 38.53125 -61.921875 C 51.648438 -61.921875 60.570312 -48.808594 60.570312 -30.148438 C 60.570312 -13.519531 52.457031 -2.972656 40.019531 -2.972656 Z M 40.019531 -2.972656 "/></g></g></g><g fill="#2b3349" fill-opacity="1"><g transform="translate(1187.696254, 558.686068)"><g><path d="M 61.785156 -65.976562 L 50.292969 -63.679688 C 48.941406 -63.410156 48.402344 -62.597656 48.402344 -61.652344 L 48.402344 -61.246094 C 48.402344 -58.8125 53.539062 -58.542969 53.539062 -53.402344 L 53.539062 -25.28125 C 53.539062 -13.386719 45.96875 -5.273438 36.367188 -5.273438 C 26.5 -5.273438 20.820312 -14.195312 20.820312 -28.527344 L 20.957031 -64.085938 C 20.957031 -65.84375 19.605469 -66.113281 17.304688 -65.707031 L 5.949219 -63.679688 C 4.730469 -63.410156 3.921875 -62.597656 3.921875 -61.652344 L 3.921875 -61.246094 C 3.921875 -58.949219 8.921875 -58.542969 8.921875 -53.402344 L 8.921875 -29.472656 C 8.921875 -11.761719 19.199219 0 33.664062 0 C 42.589844 0 49.484375 -3.652344 53.539062 -10.003906 L 53.539062 -4.460938 C 53.539062 15.007812 46.914062 22.984375 36.640625 22.984375 C 17.035156 22.847656 20.957031 2.570312 12.84375 2.570312 C 9.464844 2.570312 7.4375 4.730469 7.4375 7.570312 C 7.4375 16.222656 17.710938 27.308594 34.746094 27.308594 C 52.59375 27.308594 65.4375 16.222656 65.4375 -5.8125 L 65.4375 -64.085938 C 65.4375 -65.84375 64.21875 -66.382812 61.785156 -65.976562 Z M 61.785156 -65.976562 "/></g></g></g><g fill="#d4491d" fill-opacity="1"><g transform="translate(255.252959, 410.389673)"><g><path d="M 145.199219 -22.855469 C 144.300781 -43.246094 135.5625 -59.601562 118.535156 -70.132812 C 133.546875 -79.546875 142.734375 -94.78125 142.734375 -108.449219 C 142.734375 -142.0625 115.84375 -159.089844 74.839844 -159.089844 L 14.566406 -159.089844 C 11.425781 -159.089844 9.1875 -157.523438 9.1875 -154.832031 L 9.1875 -153.9375 C 9.1875 -147.664062 18.148438 -144.972656 18.148438 -134.667969 L 18.148438 -24.421875 C 18.148438 -14.117188 9.1875 -11.425781 9.1875 -5.152344 L 9.1875 -4.257812 C 9.1875 -1.570312 11.425781 0 14.566406 0 L 63.859375 0 C 66.996094 0 69.238281 -1.570312 69.238281 -4.257812 L 69.238281 -5.152344 C 69.238281 -11.425781 59.15625 -14.117188 59.15625 -24.421875 L 59.15625 -60.5 L 84.027344 -60.722656 C 97.472656 -53.554688 103.519531 -38.539062 103.746094 -21.0625 C 103.746094 -12.996094 96.796875 -11.425781 96.796875 -5.152344 L 96.796875 -4.257812 C 96.796875 -1.570312 98.816406 0 102.175781 0 L 149.457031 0 C 152.59375 0 154.832031 -1.570312 154.832031 -4.257812 L 154.832031 -5.152344 C 154.832031 -11.425781 145.644531 -14.339844 145.199219 -22.855469 Z M 73.496094 -75.734375 C 64.085938 -75.734375 59.15625 -80.664062 59.15625 -93.660156 L 59.15625 -131.753906 C 59.15625 -138.476562 62.515625 -143.40625 67.667969 -143.40625 L 71.703125 -143.40625 C 85.371094 -143.40625 100.382812 -128.394531 100.382812 -104.191406 C 100.382812 -84.921875 91.195312 -75.734375 79.769531 -75.734375 Z M 73.496094 -75.734375 "/></g></g></g><g fill="#d4491d" fill-opacity="1"><g transform="translate(412.301837, 410.389673)"><g><path d="M 99.039062 -35.402344 C 95.007812 -30.027344 86.265625 -25.542969 75.0625 -25.542969 C 62.515625 -25.542969 52.65625 -32.492188 46.832031 -43.695312 C 53.554688 -43.46875 61.394531 -43.917969 69.238281 -45.261719 C 90.300781 -48.625 105.089844 -61.621094 105.089844 -77.304688 C 105.089844 -97.023438 87.164062 -110.019531 60.5 -109.792969 C 30.472656 -109.570312 4.929688 -87.835938 4.929688 -54.449219 C 4.929688 -20.613281 28.457031 2.242188 61.621094 2.242188 C 93.886719 2.242188 106.65625 -19.941406 107.328125 -32.265625 C 107.554688 -37.195312 102.175781 -38.539062 99.039062 -35.402344 Z M 55.792969 -97.917969 C 63.1875 -97.917969 68.789062 -90.078125 69.015625 -80.21875 C 69.015625 -64.757812 63.636719 -57.808594 53.777344 -56.019531 C 50.863281 -55.570312 46.832031 -55.34375 42.574219 -55.570312 C 41.230469 -60.949219 40.558594 -66.773438 40.558594 -72.824219 C 40.558594 -87.613281 46.605469 -97.917969 55.792969 -97.917969 Z M 55.792969 -97.917969 "/></g></g></g><g fill="#d4491d" fill-opacity="1"><g transform="translate(524.095555, 410.389673)"><g><path d="M 119.207031 -24.421875 L 119.207031 -163.347656 C 119.207031 -169.398438 115.84375 -170.742188 109.347656 -168.726562 L 74.390625 -158.195312 C 71.253906 -157.296875 69.238281 -154.832031 69.238281 -152.367188 L 69.238281 -151.695312 C 69.238281 -145.199219 81.113281 -143.855469 81.113281 -133.324219 L 81.113281 -103.519531 C 75.0625 -107.554688 67.445312 -109.792969 58.035156 -109.792969 C 29.800781 -109.792969 4.929688 -87.164062 4.929688 -53.777344 C 4.929688 -17.03125 30.699219 2.242188 57.808594 2.242188 C 68.789062 2.242188 78.425781 -1.34375 85.148438 -7.617188 L 85.148438 -5.601562 C 85.148438 -2.242188 87.386719 0 90.972656 0 L 123.015625 0 C 126.152344 0 128.167969 -1.570312 128.167969 -4.257812 L 128.167969 -5.152344 C 128.167969 -11.425781 119.207031 -14.117188 119.207031 -24.421875 Z M 66.773438 -8.738281 C 49.96875 -9.410156 42.574219 -52.433594 43.246094 -71.253906 C 43.917969 -89.179688 49.96875 -98.816406 60.949219 -98.816406 C 71.253906 -98.816406 81.113281 -85.148438 81.113281 -70.804688 L 81.113281 -27.5625 C 81.113281 -15.460938 74.390625 -8.515625 66.773438 -8.738281 Z M 66.773438 -8.738281 "/></g></g></g><g fill="#d4491d" fill-opacity="1"><g transform="translate(656.27649, 410.389673)"><g><path d="M 119.207031 -24.421875 L 119.207031 -163.347656 C 119.207031 -169.398438 115.84375 -170.742188 109.347656 -168.726562 L 74.390625 -158.195312 C 71.253906 -157.296875 69.238281 -154.832031 69.238281 -152.367188 L 69.238281 -151.695312 C 69.238281 -145.199219 81.113281 -143.855469 81.113281 -133.324219 L 81.113281 -103.519531 C 75.0625 -107.554688 67.445312 -109.792969 58.035156 -109.792969 C 29.800781 -109.792969 4.929688 -87.164062 4.929688 -53.777344 C 4.929688 -17.03125 30.699219 2.242188 57.808594 2.242188 C 68.789062 2.242188 78.425781 -1.34375 85.148438 -7.617188 L 85.148438 -5.601562 C 85.148438 -2.242188 87.386719 0 90.972656 0 L 123.015625 0 C 126.152344 0 128.167969 -1.570312 128.167969 -4.257812 L 128.167969 -5.152344 C 128.167969 -11.425781 119.207031 -14.117188 119.207031 -24.421875 Z M 66.773438 -8.738281 C 49.96875 -9.410156 42.574219 -52.433594 43.246094 -71.253906 C 43.917969 -89.179688 49.96875 -98.816406 60.949219 -98.816406 C 71.253906 -98.816406 81.113281 -85.148438 81.113281 -70.804688 L 81.113281 -27.5625 C 81.113281 -15.460938 74.390625 -8.515625 66.773438 -8.738281 Z M 66.773438 -8.738281 "/></g></g></g><g fill="#d4491d" fill-opacity="1"><g transform="translate(788.457426, 410.389673)"><g><path d="M 108.675781 -108.898438 L 75.289062 -104.191406 C 72.152344 -103.746094 70.132812 -101.503906 70.132812 -99.039062 L 70.132812 -98.144531 C 70.132812 -92.542969 79.320312 -89.851562 79.320312 -79.320312 L 79.320312 -35.179688 C 79.320312 -23.527344 72.597656 -14.789062 64.308594 -14.789062 C 56.019531 -14.789062 51.3125 -21.734375 51.535156 -37.867188 L 52.207031 -104.191406 C 52.207031 -108.226562 48.175781 -109.570312 41.675781 -108.675781 L 8.289062 -104.191406 C 5.152344 -103.746094 3.136719 -101.503906 3.136719 -99.039062 L 3.136719 -98.144531 C 3.136719 -92.542969 12.101562 -89.851562 12.101562 -79.320312 L 12.101562 -41.902344 C 12.101562 -16.132812 31.371094 0 52.433594 0 C 64.308594 0 73.046875 -2.914062 79.320312 -8.066406 L 79.320312 -7.84375 C 79.320312 24.421875 71.480469 34.28125 61.621094 34.058594 C 40.332031 33.609375 47.277344 -1.792969 24.199219 -1.792969 C 14.117188 -1.792969 8.289062 4.929688 8.289062 12.996094 C 8.289062 32.9375 32.042969 44.8125 57.363281 44.8125 C 90.078125 44.8125 118.535156 25.542969 118.535156 -14.117188 L 118.535156 -104.191406 C 118.535156 -108.226562 115.171875 -109.792969 108.675781 -108.898438 Z M 108.675781 -108.898438 "/></g></g></g></svg>