<svg xmlns="http://www.w3.org/2000/svg" xmlns:xlink="http://www.w3.org/1999/xlink" width="1920" zoomAndPan="magnify" viewBox="0 0 1440 809.999993" height="1080" preserveAspectRatio="xMidYMid meet" version="1.0"><defs><g/></defs><g fill="#ffffff" fill-opacity="1"><g transform="translate(171.925703, 73.787722)"><g><path d="M 66.3125 -56.765625 L 66.3125 0 L 59.578125 0 L 59.578125 -41.703125 C 59.578125 -42.265625 59.59375 -42.859375 59.625 -43.484375 C 59.664062 -44.117188 59.710938 -44.769531 59.765625 -45.4375 L 40.28125 -9.9375 C 39.675781 -8.75 38.753906 -8.15625 37.515625 -8.15625 L 36.40625 -8.15625 C 35.164062 -8.15625 34.238281 -8.75 33.625 -9.9375 L 13.75 -45.59375 C 13.90625 -44.1875 13.984375 -42.890625 13.984375 -41.703125 L 13.984375 0 L 7.25 0 L 7.25 -56.765625 L 12.90625 -56.765625 C 13.59375 -56.765625 14.117188 -56.695312 14.484375 -56.5625 C 14.859375 -56.425781 15.21875 -56.054688 15.5625 -55.453125 L 35.171875 -20.515625 C 35.492188 -19.878906 35.804688 -19.21875 36.109375 -18.53125 C 36.410156 -17.84375 36.691406 -17.144531 36.953125 -16.4375 C 37.222656 -17.144531 37.5 -17.847656 37.78125 -18.546875 C 38.070312 -19.253906 38.390625 -19.925781 38.734375 -20.5625 L 57.984375 -55.453125 C 58.304688 -56.054688 58.65625 -56.425781 59.03125 -56.5625 C 59.414062 -56.695312 59.953125 -56.765625 60.640625 -56.765625 Z M 66.3125 -56.765625 "/></g></g></g><g fill="#ffffff" fill-opacity="1"><g transform="translate(245.477015, 73.787722)"><g><path d="M 22.5 -40.765625 C 25.425781 -40.765625 28.0625 -40.273438 30.40625 -39.296875 C 32.757812 -38.316406 34.769531 -36.925781 36.4375 -35.125 C 38.101562 -33.332031 39.378906 -31.160156 40.265625 -28.609375 C 41.148438 -26.066406 41.59375 -23.222656 41.59375 -20.078125 C 41.59375 -16.910156 41.148438 -14.054688 40.265625 -11.515625 C 39.378906 -8.984375 38.101562 -6.820312 36.4375 -5.03125 C 34.769531 -3.238281 32.757812 -1.859375 30.40625 -0.890625 C 28.0625 0.0664062 25.425781 0.546875 22.5 0.546875 C 19.539062 0.546875 16.878906 0.0664062 14.515625 -0.890625 C 12.148438 -1.859375 10.132812 -3.238281 8.46875 -5.03125 C 6.8125 -6.820312 5.539062 -8.984375 4.65625 -11.515625 C 3.769531 -14.054688 3.328125 -16.910156 3.328125 -20.078125 C 3.328125 -23.222656 3.769531 -26.066406 4.65625 -28.609375 C 5.539062 -31.160156 6.8125 -33.332031 8.46875 -35.125 C 10.132812 -36.925781 12.148438 -38.316406 14.515625 -39.296875 C 16.878906 -40.273438 19.539062 -40.765625 22.5 -40.765625 Z M 22.5 -4.953125 C 26.457031 -4.953125 29.410156 -6.273438 31.359375 -8.921875 C 33.316406 -11.578125 34.296875 -15.285156 34.296875 -20.046875 C 34.296875 -24.828125 33.316406 -28.550781 31.359375 -31.21875 C 29.410156 -33.882812 26.457031 -35.21875 22.5 -35.21875 C 20.488281 -35.21875 18.738281 -34.875 17.25 -34.1875 C 15.757812 -33.5 14.519531 -32.503906 13.53125 -31.203125 C 12.539062 -29.910156 11.800781 -28.320312 11.3125 -26.4375 C 10.820312 -24.550781 10.578125 -22.421875 10.578125 -20.046875 C 10.578125 -15.285156 11.5625 -11.578125 13.53125 -8.921875 C 15.5 -6.273438 18.488281 -4.953125 22.5 -4.953125 Z M 22.5 -4.953125 "/></g></g></g><g fill="#ffffff" fill-opacity="1"><g transform="translate(290.392015, 73.787722)"><g><path d="M 12.234375 -34.296875 C 13.109375 -35.273438 14.035156 -36.160156 15.015625 -36.953125 C 15.992188 -37.742188 17.03125 -38.421875 18.125 -38.984375 C 19.21875 -39.554688 20.378906 -39.992188 21.609375 -40.296875 C 22.835938 -40.609375 24.164062 -40.765625 25.59375 -40.765625 C 27.78125 -40.765625 29.710938 -40.398438 31.390625 -39.671875 C 33.066406 -38.941406 34.460938 -37.910156 35.578125 -36.578125 C 36.703125 -35.242188 37.554688 -33.640625 38.140625 -31.765625 C 38.722656 -29.890625 39.015625 -27.816406 39.015625 -25.546875 L 39.015625 0 L 31.921875 0 L 31.921875 -25.546875 C 31.921875 -28.585938 31.226562 -30.945312 29.84375 -32.625 C 28.457031 -34.300781 26.351562 -35.140625 23.53125 -35.140625 C 21.445312 -35.140625 19.5 -34.632812 17.6875 -33.625 C 15.875 -32.625 14.203125 -31.265625 12.671875 -29.546875 L 12.671875 0 L 5.578125 0 L 5.578125 -40.125 L 9.828125 -40.125 C 10.828125 -40.125 11.445312 -39.632812 11.6875 -38.65625 Z M 12.234375 -34.296875 "/></g></g></g><g fill="#ffffff" fill-opacity="1"><g transform="translate(169.778463, 181.497941)"><g><path d="M 45.625 -50.296875 L 27.25 -50.296875 L 27.25 0 L 19.609375 0 L 19.609375 -50.296875 L 1.1875 -50.296875 L 1.1875 -56.765625 L 45.625 -56.765625 Z M 45.625 -50.296875 "/></g></g></g><g fill="#ffffff" fill-opacity="1"><g transform="translate(216.555013, 181.497941)"><g><path d="M 38.578125 -40.125 L 38.578125 0 L 34.375 0 C 33.375 0 32.742188 -0.488281 32.484375 -1.46875 L 31.921875 -5.78125 C 30.179688 -3.851562 28.226562 -2.300781 26.0625 -1.125 C 23.894531 0.0507812 21.410156 0.640625 18.609375 0.640625 C 16.421875 0.640625 14.488281 0.273438 12.8125 -0.453125 C 11.132812 -1.179688 9.726562 -2.203125 8.59375 -3.515625 C 7.457031 -4.835938 6.601562 -6.4375 6.03125 -8.3125 C 5.46875 -10.1875 5.1875 -12.257812 5.1875 -14.53125 L 5.1875 -40.125 L 12.234375 -40.125 L 12.234375 -14.53125 C 12.234375 -11.5 12.925781 -9.148438 14.3125 -7.484375 C 15.695312 -5.816406 17.816406 -4.984375 20.671875 -4.984375 C 22.765625 -4.984375 24.710938 -5.476562 26.515625 -6.46875 C 28.328125 -7.46875 30 -8.835938 31.53125 -10.578125 L 31.53125 -40.125 Z M 38.578125 -40.125 "/></g></g></g><g fill="#ffffff" fill-opacity="1"><g transform="translate(260.717503, 181.497941)"><g><path d="M 32.4375 -24.4375 C 32.4375 -26.070312 32.203125 -27.566406 31.734375 -28.921875 C 31.273438 -30.285156 30.601562 -31.460938 29.71875 -32.453125 C 28.84375 -33.441406 27.769531 -34.207031 26.5 -34.75 C 25.226562 -35.289062 23.789062 -35.5625 22.1875 -35.5625 C 18.800781 -35.5625 16.125 -34.578125 14.15625 -32.609375 C 12.1875 -30.648438 10.96875 -27.925781 10.5 -24.4375 Z M 38.140625 -5.625 C 37.273438 -4.570312 36.234375 -3.65625 35.015625 -2.875 C 33.796875 -2.09375 32.492188 -1.453125 31.109375 -0.953125 C 29.722656 -0.453125 28.289062 -0.078125 26.8125 0.171875 C 25.332031 0.421875 23.867188 0.546875 22.421875 0.546875 C 19.648438 0.546875 17.09375 0.0820312 14.75 -0.84375 C 12.414062 -1.78125 10.394531 -3.15625 8.6875 -4.96875 C 6.988281 -6.78125 5.660156 -9.019531 4.703125 -11.6875 C 3.753906 -14.351562 3.28125 -17.414062 3.28125 -20.875 C 3.28125 -23.675781 3.707031 -26.289062 4.5625 -28.71875 C 5.425781 -31.144531 6.660156 -33.25 8.265625 -35.03125 C 9.878906 -36.8125 11.847656 -38.210938 14.171875 -39.234375 C 16.503906 -40.253906 19.117188 -40.765625 22.015625 -40.765625 C 24.421875 -40.765625 26.644531 -40.359375 28.6875 -39.546875 C 30.738281 -38.742188 32.507812 -37.582031 34 -36.0625 C 35.5 -34.539062 36.671875 -32.664062 37.515625 -30.4375 C 38.359375 -28.207031 38.78125 -25.664062 38.78125 -22.8125 C 38.78125 -21.707031 38.660156 -20.96875 38.421875 -20.59375 C 38.179688 -20.226562 37.734375 -20.046875 37.078125 -20.046875 L 10.265625 -20.046875 C 10.335938 -17.503906 10.679688 -15.296875 11.296875 -13.421875 C 11.921875 -11.546875 12.785156 -9.984375 13.890625 -8.734375 C 15.003906 -7.484375 16.328125 -6.546875 17.859375 -5.921875 C 19.390625 -5.296875 21.109375 -4.984375 23.015625 -4.984375 C 24.785156 -4.984375 26.3125 -5.1875 27.59375 -5.59375 C 28.875 -6.007812 29.972656 -6.453125 30.890625 -6.921875 C 31.816406 -7.398438 32.585938 -7.84375 33.203125 -8.25 C 33.828125 -8.664062 34.363281 -8.875 34.8125 -8.875 C 35.394531 -8.875 35.84375 -8.648438 36.15625 -8.203125 Z M 38.140625 -5.625 "/></g></g></g><g fill="#ffffff" fill-opacity="1"><g transform="translate(302.543125, 181.497941)"><g><path d="M 28.953125 -33.515625 C 28.640625 -32.929688 28.148438 -32.640625 27.484375 -32.640625 C 27.085938 -32.640625 26.640625 -32.785156 26.140625 -33.078125 C 25.640625 -33.367188 25.023438 -33.691406 24.296875 -34.046875 C 23.578125 -34.398438 22.710938 -34.726562 21.703125 -35.03125 C 20.703125 -35.332031 19.515625 -35.484375 18.140625 -35.484375 C 16.953125 -35.484375 15.878906 -35.332031 14.921875 -35.03125 C 13.972656 -34.726562 13.160156 -34.3125 12.484375 -33.78125 C 11.816406 -33.257812 11.304688 -32.644531 10.953125 -31.9375 C 10.597656 -31.238281 10.421875 -30.484375 10.421875 -29.671875 C 10.421875 -28.640625 10.71875 -27.78125 11.3125 -27.09375 C 11.90625 -26.40625 12.6875 -25.8125 13.65625 -25.3125 C 14.632812 -24.8125 15.742188 -24.367188 16.984375 -23.984375 C 18.234375 -23.597656 19.507812 -23.1875 20.8125 -22.75 C 22.125 -22.320312 23.398438 -21.84375 24.640625 -21.3125 C 25.878906 -20.78125 26.988281 -20.117188 27.96875 -19.328125 C 28.945312 -18.535156 29.734375 -17.5625 30.328125 -16.40625 C 30.921875 -15.257812 31.21875 -13.882812 31.21875 -12.28125 C 31.21875 -10.425781 30.882812 -8.710938 30.21875 -7.140625 C 29.5625 -5.578125 28.582031 -4.21875 27.28125 -3.0625 C 25.988281 -1.914062 24.40625 -1.007812 22.53125 -0.34375 C 20.65625 0.3125 18.492188 0.640625 16.046875 0.640625 C 13.242188 0.640625 10.707031 0.1875 8.4375 -0.71875 C 6.164062 -1.632812 4.238281 -2.804688 2.65625 -4.234375 L 4.3125 -6.9375 C 4.53125 -7.28125 4.78125 -7.539062 5.0625 -7.71875 C 5.351562 -7.90625 5.722656 -8 6.171875 -8 C 6.648438 -8 7.148438 -7.8125 7.671875 -7.4375 C 8.203125 -7.070312 8.84375 -6.664062 9.59375 -6.21875 C 10.351562 -5.769531 11.273438 -5.359375 12.359375 -4.984375 C 13.441406 -4.617188 14.785156 -4.4375 16.390625 -4.4375 C 17.765625 -4.4375 18.96875 -4.613281 20 -4.96875 C 21.03125 -5.320312 21.890625 -5.800781 22.578125 -6.40625 C 23.265625 -7.019531 23.769531 -7.722656 24.09375 -8.515625 C 24.425781 -9.304688 24.59375 -10.148438 24.59375 -11.046875 C 24.59375 -12.160156 24.296875 -13.078125 23.703125 -13.796875 C 23.109375 -14.523438 22.320312 -15.144531 21.34375 -15.65625 C 20.375 -16.175781 19.257812 -16.628906 18 -17.015625 C 16.75 -17.398438 15.46875 -17.800781 14.15625 -18.21875 C 12.851562 -18.644531 11.570312 -19.128906 10.3125 -19.671875 C 9.0625 -20.210938 7.945312 -20.890625 6.96875 -21.703125 C 5.988281 -22.523438 5.203125 -23.535156 4.609375 -24.734375 C 4.015625 -25.929688 3.71875 -27.390625 3.71875 -29.109375 C 3.71875 -30.640625 4.035156 -32.113281 4.671875 -33.53125 C 5.304688 -34.945312 6.226562 -36.1875 7.4375 -37.25 C 8.65625 -38.320312 10.148438 -39.175781 11.921875 -39.8125 C 13.691406 -40.445312 15.710938 -40.765625 17.984375 -40.765625 C 20.617188 -40.765625 22.984375 -40.347656 25.078125 -39.515625 C 27.179688 -38.679688 29 -37.535156 30.53125 -36.078125 Z M 28.953125 -33.515625 "/></g></g></g><g fill="#ffffff" fill-opacity="1"><g transform="translate(169.198128, 289.20816)"><g><path d="M 80.796875 -56.765625 L 63.09375 0 L 56.203125 0 L 41.828125 -43.296875 C 41.691406 -43.710938 41.5625 -44.160156 41.4375 -44.640625 C 41.320312 -45.117188 41.203125 -45.617188 41.078125 -46.140625 C 40.941406 -45.617188 40.804688 -45.117188 40.671875 -44.640625 C 40.546875 -44.160156 40.414062 -43.710938 40.28125 -43.296875 L 25.828125 0 L 18.9375 0 L 1.234375 -56.765625 L 7.609375 -56.765625 C 8.296875 -56.765625 8.867188 -56.59375 9.328125 -56.25 C 9.785156 -55.90625 10.082031 -55.46875 10.21875 -54.9375 L 21.9375 -15.484375 C 22.125 -14.773438 22.300781 -14.007812 22.46875 -13.1875 C 22.644531 -12.375 22.8125 -11.503906 22.96875 -10.578125 C 23.15625 -11.503906 23.347656 -12.378906 23.546875 -13.203125 C 23.742188 -14.035156 23.960938 -14.796875 24.203125 -15.484375 L 37.546875 -54.9375 C 37.703125 -55.382812 38.007812 -55.800781 38.46875 -56.1875 C 38.9375 -56.570312 39.5 -56.765625 40.15625 -56.765625 L 42.375 -56.765625 C 43.0625 -56.765625 43.613281 -56.59375 44.03125 -56.25 C 44.457031 -55.90625 44.78125 -55.46875 45 -54.9375 L 58.3125 -15.484375 C 58.539062 -14.796875 58.753906 -14.054688 58.953125 -13.265625 C 59.148438 -12.472656 59.34375 -11.644531 59.53125 -10.78125 C 59.664062 -11.644531 59.8125 -12.472656 59.96875 -13.265625 C 60.125 -14.054688 60.296875 -14.796875 60.484375 -15.484375 L 72.25 -54.9375 C 72.382812 -55.414062 72.679688 -55.835938 73.140625 -56.203125 C 73.597656 -56.578125 74.160156 -56.765625 74.828125 -56.765625 Z M 80.796875 -56.765625 "/></g></g></g><g fill="#ffffff" fill-opacity="1"><g transform="translate(251.225454, 289.20816)"><g><path d="M 32.4375 -24.4375 C 32.4375 -26.070312 32.203125 -27.566406 31.734375 -28.921875 C 31.273438 -30.285156 30.601562 -31.460938 29.71875 -32.453125 C 28.84375 -33.441406 27.769531 -34.207031 26.5 -34.75 C 25.226562 -35.289062 23.789062 -35.5625 22.1875 -35.5625 C 18.800781 -35.5625 16.125 -34.578125 14.15625 -32.609375 C 12.1875 -30.648438 10.96875 -27.925781 10.5 -24.4375 Z M 38.140625 -5.625 C 37.273438 -4.570312 36.234375 -3.65625 35.015625 -2.875 C 33.796875 -2.09375 32.492188 -1.453125 31.109375 -0.953125 C 29.722656 -0.453125 28.289062 -0.078125 26.8125 0.171875 C 25.332031 0.421875 23.867188 0.546875 22.421875 0.546875 C 19.648438 0.546875 17.09375 0.0820312 14.75 -0.84375 C 12.414062 -1.78125 10.394531 -3.15625 8.6875 -4.96875 C 6.988281 -6.78125 5.660156 -9.019531 4.703125 -11.6875 C 3.753906 -14.351562 3.28125 -17.414062 3.28125 -20.875 C 3.28125 -23.675781 3.707031 -26.289062 4.5625 -28.71875 C 5.425781 -31.144531 6.660156 -33.25 8.265625 -35.03125 C 9.878906 -36.8125 11.847656 -38.210938 14.171875 -39.234375 C 16.503906 -40.253906 19.117188 -40.765625 22.015625 -40.765625 C 24.421875 -40.765625 26.644531 -40.359375 28.6875 -39.546875 C 30.738281 -38.742188 32.507812 -37.582031 34 -36.0625 C 35.5 -34.539062 36.671875 -32.664062 37.515625 -30.4375 C 38.359375 -28.207031 38.78125 -25.664062 38.78125 -22.8125 C 38.78125 -21.707031 38.660156 -20.96875 38.421875 -20.59375 C 38.179688 -20.226562 37.734375 -20.046875 37.078125 -20.046875 L 10.265625 -20.046875 C 10.335938 -17.503906 10.679688 -15.296875 11.296875 -13.421875 C 11.921875 -11.546875 12.785156 -9.984375 13.890625 -8.734375 C 15.003906 -7.484375 16.328125 -6.546875 17.859375 -5.921875 C 19.390625 -5.296875 21.109375 -4.984375 23.015625 -4.984375 C 24.785156 -4.984375 26.3125 -5.1875 27.59375 -5.59375 C 28.875 -6.007812 29.972656 -6.453125 30.890625 -6.921875 C 31.816406 -7.398438 32.585938 -7.84375 33.203125 -8.25 C 33.828125 -8.664062 34.363281 -8.875 34.8125 -8.875 C 35.394531 -8.875 35.84375 -8.648438 36.15625 -8.203125 Z M 38.140625 -5.625 "/></g></g></g><g fill="#ffffff" fill-opacity="1"><g transform="translate(293.051075, 289.20816)"><g><path d="M 31.734375 -30.578125 C 30.410156 -32.347656 28.984375 -33.582031 27.453125 -34.28125 C 25.921875 -34.976562 24.203125 -35.328125 22.296875 -35.328125 C 18.578125 -35.328125 15.710938 -33.992188 13.703125 -31.328125 C 11.691406 -28.660156 10.6875 -24.859375 10.6875 -19.921875 C 10.6875 -17.304688 10.910156 -15.066406 11.359375 -13.203125 C 11.816406 -11.347656 12.476562 -9.816406 13.34375 -8.609375 C 14.21875 -7.410156 15.285156 -6.535156 16.546875 -5.984375 C 17.816406 -5.429688 19.257812 -5.15625 20.875 -5.15625 C 23.195312 -5.15625 25.222656 -5.679688 26.953125 -6.734375 C 28.679688 -7.785156 30.273438 -9.273438 31.734375 -11.203125 Z M 38.78125 -58.34375 L 38.78125 0 L 34.578125 0 C 33.578125 0 32.941406 -0.488281 32.671875 -1.46875 L 32.046875 -6.34375 C 30.328125 -4.28125 28.367188 -2.613281 26.171875 -1.34375 C 23.984375 -0.0820312 21.453125 0.546875 18.578125 0.546875 C 16.273438 0.546875 14.1875 0.109375 12.3125 -0.765625 C 10.4375 -1.648438 8.835938 -2.953125 7.515625 -4.671875 C 6.203125 -6.390625 5.1875 -8.53125 4.46875 -11.09375 C 3.757812 -13.65625 3.40625 -16.597656 3.40625 -19.921875 C 3.40625 -22.878906 3.800781 -25.628906 4.59375 -28.171875 C 5.382812 -30.722656 6.519531 -32.9375 8 -34.8125 C 9.476562 -36.6875 11.289062 -38.160156 13.4375 -39.234375 C 15.59375 -40.304688 18.019531 -40.84375 20.71875 -40.84375 C 23.175781 -40.84375 25.28125 -40.425781 27.03125 -39.59375 C 28.789062 -38.757812 30.359375 -37.601562 31.734375 -36.125 L 31.734375 -58.34375 Z M 38.78125 -58.34375 "/></g></g></g><g fill="#ffffff" fill-opacity="1"><g transform="translate(171.287335, 396.918378)"><g><path d="M 45.625 -50.296875 L 27.25 -50.296875 L 27.25 0 L 19.609375 0 L 19.609375 -50.296875 L 1.1875 -50.296875 L 1.1875 -56.765625 L 45.625 -56.765625 Z M 45.625 -50.296875 "/></g></g></g><g fill="#ffffff" fill-opacity="1"><g transform="translate(218.063884, 396.918378)"><g><path d="M 12.671875 -34.78125 C 14.390625 -36.601562 16.289062 -38.054688 18.375 -39.140625 C 20.46875 -40.222656 22.875 -40.765625 25.59375 -40.765625 C 27.78125 -40.765625 29.710938 -40.398438 31.390625 -39.671875 C 33.066406 -38.941406 34.460938 -37.910156 35.578125 -36.578125 C 36.703125 -35.242188 37.554688 -33.640625 38.140625 -31.765625 C 38.722656 -29.890625 39.015625 -27.816406 39.015625 -25.546875 L 39.015625 0 L 31.921875 0 L 31.921875 -25.546875 C 31.921875 -28.585938 31.226562 -30.945312 29.84375 -32.625 C 28.457031 -34.300781 26.351562 -35.140625 23.53125 -35.140625 C 21.445312 -35.140625 19.5 -34.632812 17.6875 -33.625 C 15.875 -32.625 14.203125 -31.265625 12.671875 -29.546875 L 12.671875 0 L 5.578125 0 L 5.578125 -58.34375 L 12.671875 -58.34375 Z M 12.671875 -34.78125 "/></g></g></g><g fill="#ffffff" fill-opacity="1"><g transform="translate(262.26599, 396.918378)"><g><path d="M 38.578125 -40.125 L 38.578125 0 L 34.375 0 C 33.375 0 32.742188 -0.488281 32.484375 -1.46875 L 31.921875 -5.78125 C 30.179688 -3.851562 28.226562 -2.300781 26.0625 -1.125 C 23.894531 0.0507812 21.410156 0.640625 18.609375 0.640625 C 16.421875 0.640625 14.488281 0.273438 12.8125 -0.453125 C 11.132812 -1.179688 9.726562 -2.203125 8.59375 -3.515625 C 7.457031 -4.835938 6.601562 -6.4375 6.03125 -8.3125 C 5.46875 -10.1875 5.1875 -12.257812 5.1875 -14.53125 L 5.1875 -40.125 L 12.234375 -40.125 L 12.234375 -14.53125 C 12.234375 -11.5 12.925781 -9.148438 14.3125 -7.484375 C 15.695312 -5.816406 17.816406 -4.984375 20.671875 -4.984375 C 22.765625 -4.984375 24.710938 -5.476562 26.515625 -6.46875 C 28.328125 -7.46875 30 -8.835938 31.53125 -10.578125 L 31.53125 -40.125 Z M 38.578125 -40.125 "/></g></g></g><g fill="#ffffff" fill-opacity="1"><g transform="translate(306.42848, 396.918378)"><g><path d="M 12.28125 -32.078125 C 13.550781 -34.828125 15.109375 -36.972656 16.953125 -38.515625 C 18.796875 -40.066406 21.050781 -40.84375 23.71875 -40.84375 C 24.570312 -40.84375 25.382812 -40.75 26.15625 -40.5625 C 26.9375 -40.375 27.628906 -40.082031 28.234375 -39.6875 L 27.734375 -34.421875 C 27.566406 -33.765625 27.164062 -33.4375 26.53125 -33.4375 C 26.164062 -33.4375 25.625 -33.515625 24.90625 -33.671875 C 24.195312 -33.828125 23.394531 -33.90625 22.5 -33.90625 C 21.226562 -33.90625 20.097656 -33.71875 19.109375 -33.34375 C 18.117188 -32.976562 17.234375 -32.429688 16.453125 -31.703125 C 15.679688 -30.984375 14.984375 -30.085938 14.359375 -29.015625 C 13.734375 -27.941406 13.171875 -26.71875 12.671875 -25.34375 L 12.671875 0 L 5.578125 0 L 5.578125 -40.125 L 9.625 -40.125 C 10.394531 -40.125 10.921875 -39.976562 11.203125 -39.6875 C 11.492188 -39.394531 11.691406 -38.894531 11.796875 -38.1875 Z M 12.28125 -32.078125 "/></g></g></g><g fill="#ffffff" fill-opacity="1"><g transform="translate(206.977951, 504.628597)"><g><path d="M 14.9375 -50.5 L 14.9375 -30.65625 L 38.265625 -30.65625 L 38.265625 -24.40625 L 14.9375 -24.40625 L 14.9375 0 L 7.25 0 L 7.25 -56.765625 L 42.21875 -56.765625 L 42.21875 -50.5 Z M 14.9375 -50.5 "/></g></g></g><g fill="#ffffff" fill-opacity="1"><g transform="translate(251.774163, 504.628597)"><g><path d="M 12.28125 -32.078125 C 13.550781 -34.828125 15.109375 -36.972656 16.953125 -38.515625 C 18.796875 -40.066406 21.050781 -40.84375 23.71875 -40.84375 C 24.570312 -40.84375 25.382812 -40.75 26.15625 -40.5625 C 26.9375 -40.375 27.628906 -40.082031 28.234375 -39.6875 L 27.734375 -34.421875 C 27.566406 -33.765625 27.164062 -33.4375 26.53125 -33.4375 C 26.164062 -33.4375 25.625 -33.515625 24.90625 -33.671875 C 24.195312 -33.828125 23.394531 -33.90625 22.5 -33.90625 C 21.226562 -33.90625 20.097656 -33.71875 19.109375 -33.34375 C 18.117188 -32.976562 17.234375 -32.429688 16.453125 -31.703125 C 15.679688 -30.984375 14.984375 -30.085938 14.359375 -29.015625 C 13.734375 -27.941406 13.171875 -26.71875 12.671875 -25.34375 L 12.671875 0 L 5.578125 0 L 5.578125 -40.125 L 9.625 -40.125 C 10.394531 -40.125 10.921875 -39.976562 11.203125 -39.6875 C 11.492188 -39.394531 11.691406 -38.894531 11.796875 -38.1875 Z M 12.28125 -32.078125 "/></g></g></g><g fill="#ffffff" fill-opacity="1"><g transform="translate(280.608494, 504.628597)"><g><path d="M 13.03125 -40.125 L 13.03125 0 L 5.984375 0 L 5.984375 -40.125 Z M 14.53125 -52.71875 C 14.53125 -52.03125 14.390625 -51.390625 14.109375 -50.796875 C 13.835938 -50.203125 13.46875 -49.671875 13 -49.203125 C 12.539062 -48.742188 12 -48.382812 11.375 -48.125 C 10.757812 -47.863281 10.109375 -47.734375 9.421875 -47.734375 C 8.734375 -47.734375 8.09375 -47.863281 7.5 -48.125 C 6.90625 -48.382812 6.382812 -48.742188 5.9375 -49.203125 C 5.488281 -49.671875 5.128906 -50.203125 4.859375 -50.796875 C 4.597656 -51.390625 4.46875 -52.03125 4.46875 -52.71875 C 4.46875 -53.40625 4.597656 -54.054688 4.859375 -54.671875 C 5.128906 -55.296875 5.488281 -55.835938 5.9375 -56.296875 C 6.382812 -56.765625 6.90625 -57.128906 7.5 -57.390625 C 8.09375 -57.660156 8.734375 -57.796875 9.421875 -57.796875 C 10.109375 -57.796875 10.757812 -57.660156 11.375 -57.390625 C 12 -57.128906 12.539062 -56.765625 13 -56.296875 C 13.46875 -55.835938 13.835938 -55.296875 14.109375 -54.671875 C 14.390625 -54.054688 14.53125 -53.40625 14.53125 -52.71875 Z M 14.53125 -52.71875 "/></g></g></g><g fill="#ffffff" fill-opacity="1"><g transform="translate(197.924722, 612.338816)"><g><path d="M 36.28125 -47.890625 C 36.039062 -47.492188 35.78125 -47.195312 35.5 -47 C 35.226562 -46.800781 34.894531 -46.703125 34.5 -46.703125 C 34.050781 -46.703125 33.519531 -46.925781 32.90625 -47.375 C 32.300781 -47.820312 31.539062 -48.316406 30.625 -48.859375 C 29.71875 -49.398438 28.625 -49.894531 27.34375 -50.34375 C 26.0625 -50.789062 24.515625 -51.015625 22.703125 -51.015625 C 20.984375 -51.015625 19.46875 -50.78125 18.15625 -50.3125 C 16.851562 -49.851562 15.757812 -49.226562 14.875 -48.4375 C 13.988281 -47.644531 13.320312 -46.710938 12.875 -45.640625 C 12.425781 -44.578125 12.203125 -43.425781 12.203125 -42.1875 C 12.203125 -40.601562 12.585938 -39.285156 13.359375 -38.234375 C 14.140625 -37.191406 15.171875 -36.300781 16.453125 -35.5625 C 17.734375 -34.820312 19.1875 -34.179688 20.8125 -33.640625 C 22.4375 -33.109375 24.097656 -32.550781 25.796875 -31.96875 C 27.503906 -31.382812 29.171875 -30.726562 30.796875 -30 C 32.421875 -29.28125 33.875 -28.363281 35.15625 -27.25 C 36.4375 -26.144531 37.460938 -24.785156 38.234375 -23.171875 C 39.015625 -21.554688 39.40625 -19.578125 39.40625 -17.234375 C 39.40625 -14.742188 38.984375 -12.410156 38.140625 -10.234375 C 37.296875 -8.054688 36.0625 -6.160156 34.4375 -4.546875 C 32.8125 -2.941406 30.816406 -1.675781 28.453125 -0.75 C 26.097656 0.175781 23.414062 0.640625 20.40625 0.640625 C 16.707031 0.640625 13.351562 -0.0234375 10.34375 -1.359375 C 7.332031 -2.691406 4.753906 -4.492188 2.609375 -6.765625 L 4.828125 -10.421875 C 5.046875 -10.710938 5.304688 -10.957031 5.609375 -11.15625 C 5.910156 -11.351562 6.242188 -11.453125 6.609375 -11.453125 C 6.953125 -11.453125 7.34375 -11.3125 7.78125 -11.03125 C 8.21875 -10.75 8.710938 -10.394531 9.265625 -9.96875 C 9.816406 -9.550781 10.445312 -9.09375 11.15625 -8.59375 C 11.875 -8.09375 12.6875 -7.628906 13.59375 -7.203125 C 14.507812 -6.785156 15.546875 -6.4375 16.703125 -6.15625 C 17.867188 -5.882812 19.179688 -5.75 20.640625 -5.75 C 22.460938 -5.75 24.082031 -6 25.5 -6.5 C 26.925781 -7 28.132812 -7.703125 29.125 -8.609375 C 30.125 -9.523438 30.882812 -10.613281 31.40625 -11.875 C 31.9375 -13.144531 32.203125 -14.5625 32.203125 -16.125 C 32.203125 -17.84375 31.8125 -19.25 31.03125 -20.34375 C 30.25 -21.4375 29.222656 -22.351562 27.953125 -23.09375 C 26.691406 -23.832031 25.242188 -24.457031 23.609375 -24.96875 C 21.972656 -25.488281 20.304688 -26.019531 18.609375 -26.5625 C 16.921875 -27.101562 15.257812 -27.726562 13.625 -28.4375 C 11.988281 -29.15625 10.535156 -30.082031 9.265625 -31.21875 C 8.003906 -32.351562 6.984375 -33.769531 6.203125 -35.46875 C 5.421875 -37.175781 5.03125 -39.28125 5.03125 -41.78125 C 5.03125 -43.789062 5.421875 -45.734375 6.203125 -47.609375 C 6.984375 -49.484375 8.117188 -51.144531 9.609375 -52.59375 C 11.097656 -54.050781 12.929688 -55.210938 15.109375 -56.078125 C 17.285156 -56.953125 19.785156 -57.390625 22.609375 -57.390625 C 25.785156 -57.390625 28.671875 -56.890625 31.265625 -55.890625 C 33.867188 -54.890625 36.160156 -53.4375 38.140625 -51.53125 Z M 36.28125 -47.890625 "/></g></g></g><g fill="#ffffff" fill-opacity="1"><g transform="translate(240.898942, 612.338816)"><g><path d="M 27.328125 -18.0625 C 24.078125 -17.957031 21.3125 -17.695312 19.03125 -17.28125 C 16.75 -16.875 14.882812 -16.335938 13.4375 -15.671875 C 12 -15.015625 10.957031 -14.238281 10.3125 -13.34375 C 9.664062 -12.445312 9.34375 -11.445312 9.34375 -10.34375 C 9.34375 -9.28125 9.515625 -8.363281 9.859375 -7.59375 C 10.203125 -6.832031 10.671875 -6.207031 11.265625 -5.71875 C 11.859375 -5.226562 12.554688 -4.867188 13.359375 -4.640625 C 14.171875 -4.421875 15.039062 -4.3125 15.96875 -4.3125 C 17.207031 -4.3125 18.335938 -4.4375 19.359375 -4.6875 C 20.390625 -4.9375 21.359375 -5.300781 22.265625 -5.78125 C 23.179688 -6.257812 24.054688 -6.828125 24.890625 -7.484375 C 25.722656 -8.140625 26.535156 -8.894531 27.328125 -9.75 Z M 4.5625 -34.453125 C 6.769531 -36.597656 9.15625 -38.195312 11.71875 -39.25 C 14.28125 -40.3125 17.117188 -40.84375 20.234375 -40.84375 C 22.484375 -40.84375 24.476562 -40.472656 26.21875 -39.734375 C 27.957031 -38.992188 29.421875 -37.960938 30.609375 -36.640625 C 31.804688 -35.316406 32.707031 -33.71875 33.3125 -31.84375 C 33.914062 -29.96875 34.21875 -27.910156 34.21875 -25.671875 L 34.21875 0 L 31.09375 0 C 30.40625 0 29.875 -0.109375 29.5 -0.328125 C 29.132812 -0.554688 28.847656 -1 28.640625 -1.65625 L 27.84375 -5.46875 C 26.789062 -4.488281 25.757812 -3.625 24.75 -2.875 C 23.75 -2.125 22.691406 -1.488281 21.578125 -0.96875 C 20.472656 -0.457031 19.289062 -0.0625 18.03125 0.21875 C 16.78125 0.5 15.390625 0.640625 13.859375 0.640625 C 12.304688 0.640625 10.84375 0.421875 9.46875 -0.015625 C 8.09375 -0.453125 6.894531 -1.101562 5.875 -1.96875 C 4.863281 -2.84375 4.0625 -3.945312 3.46875 -5.28125 C 2.875 -6.613281 2.578125 -8.191406 2.578125 -10.015625 C 2.578125 -11.597656 3.007812 -13.125 3.875 -14.59375 C 4.75 -16.0625 6.160156 -17.363281 8.109375 -18.5 C 10.066406 -19.632812 12.617188 -20.5625 15.765625 -21.28125 C 18.910156 -22.007812 22.765625 -22.425781 27.328125 -22.53125 L 27.328125 -25.671875 C 27.328125 -28.785156 26.65625 -31.140625 25.3125 -32.734375 C 23.96875 -34.335938 22 -35.140625 19.40625 -35.140625 C 17.664062 -35.140625 16.207031 -34.921875 15.03125 -34.484375 C 13.851562 -34.046875 12.832031 -33.554688 11.96875 -33.015625 C 11.113281 -32.472656 10.375 -31.984375 9.75 -31.546875 C 9.132812 -31.109375 8.523438 -30.890625 7.921875 -30.890625 C 7.441406 -30.890625 7.03125 -31.015625 6.6875 -31.265625 C 6.34375 -31.515625 6.054688 -31.828125 5.828125 -32.203125 Z M 4.5625 -34.453125 "/></g></g></g><g fill="#ffffff" fill-opacity="1"><g transform="translate(280.268907, 612.338816)"><g><path d="M 17.90625 0.640625 C 14.738281 0.640625 12.300781 -0.242188 10.59375 -2.015625 C 8.894531 -3.785156 8.046875 -6.335938 8.046875 -9.671875 L 8.046875 -34.21875 L 3.203125 -34.21875 C 2.785156 -34.21875 2.429688 -34.34375 2.140625 -34.59375 C 1.847656 -34.84375 1.703125 -35.234375 1.703125 -35.765625 L 1.703125 -38.578125 L 8.28125 -39.40625 L 9.90625 -51.8125 C 9.976562 -52.207031 10.15625 -52.53125 10.4375 -52.78125 C 10.71875 -53.03125 11.082031 -53.15625 11.53125 -53.15625 L 15.09375 -53.15625 L 15.09375 -39.328125 L 26.703125 -39.328125 L 26.703125 -34.21875 L 15.09375 -34.21875 L 15.09375 -10.140625 C 15.09375 -8.453125 15.5 -7.195312 16.3125 -6.375 C 17.132812 -5.5625 18.191406 -5.15625 19.484375 -5.15625 C 20.222656 -5.15625 20.863281 -5.253906 21.40625 -5.453125 C 21.945312 -5.648438 22.414062 -5.863281 22.8125 -6.09375 C 23.207031 -6.332031 23.539062 -6.550781 23.8125 -6.75 C 24.09375 -6.945312 24.34375 -7.046875 24.5625 -7.046875 C 24.925781 -7.046875 25.253906 -6.820312 25.546875 -6.375 L 27.609375 -3.015625 C 26.390625 -1.878906 24.921875 -0.984375 23.203125 -0.328125 C 21.492188 0.316406 19.726562 0.640625 17.90625 0.640625 Z M 17.90625 0.640625 "/></g></g></g><g fill="#ffffff" fill-opacity="1"><g transform="translate(187.594754, 720.049034)"><g><path d="M 36.28125 -47.890625 C 36.039062 -47.492188 35.78125 -47.195312 35.5 -47 C 35.226562 -46.800781 34.894531 -46.703125 34.5 -46.703125 C 34.050781 -46.703125 33.519531 -46.925781 32.90625 -47.375 C 32.300781 -47.820312 31.539062 -48.316406 30.625 -48.859375 C 29.71875 -49.398438 28.625 -49.894531 27.34375 -50.34375 C 26.0625 -50.789062 24.515625 -51.015625 22.703125 -51.015625 C 20.984375 -51.015625 19.46875 -50.78125 18.15625 -50.3125 C 16.851562 -49.851562 15.757812 -49.226562 14.875 -48.4375 C 13.988281 -47.644531 13.320312 -46.710938 12.875 -45.640625 C 12.425781 -44.578125 12.203125 -43.425781 12.203125 -42.1875 C 12.203125 -40.601562 12.585938 -39.285156 13.359375 -38.234375 C 14.140625 -37.191406 15.171875 -36.300781 16.453125 -35.5625 C 17.734375 -34.820312 19.1875 -34.179688 20.8125 -33.640625 C 22.4375 -33.109375 24.097656 -32.550781 25.796875 -31.96875 C 27.503906 -31.382812 29.171875 -30.726562 30.796875 -30 C 32.421875 -29.28125 33.875 -28.363281 35.15625 -27.25 C 36.4375 -26.144531 37.460938 -24.785156 38.234375 -23.171875 C 39.015625 -21.554688 39.40625 -19.578125 39.40625 -17.234375 C 39.40625 -14.742188 38.984375 -12.410156 38.140625 -10.234375 C 37.296875 -8.054688 36.0625 -6.160156 34.4375 -4.546875 C 32.8125 -2.941406 30.816406 -1.675781 28.453125 -0.75 C 26.097656 0.175781 23.414062 0.640625 20.40625 0.640625 C 16.707031 0.640625 13.351562 -0.0234375 10.34375 -1.359375 C 7.332031 -2.691406 4.753906 -4.492188 2.609375 -6.765625 L 4.828125 -10.421875 C 5.046875 -10.710938 5.304688 -10.957031 5.609375 -11.15625 C 5.910156 -11.351562 6.242188 -11.453125 6.609375 -11.453125 C 6.953125 -11.453125 7.34375 -11.3125 7.78125 -11.03125 C 8.21875 -10.75 8.710938 -10.394531 9.265625 -9.96875 C 9.816406 -9.550781 10.445312 -9.09375 11.15625 -8.59375 C 11.875 -8.09375 12.6875 -7.628906 13.59375 -7.203125 C 14.507812 -6.785156 15.546875 -6.4375 16.703125 -6.15625 C 17.867188 -5.882812 19.179688 -5.75 20.640625 -5.75 C 22.460938 -5.75 24.082031 -6 25.5 -6.5 C 26.925781 -7 28.132812 -7.703125 29.125 -8.609375 C 30.125 -9.523438 30.882812 -10.613281 31.40625 -11.875 C 31.9375 -13.144531 32.203125 -14.5625 32.203125 -16.125 C 32.203125 -17.84375 31.8125 -19.25 31.03125 -20.34375 C 30.25 -21.4375 29.222656 -22.351562 27.953125 -23.09375 C 26.691406 -23.832031 25.242188 -24.457031 23.609375 -24.96875 C 21.972656 -25.488281 20.304688 -26.019531 18.609375 -26.5625 C 16.921875 -27.101562 15.257812 -27.726562 13.625 -28.4375 C 11.988281 -29.15625 10.535156 -30.082031 9.265625 -31.21875 C 8.003906 -32.351562 6.984375 -33.769531 6.203125 -35.46875 C 5.421875 -37.175781 5.03125 -39.28125 5.03125 -41.78125 C 5.03125 -43.789062 5.421875 -45.734375 6.203125 -47.609375 C 6.984375 -49.484375 8.117188 -51.144531 9.609375 -52.59375 C 11.097656 -54.050781 12.929688 -55.210938 15.109375 -56.078125 C 17.285156 -56.953125 19.785156 -57.390625 22.609375 -57.390625 C 25.785156 -57.390625 28.671875 -56.890625 31.265625 -55.890625 C 33.867188 -54.890625 36.160156 -53.4375 38.140625 -51.53125 Z M 36.28125 -47.890625 "/></g></g></g><g fill="#ffffff" fill-opacity="1"><g transform="translate(230.568975, 720.049034)"><g><path d="M 38.578125 -40.125 L 38.578125 0 L 34.375 0 C 33.375 0 32.742188 -0.488281 32.484375 -1.46875 L 31.921875 -5.78125 C 30.179688 -3.851562 28.226562 -2.300781 26.0625 -1.125 C 23.894531 0.0507812 21.410156 0.640625 18.609375 0.640625 C 16.421875 0.640625 14.488281 0.273438 12.8125 -0.453125 C 11.132812 -1.179688 9.726562 -2.203125 8.59375 -3.515625 C 7.457031 -4.835938 6.601562 -6.4375 6.03125 -8.3125 C 5.46875 -10.1875 5.1875 -12.257812 5.1875 -14.53125 L 5.1875 -40.125 L 12.234375 -40.125 L 12.234375 -14.53125 C 12.234375 -11.5 12.925781 -9.148438 14.3125 -7.484375 C 15.695312 -5.816406 17.816406 -4.984375 20.671875 -4.984375 C 22.765625 -4.984375 24.710938 -5.476562 26.515625 -6.46875 C 28.328125 -7.46875 30 -8.835938 31.53125 -10.578125 L 31.53125 -40.125 Z M 38.578125 -40.125 "/></g></g></g><g fill="#ffffff" fill-opacity="1"><g transform="translate(274.731466, 720.049034)"><g><path d="M 12.234375 -34.296875 C 13.109375 -35.273438 14.035156 -36.160156 15.015625 -36.953125 C 15.992188 -37.742188 17.03125 -38.421875 18.125 -38.984375 C 19.21875 -39.554688 20.378906 -39.992188 21.609375 -40.296875 C 22.835938 -40.609375 24.164062 -40.765625 25.59375 -40.765625 C 27.78125 -40.765625 29.710938 -40.398438 31.390625 -39.671875 C 33.066406 -38.941406 34.460938 -37.910156 35.578125 -36.578125 C 36.703125 -35.242188 37.554688 -33.640625 38.140625 -31.765625 C 38.722656 -29.890625 39.015625 -27.816406 39.015625 -25.546875 L 39.015625 0 L 31.921875 0 L 31.921875 -25.546875 C 31.921875 -28.585938 31.226562 -30.945312 29.84375 -32.625 C 28.457031 -34.300781 26.351562 -35.140625 23.53125 -35.140625 C 21.445312 -35.140625 19.5 -34.632812 17.6875 -33.625 C 15.875 -32.625 14.203125 -31.265625 12.671875 -29.546875 L 12.671875 0 L 5.578125 0 L 5.578125 -40.125 L 9.828125 -40.125 C 10.828125 -40.125 11.445312 -39.632812 11.6875 -38.65625 Z M 12.234375 -34.296875 "/></g></g></g><g fill="#ffffff" fill-opacity="1"><g transform="translate(770.185711, 73.787722)"><g><path d="M 11.203125 -40.078125 C 11.203125 -38.285156 11.457031 -36.679688 11.96875 -35.265625 C 12.488281 -33.859375 13.226562 -32.664062 14.1875 -31.6875 C 15.15625 -30.707031 16.332031 -29.96875 17.71875 -29.46875 C 19.113281 -28.96875 20.664062 -28.71875 22.375 -28.71875 C 24.28125 -28.71875 25.960938 -29.023438 27.421875 -29.640625 C 28.890625 -30.265625 30.125 -31.09375 31.125 -32.125 C 32.132812 -33.15625 32.898438 -34.34375 33.421875 -35.6875 C 33.953125 -37.03125 34.21875 -38.429688 34.21875 -39.890625 C 34.21875 -41.660156 33.929688 -43.265625 33.359375 -44.703125 C 32.796875 -46.140625 32.015625 -47.359375 31.015625 -48.359375 C 30.015625 -49.367188 28.816406 -50.144531 27.421875 -50.6875 C 26.035156 -51.226562 24.515625 -51.5 22.859375 -51.5 C 21.109375 -51.5 19.519531 -51.210938 18.09375 -50.640625 C 16.675781 -50.066406 15.453125 -49.28125 14.421875 -48.28125 C 13.390625 -47.28125 12.59375 -46.078125 12.03125 -44.671875 C 11.476562 -43.273438 11.203125 -41.742188 11.203125 -40.078125 Z M 27.6875 -22.609375 C 28.269531 -23.378906 28.8125 -24.109375 29.3125 -24.796875 C 29.8125 -25.484375 30.285156 -26.171875 30.734375 -26.859375 C 29.285156 -25.691406 27.648438 -24.804688 25.828125 -24.203125 C 24.003906 -23.597656 22.078125 -23.296875 20.046875 -23.296875 C 17.898438 -23.296875 15.867188 -23.648438 13.953125 -24.359375 C 12.046875 -25.066406 10.363281 -26.113281 8.90625 -27.5 C 7.457031 -28.894531 6.300781 -30.601562 5.4375 -32.625 C 4.582031 -34.644531 4.15625 -36.957031 4.15625 -39.5625 C 4.15625 -42.050781 4.617188 -44.375 5.546875 -46.53125 C 6.472656 -48.695312 7.765625 -50.585938 9.421875 -52.203125 C 11.085938 -53.816406 13.066406 -55.082031 15.359375 -56 C 17.660156 -56.925781 20.1875 -57.390625 22.9375 -57.390625 C 25.65625 -57.390625 28.125 -56.941406 30.34375 -56.046875 C 32.5625 -55.148438 34.460938 -53.894531 36.046875 -52.28125 C 37.628906 -50.675781 38.847656 -48.75 39.703125 -46.5 C 40.566406 -44.257812 41 -41.78125 41 -39.0625 C 41 -37.414062 40.84375 -35.859375 40.53125 -34.390625 C 40.226562 -32.929688 39.789062 -31.492188 39.21875 -30.078125 C 38.65625 -28.671875 37.960938 -27.273438 37.140625 -25.890625 C 36.328125 -24.503906 35.40625 -23.082031 34.375 -21.625 L 20.5625 -1.65625 C 20.21875 -1.15625 19.726562 -0.753906 19.09375 -0.453125 C 18.457031 -0.148438 17.726562 0 16.90625 0 L 10.421875 0 Z M 27.6875 -22.609375 "/></g></g></g><g fill="#ffffff" fill-opacity="1"><g transform="translate(816.130522, 73.787722)"><g><path d="M 4.953125 -26.734375 L 24.515625 -26.734375 L 24.515625 -20.75 L 4.953125 -20.75 Z M 4.953125 -26.734375 "/></g></g></g><g fill="#ffffff" fill-opacity="1"><g transform="translate(845.558959, 73.787722)"><g><path d="M 14.34375 -35.328125 C 17.300781 -35.960938 20.019531 -36.28125 22.5 -36.28125 C 25.457031 -36.28125 28.070312 -35.84375 30.34375 -34.96875 C 32.613281 -34.101562 34.503906 -32.90625 36.015625 -31.375 C 37.535156 -29.84375 38.6875 -28.03125 39.46875 -25.9375 C 40.25 -23.851562 40.640625 -21.582031 40.640625 -19.125 C 40.640625 -16.113281 40.117188 -13.394531 39.078125 -10.96875 C 38.035156 -8.539062 36.59375 -6.460938 34.75 -4.734375 C 32.914062 -3.003906 30.757812 -1.675781 28.28125 -0.75 C 25.800781 0.175781 23.117188 0.640625 20.234375 0.640625 C 18.578125 0.640625 16.984375 0.472656 15.453125 0.140625 C 13.921875 -0.191406 12.488281 -0.632812 11.15625 -1.1875 C 9.820312 -1.738281 8.585938 -2.367188 7.453125 -3.078125 C 6.316406 -3.796875 5.3125 -4.550781 4.4375 -5.34375 L 6.609375 -8.359375 C 7.085938 -9.046875 7.707031 -9.390625 8.46875 -9.390625 C 9 -9.390625 9.59375 -9.179688 10.25 -8.765625 C 10.914062 -8.359375 11.722656 -7.90625 12.671875 -7.40625 C 13.617188 -6.90625 14.734375 -6.445312 16.015625 -6.03125 C 17.296875 -5.625 18.820312 -5.421875 20.59375 -5.421875 C 22.570312 -5.421875 24.351562 -5.738281 25.9375 -6.375 C 27.53125 -7.007812 28.894531 -7.914062 30.03125 -9.09375 C 31.164062 -10.269531 32.035156 -11.675781 32.640625 -13.3125 C 33.242188 -14.945312 33.546875 -16.78125 33.546875 -18.8125 C 33.546875 -20.582031 33.285156 -22.179688 32.765625 -23.609375 C 32.253906 -25.035156 31.476562 -26.25 30.4375 -27.25 C 29.394531 -28.25 28.09375 -29.023438 26.53125 -29.578125 C 24.976562 -30.140625 23.160156 -30.421875 21.078125 -30.421875 C 19.648438 -30.421875 18.160156 -30.300781 16.609375 -30.0625 C 15.066406 -29.820312 13.492188 -29.441406 11.890625 -28.921875 L 7.453125 -30.21875 L 12 -56.765625 L 38.890625 -56.765625 L 38.890625 -53.671875 C 38.890625 -52.671875 38.578125 -51.84375 37.953125 -51.1875 C 37.335938 -50.539062 36.28125 -50.21875 34.78125 -50.21875 L 16.953125 -50.21875 Z M 14.34375 -35.328125 "/></g></g></g><g fill="#ffffff" fill-opacity="1"><g transform="translate(770.185711, 181.497941)"><g><path d="M 11.203125 -40.078125 C 11.203125 -38.285156 11.457031 -36.679688 11.96875 -35.265625 C 12.488281 -33.859375 13.226562 -32.664062 14.1875 -31.6875 C 15.15625 -30.707031 16.332031 -29.96875 17.71875 -29.46875 C 19.113281 -28.96875 20.664062 -28.71875 22.375 -28.71875 C 24.28125 -28.71875 25.960938 -29.023438 27.421875 -29.640625 C 28.890625 -30.265625 30.125 -31.09375 31.125 -32.125 C 32.132812 -33.15625 32.898438 -34.34375 33.421875 -35.6875 C 33.953125 -37.03125 34.21875 -38.429688 34.21875 -39.890625 C 34.21875 -41.660156 33.929688 -43.265625 33.359375 -44.703125 C 32.796875 -46.140625 32.015625 -47.359375 31.015625 -48.359375 C 30.015625 -49.367188 28.816406 -50.144531 27.421875 -50.6875 C 26.035156 -51.226562 24.515625 -51.5 22.859375 -51.5 C 21.109375 -51.5 19.519531 -51.210938 18.09375 -50.640625 C 16.675781 -50.066406 15.453125 -49.28125 14.421875 -48.28125 C 13.390625 -47.28125 12.59375 -46.078125 12.03125 -44.671875 C 11.476562 -43.273438 11.203125 -41.742188 11.203125 -40.078125 Z M 27.6875 -22.609375 C 28.269531 -23.378906 28.8125 -24.109375 29.3125 -24.796875 C 29.8125 -25.484375 30.285156 -26.171875 30.734375 -26.859375 C 29.285156 -25.691406 27.648438 -24.804688 25.828125 -24.203125 C 24.003906 -23.597656 22.078125 -23.296875 20.046875 -23.296875 C 17.898438 -23.296875 15.867188 -23.648438 13.953125 -24.359375 C 12.046875 -25.066406 10.363281 -26.113281 8.90625 -27.5 C 7.457031 -28.894531 6.300781 -30.601562 5.4375 -32.625 C 4.582031 -34.644531 4.15625 -36.957031 4.15625 -39.5625 C 4.15625 -42.050781 4.617188 -44.375 5.546875 -46.53125 C 6.472656 -48.695312 7.765625 -50.585938 9.421875 -52.203125 C 11.085938 -53.816406 13.066406 -55.082031 15.359375 -56 C 17.660156 -56.925781 20.1875 -57.390625 22.9375 -57.390625 C 25.65625 -57.390625 28.125 -56.941406 30.34375 -56.046875 C 32.5625 -55.148438 34.460938 -53.894531 36.046875 -52.28125 C 37.628906 -50.675781 38.847656 -48.75 39.703125 -46.5 C 40.566406 -44.257812 41 -41.78125 41 -39.0625 C 41 -37.414062 40.84375 -35.859375 40.53125 -34.390625 C 40.226562 -32.929688 39.789062 -31.492188 39.21875 -30.078125 C 38.65625 -28.671875 37.960938 -27.273438 37.140625 -25.890625 C 36.328125 -24.503906 35.40625 -23.082031 34.375 -21.625 L 20.5625 -1.65625 C 20.21875 -1.15625 19.726562 -0.753906 19.09375 -0.453125 C 18.457031 -0.148438 17.726562 0 16.90625 0 L 10.421875 0 Z M 27.6875 -22.609375 "/></g></g></g><g fill="#ffffff" fill-opacity="1"><g transform="translate(816.130522, 181.497941)"><g><path d="M 4.953125 -26.734375 L 24.515625 -26.734375 L 24.515625 -20.75 L 4.953125 -20.75 Z M 4.953125 -26.734375 "/></g></g></g><g fill="#ffffff" fill-opacity="1"><g transform="translate(845.558959, 181.497941)"><g><path d="M 14.34375 -35.328125 C 17.300781 -35.960938 20.019531 -36.28125 22.5 -36.28125 C 25.457031 -36.28125 28.070312 -35.84375 30.34375 -34.96875 C 32.613281 -34.101562 34.503906 -32.90625 36.015625 -31.375 C 37.535156 -29.84375 38.6875 -28.03125 39.46875 -25.9375 C 40.25 -23.851562 40.640625 -21.582031 40.640625 -19.125 C 40.640625 -16.113281 40.117188 -13.394531 39.078125 -10.96875 C 38.035156 -8.539062 36.59375 -6.460938 34.75 -4.734375 C 32.914062 -3.003906 30.757812 -1.675781 28.28125 -0.75 C 25.800781 0.175781 23.117188 0.640625 20.234375 0.640625 C 18.578125 0.640625 16.984375 0.472656 15.453125 0.140625 C 13.921875 -0.191406 12.488281 -0.632812 11.15625 -1.1875 C 9.820312 -1.738281 8.585938 -2.367188 7.453125 -3.078125 C 6.316406 -3.796875 5.3125 -4.550781 4.4375 -5.34375 L 6.609375 -8.359375 C 7.085938 -9.046875 7.707031 -9.390625 8.46875 -9.390625 C 9 -9.390625 9.59375 -9.179688 10.25 -8.765625 C 10.914062 -8.359375 11.722656 -7.90625 12.671875 -7.40625 C 13.617188 -6.90625 14.734375 -6.445312 16.015625 -6.03125 C 17.296875 -5.625 18.820312 -5.421875 20.59375 -5.421875 C 22.570312 -5.421875 24.351562 -5.738281 25.9375 -6.375 C 27.53125 -7.007812 28.894531 -7.914062 30.03125 -9.09375 C 31.164062 -10.269531 32.035156 -11.675781 32.640625 -13.3125 C 33.242188 -14.945312 33.546875 -16.78125 33.546875 -18.8125 C 33.546875 -20.582031 33.285156 -22.179688 32.765625 -23.609375 C 32.253906 -25.035156 31.476562 -26.25 30.4375 -27.25 C 29.394531 -28.25 28.09375 -29.023438 26.53125 -29.578125 C 24.976562 -30.140625 23.160156 -30.421875 21.078125 -30.421875 C 19.648438 -30.421875 18.160156 -30.300781 16.609375 -30.0625 C 15.066406 -29.820312 13.492188 -29.441406 11.890625 -28.921875 L 7.453125 -30.21875 L 12 -56.765625 L 38.890625 -56.765625 L 38.890625 -53.671875 C 38.890625 -52.671875 38.578125 -51.84375 37.953125 -51.1875 C 37.335938 -50.539062 36.28125 -50.21875 34.78125 -50.21875 L 16.953125 -50.21875 Z M 14.34375 -35.328125 "/></g></g></g><g fill="#ffffff" fill-opacity="1"><g transform="translate(770.185711, 289.20816)"><g><path d="M 11.203125 -40.078125 C 11.203125 -38.285156 11.457031 -36.679688 11.96875 -35.265625 C 12.488281 -33.859375 13.226562 -32.664062 14.1875 -31.6875 C 15.15625 -30.707031 16.332031 -29.96875 17.71875 -29.46875 C 19.113281 -28.96875 20.664062 -28.71875 22.375 -28.71875 C 24.28125 -28.71875 25.960938 -29.023438 27.421875 -29.640625 C 28.890625 -30.265625 30.125 -31.09375 31.125 -32.125 C 32.132812 -33.15625 32.898438 -34.34375 33.421875 -35.6875 C 33.953125 -37.03125 34.21875 -38.429688 34.21875 -39.890625 C 34.21875 -41.660156 33.929688 -43.265625 33.359375 -44.703125 C 32.796875 -46.140625 32.015625 -47.359375 31.015625 -48.359375 C 30.015625 -49.367188 28.816406 -50.144531 27.421875 -50.6875 C 26.035156 -51.226562 24.515625 -51.5 22.859375 -51.5 C 21.109375 -51.5 19.519531 -51.210938 18.09375 -50.640625 C 16.675781 -50.066406 15.453125 -49.28125 14.421875 -48.28125 C 13.390625 -47.28125 12.59375 -46.078125 12.03125 -44.671875 C 11.476562 -43.273438 11.203125 -41.742188 11.203125 -40.078125 Z M 27.6875 -22.609375 C 28.269531 -23.378906 28.8125 -24.109375 29.3125 -24.796875 C 29.8125 -25.484375 30.285156 -26.171875 30.734375 -26.859375 C 29.285156 -25.691406 27.648438 -24.804688 25.828125 -24.203125 C 24.003906 -23.597656 22.078125 -23.296875 20.046875 -23.296875 C 17.898438 -23.296875 15.867188 -23.648438 13.953125 -24.359375 C 12.046875 -25.066406 10.363281 -26.113281 8.90625 -27.5 C 7.457031 -28.894531 6.300781 -30.601562 5.4375 -32.625 C 4.582031 -34.644531 4.15625 -36.957031 4.15625 -39.5625 C 4.15625 -42.050781 4.617188 -44.375 5.546875 -46.53125 C 6.472656 -48.695312 7.765625 -50.585938 9.421875 -52.203125 C 11.085938 -53.816406 13.066406 -55.082031 15.359375 -56 C 17.660156 -56.925781 20.1875 -57.390625 22.9375 -57.390625 C 25.65625 -57.390625 28.125 -56.941406 30.34375 -56.046875 C 32.5625 -55.148438 34.460938 -53.894531 36.046875 -52.28125 C 37.628906 -50.675781 38.847656 -48.75 39.703125 -46.5 C 40.566406 -44.257812 41 -41.78125 41 -39.0625 C 41 -37.414062 40.84375 -35.859375 40.53125 -34.390625 C 40.226562 -32.929688 39.789062 -31.492188 39.21875 -30.078125 C 38.65625 -28.671875 37.960938 -27.273438 37.140625 -25.890625 C 36.328125 -24.503906 35.40625 -23.082031 34.375 -21.625 L 20.5625 -1.65625 C 20.21875 -1.15625 19.726562 -0.753906 19.09375 -0.453125 C 18.457031 -0.148438 17.726562 0 16.90625 0 L 10.421875 0 Z M 27.6875 -22.609375 "/></g></g></g><g fill="#ffffff" fill-opacity="1"><g transform="translate(816.130522, 289.20816)"><g><path d="M 4.953125 -26.734375 L 24.515625 -26.734375 L 24.515625 -20.75 L 4.953125 -20.75 Z M 4.953125 -26.734375 "/></g></g></g><g fill="#ffffff" fill-opacity="1"><g transform="translate(845.558959, 289.20816)"><g><path d="M 14.34375 -35.328125 C 17.300781 -35.960938 20.019531 -36.28125 22.5 -36.28125 C 25.457031 -36.28125 28.070312 -35.84375 30.34375 -34.96875 C 32.613281 -34.101562 34.503906 -32.90625 36.015625 -31.375 C 37.535156 -29.84375 38.6875 -28.03125 39.46875 -25.9375 C 40.25 -23.851562 40.640625 -21.582031 40.640625 -19.125 C 40.640625 -16.113281 40.117188 -13.394531 39.078125 -10.96875 C 38.035156 -8.539062 36.59375 -6.460938 34.75 -4.734375 C 32.914062 -3.003906 30.757812 -1.675781 28.28125 -0.75 C 25.800781 0.175781 23.117188 0.640625 20.234375 0.640625 C 18.578125 0.640625 16.984375 0.472656 15.453125 0.140625 C 13.921875 -0.191406 12.488281 -0.632812 11.15625 -1.1875 C 9.820312 -1.738281 8.585938 -2.367188 7.453125 -3.078125 C 6.316406 -3.796875 5.3125 -4.550781 4.4375 -5.34375 L 6.609375 -8.359375 C 7.085938 -9.046875 7.707031 -9.390625 8.46875 -9.390625 C 9 -9.390625 9.59375 -9.179688 10.25 -8.765625 C 10.914062 -8.359375 11.722656 -7.90625 12.671875 -7.40625 C 13.617188 -6.90625 14.734375 -6.445312 16.015625 -6.03125 C 17.296875 -5.625 18.820312 -5.421875 20.59375 -5.421875 C 22.570312 -5.421875 24.351562 -5.738281 25.9375 -6.375 C 27.53125 -7.007812 28.894531 -7.914062 30.03125 -9.09375 C 31.164062 -10.269531 32.035156 -11.675781 32.640625 -13.3125 C 33.242188 -14.945312 33.546875 -16.78125 33.546875 -18.8125 C 33.546875 -20.582031 33.285156 -22.179688 32.765625 -23.609375 C 32.253906 -25.035156 31.476562 -26.25 30.4375 -27.25 C 29.394531 -28.25 28.09375 -29.023438 26.53125 -29.578125 C 24.976562 -30.140625 23.160156 -30.421875 21.078125 -30.421875 C 19.648438 -30.421875 18.160156 -30.300781 16.609375 -30.0625 C 15.066406 -29.820312 13.492188 -29.441406 11.890625 -28.921875 L 7.453125 -30.21875 L 12 -56.765625 L 38.890625 -56.765625 L 38.890625 -53.671875 C 38.890625 -52.671875 38.578125 -51.84375 37.953125 -51.1875 C 37.335938 -50.539062 36.28125 -50.21875 34.78125 -50.21875 L 16.953125 -50.21875 Z M 14.34375 -35.328125 "/></g></g></g><g fill="#ffffff" fill-opacity="1"><g transform="translate(770.185711, 396.918378)"><g><path d="M 11.203125 -40.078125 C 11.203125 -38.285156 11.457031 -36.679688 11.96875 -35.265625 C 12.488281 -33.859375 13.226562 -32.664062 14.1875 -31.6875 C 15.15625 -30.707031 16.332031 -29.96875 17.71875 -29.46875 C 19.113281 -28.96875 20.664062 -28.71875 22.375 -28.71875 C 24.28125 -28.71875 25.960938 -29.023438 27.421875 -29.640625 C 28.890625 -30.265625 30.125 -31.09375 31.125 -32.125 C 32.132812 -33.15625 32.898438 -34.34375 33.421875 -35.6875 C 33.953125 -37.03125 34.21875 -38.429688 34.21875 -39.890625 C 34.21875 -41.660156 33.929688 -43.265625 33.359375 -44.703125 C 32.796875 -46.140625 32.015625 -47.359375 31.015625 -48.359375 C 30.015625 -49.367188 28.816406 -50.144531 27.421875 -50.6875 C 26.035156 -51.226562 24.515625 -51.5 22.859375 -51.5 C 21.109375 -51.5 19.519531 -51.210938 18.09375 -50.640625 C 16.675781 -50.066406 15.453125 -49.28125 14.421875 -48.28125 C 13.390625 -47.28125 12.59375 -46.078125 12.03125 -44.671875 C 11.476562 -43.273438 11.203125 -41.742188 11.203125 -40.078125 Z M 27.6875 -22.609375 C 28.269531 -23.378906 28.8125 -24.109375 29.3125 -24.796875 C 29.8125 -25.484375 30.285156 -26.171875 30.734375 -26.859375 C 29.285156 -25.691406 27.648438 -24.804688 25.828125 -24.203125 C 24.003906 -23.597656 22.078125 -23.296875 20.046875 -23.296875 C 17.898438 -23.296875 15.867188 -23.648438 13.953125 -24.359375 C 12.046875 -25.066406 10.363281 -26.113281 8.90625 -27.5 C 7.457031 -28.894531 6.300781 -30.601562 5.4375 -32.625 C 4.582031 -34.644531 4.15625 -36.957031 4.15625 -39.5625 C 4.15625 -42.050781 4.617188 -44.375 5.546875 -46.53125 C 6.472656 -48.695312 7.765625 -50.585938 9.421875 -52.203125 C 11.085938 -53.816406 13.066406 -55.082031 15.359375 -56 C 17.660156 -56.925781 20.1875 -57.390625 22.9375 -57.390625 C 25.65625 -57.390625 28.125 -56.941406 30.34375 -56.046875 C 32.5625 -55.148438 34.460938 -53.894531 36.046875 -52.28125 C 37.628906 -50.675781 38.847656 -48.75 39.703125 -46.5 C 40.566406 -44.257812 41 -41.78125 41 -39.0625 C 41 -37.414062 40.84375 -35.859375 40.53125 -34.390625 C 40.226562 -32.929688 39.789062 -31.492188 39.21875 -30.078125 C 38.65625 -28.671875 37.960938 -27.273438 37.140625 -25.890625 C 36.328125 -24.503906 35.40625 -23.082031 34.375 -21.625 L 20.5625 -1.65625 C 20.21875 -1.15625 19.726562 -0.753906 19.09375 -0.453125 C 18.457031 -0.148438 17.726562 0 16.90625 0 L 10.421875 0 Z M 27.6875 -22.609375 "/></g></g></g><g fill="#ffffff" fill-opacity="1"><g transform="translate(816.130522, 396.918378)"><g><path d="M 4.953125 -26.734375 L 24.515625 -26.734375 L 24.515625 -20.75 L 4.953125 -20.75 Z M 4.953125 -26.734375 "/></g></g></g><g fill="#ffffff" fill-opacity="1"><g transform="translate(845.558959, 396.918378)"><g><path d="M 14.34375 -35.328125 C 17.300781 -35.960938 20.019531 -36.28125 22.5 -36.28125 C 25.457031 -36.28125 28.070312 -35.84375 30.34375 -34.96875 C 32.613281 -34.101562 34.503906 -32.90625 36.015625 -31.375 C 37.535156 -29.84375 38.6875 -28.03125 39.46875 -25.9375 C 40.25 -23.851562 40.640625 -21.582031 40.640625 -19.125 C 40.640625 -16.113281 40.117188 -13.394531 39.078125 -10.96875 C 38.035156 -8.539062 36.59375 -6.460938 34.75 -4.734375 C 32.914062 -3.003906 30.757812 -1.675781 28.28125 -0.75 C 25.800781 0.175781 23.117188 0.640625 20.234375 0.640625 C 18.578125 0.640625 16.984375 0.472656 15.453125 0.140625 C 13.921875 -0.191406 12.488281 -0.632812 11.15625 -1.1875 C 9.820312 -1.738281 8.585938 -2.367188 7.453125 -3.078125 C 6.316406 -3.796875 5.3125 -4.550781 4.4375 -5.34375 L 6.609375 -8.359375 C 7.085938 -9.046875 7.707031 -9.390625 8.46875 -9.390625 C 9 -9.390625 9.59375 -9.179688 10.25 -8.765625 C 10.914062 -8.359375 11.722656 -7.90625 12.671875 -7.40625 C 13.617188 -6.90625 14.734375 -6.445312 16.015625 -6.03125 C 17.296875 -5.625 18.820312 -5.421875 20.59375 -5.421875 C 22.570312 -5.421875 24.351562 -5.738281 25.9375 -6.375 C 27.53125 -7.007812 28.894531 -7.914062 30.03125 -9.09375 C 31.164062 -10.269531 32.035156 -11.675781 32.640625 -13.3125 C 33.242188 -14.945312 33.546875 -16.78125 33.546875 -18.8125 C 33.546875 -20.582031 33.285156 -22.179688 32.765625 -23.609375 C 32.253906 -25.035156 31.476562 -26.25 30.4375 -27.25 C 29.394531 -28.25 28.09375 -29.023438 26.53125 -29.578125 C 24.976562 -30.140625 23.160156 -30.421875 21.078125 -30.421875 C 19.648438 -30.421875 18.160156 -30.300781 16.609375 -30.0625 C 15.066406 -29.820312 13.492188 -29.441406 11.890625 -28.921875 L 7.453125 -30.21875 L 12 -56.765625 L 38.890625 -56.765625 L 38.890625 -53.671875 C 38.890625 -52.671875 38.578125 -51.84375 37.953125 -51.1875 C 37.335938 -50.539062 36.28125 -50.21875 34.78125 -50.21875 L 16.953125 -50.21875 Z M 14.34375 -35.328125 "/></g></g></g><g fill="#ffffff" fill-opacity="1"><g transform="translate(770.185711, 504.628597)"><g><path d="M 11.203125 -40.078125 C 11.203125 -38.285156 11.457031 -36.679688 11.96875 -35.265625 C 12.488281 -33.859375 13.226562 -32.664062 14.1875 -31.6875 C 15.15625 -30.707031 16.332031 -29.96875 17.71875 -29.46875 C 19.113281 -28.96875 20.664062 -28.71875 22.375 -28.71875 C 24.28125 -28.71875 25.960938 -29.023438 27.421875 -29.640625 C 28.890625 -30.265625 30.125 -31.09375 31.125 -32.125 C 32.132812 -33.15625 32.898438 -34.34375 33.421875 -35.6875 C 33.953125 -37.03125 34.21875 -38.429688 34.21875 -39.890625 C 34.21875 -41.660156 33.929688 -43.265625 33.359375 -44.703125 C 32.796875 -46.140625 32.015625 -47.359375 31.015625 -48.359375 C 30.015625 -49.367188 28.816406 -50.144531 27.421875 -50.6875 C 26.035156 -51.226562 24.515625 -51.5 22.859375 -51.5 C 21.109375 -51.5 19.519531 -51.210938 18.09375 -50.640625 C 16.675781 -50.066406 15.453125 -49.28125 14.421875 -48.28125 C 13.390625 -47.28125 12.59375 -46.078125 12.03125 -44.671875 C 11.476562 -43.273438 11.203125 -41.742188 11.203125 -40.078125 Z M 27.6875 -22.609375 C 28.269531 -23.378906 28.8125 -24.109375 29.3125 -24.796875 C 29.8125 -25.484375 30.285156 -26.171875 30.734375 -26.859375 C 29.285156 -25.691406 27.648438 -24.804688 25.828125 -24.203125 C 24.003906 -23.597656 22.078125 -23.296875 20.046875 -23.296875 C 17.898438 -23.296875 15.867188 -23.648438 13.953125 -24.359375 C 12.046875 -25.066406 10.363281 -26.113281 8.90625 -27.5 C 7.457031 -28.894531 6.300781 -30.601562 5.4375 -32.625 C 4.582031 -34.644531 4.15625 -36.957031 4.15625 -39.5625 C 4.15625 -42.050781 4.617188 -44.375 5.546875 -46.53125 C 6.472656 -48.695312 7.765625 -50.585938 9.421875 -52.203125 C 11.085938 -53.816406 13.066406 -55.082031 15.359375 -56 C 17.660156 -56.925781 20.1875 -57.390625 22.9375 -57.390625 C 25.65625 -57.390625 28.125 -56.941406 30.34375 -56.046875 C 32.5625 -55.148438 34.460938 -53.894531 36.046875 -52.28125 C 37.628906 -50.675781 38.847656 -48.75 39.703125 -46.5 C 40.566406 -44.257812 41 -41.78125 41 -39.0625 C 41 -37.414062 40.84375 -35.859375 40.53125 -34.390625 C 40.226562 -32.929688 39.789062 -31.492188 39.21875 -30.078125 C 38.65625 -28.671875 37.960938 -27.273438 37.140625 -25.890625 C 36.328125 -24.503906 35.40625 -23.082031 34.375 -21.625 L 20.5625 -1.65625 C 20.21875 -1.15625 19.726562 -0.753906 19.09375 -0.453125 C 18.457031 -0.148438 17.726562 0 16.90625 0 L 10.421875 0 Z M 27.6875 -22.609375 "/></g></g></g><g fill="#ffffff" fill-opacity="1"><g transform="translate(816.130522, 504.628597)"><g><path d="M 4.953125 -26.734375 L 24.515625 -26.734375 L 24.515625 -20.75 L 4.953125 -20.75 Z M 4.953125 -26.734375 "/></g></g></g><g fill="#ffffff" fill-opacity="1"><g transform="translate(845.558959, 504.628597)"><g><path d="M 14.34375 -35.328125 C 17.300781 -35.960938 20.019531 -36.28125 22.5 -36.28125 C 25.457031 -36.28125 28.070312 -35.84375 30.34375 -34.96875 C 32.613281 -34.101562 34.503906 -32.90625 36.015625 -31.375 C 37.535156 -29.84375 38.6875 -28.03125 39.46875 -25.9375 C 40.25 -23.851562 40.640625 -21.582031 40.640625 -19.125 C 40.640625 -16.113281 40.117188 -13.394531 39.078125 -10.96875 C 38.035156 -8.539062 36.59375 -6.460938 34.75 -4.734375 C 32.914062 -3.003906 30.757812 -1.675781 28.28125 -0.75 C 25.800781 0.175781 23.117188 0.640625 20.234375 0.640625 C 18.578125 0.640625 16.984375 0.472656 15.453125 0.140625 C 13.921875 -0.191406 12.488281 -0.632812 11.15625 -1.1875 C 9.820312 -1.738281 8.585938 -2.367188 7.453125 -3.078125 C 6.316406 -3.796875 5.3125 -4.550781 4.4375 -5.34375 L 6.609375 -8.359375 C 7.085938 -9.046875 7.707031 -9.390625 8.46875 -9.390625 C 9 -9.390625 9.59375 -9.179688 10.25 -8.765625 C 10.914062 -8.359375 11.722656 -7.90625 12.671875 -7.40625 C 13.617188 -6.90625 14.734375 -6.445312 16.015625 -6.03125 C 17.296875 -5.625 18.820312 -5.421875 20.59375 -5.421875 C 22.570312 -5.421875 24.351562 -5.738281 25.9375 -6.375 C 27.53125 -7.007812 28.894531 -7.914062 30.03125 -9.09375 C 31.164062 -10.269531 32.035156 -11.675781 32.640625 -13.3125 C 33.242188 -14.945312 33.546875 -16.78125 33.546875 -18.8125 C 33.546875 -20.582031 33.285156 -22.179688 32.765625 -23.609375 C 32.253906 -25.035156 31.476562 -26.25 30.4375 -27.25 C 29.394531 -28.25 28.09375 -29.023438 26.53125 -29.578125 C 24.976562 -30.140625 23.160156 -30.421875 21.078125 -30.421875 C 19.648438 -30.421875 18.160156 -30.300781 16.609375 -30.0625 C 15.066406 -29.820312 13.492188 -29.441406 11.890625 -28.921875 L 7.453125 -30.21875 L 12 -56.765625 L 38.890625 -56.765625 L 38.890625 -53.671875 C 38.890625 -52.671875 38.578125 -51.84375 37.953125 -51.1875 C 37.335938 -50.539062 36.28125 -50.21875 34.78125 -50.21875 L 16.953125 -50.21875 Z M 14.34375 -35.328125 "/></g></g></g><g fill="#ffffff" fill-opacity="1"><g transform="translate(770.185711, 612.338816)"><g><path d="M 39.09375 -6.6875 C 39.863281 -6.6875 40.472656 -6.460938 40.921875 -6.015625 C 41.367188 -5.566406 41.59375 -4.988281 41.59375 -4.28125 L 41.59375 0 L 3.71875 0 L 3.71875 -2.421875 C 3.71875 -2.921875 3.820312 -3.429688 4.03125 -3.953125 C 4.25 -4.484375 4.582031 -4.972656 5.03125 -5.421875 L 23.21875 -23.6875 C 24.71875 -25.21875 26.085938 -26.6875 27.328125 -28.09375 C 28.566406 -29.507812 29.625 -30.929688 30.5 -32.359375 C 31.375 -33.785156 32.046875 -35.226562 32.515625 -36.6875 C 32.992188 -38.15625 33.234375 -39.722656 33.234375 -41.390625 C 33.234375 -43.054688 32.96875 -44.515625 32.4375 -45.765625 C 31.90625 -47.023438 31.1875 -48.0625 30.28125 -48.875 C 29.375 -49.695312 28.296875 -50.3125 27.046875 -50.71875 C 25.804688 -51.125 24.472656 -51.328125 23.046875 -51.328125 C 21.597656 -51.328125 20.265625 -51.113281 19.046875 -50.6875 C 17.835938 -50.269531 16.765625 -49.6875 15.828125 -48.9375 C 14.890625 -48.1875 14.101562 -47.296875 13.46875 -46.265625 C 12.832031 -45.234375 12.382812 -44.097656 12.125 -42.859375 C 11.800781 -41.929688 11.367188 -41.316406 10.828125 -41.015625 C 10.285156 -40.710938 9.53125 -40.628906 8.5625 -40.765625 L 4.875 -41.390625 C 5.238281 -43.984375 5.957031 -46.273438 7.03125 -48.265625 C 8.101562 -50.253906 9.445312 -51.921875 11.0625 -53.265625 C 12.6875 -54.617188 14.539062 -55.644531 16.625 -56.34375 C 18.71875 -57.039062 20.976562 -57.390625 23.40625 -57.390625 C 25.8125 -57.390625 28.054688 -57.03125 30.140625 -56.3125 C 32.222656 -55.601562 34.03125 -54.566406 35.5625 -53.203125 C 37.09375 -51.847656 38.296875 -50.191406 39.171875 -48.234375 C 40.046875 -46.285156 40.484375 -44.070312 40.484375 -41.59375 C 40.484375 -39.476562 40.164062 -37.515625 39.53125 -35.703125 C 38.894531 -33.898438 38.035156 -32.175781 36.953125 -30.53125 C 35.867188 -28.894531 34.617188 -27.296875 33.203125 -25.734375 C 31.796875 -24.179688 30.300781 -22.613281 28.71875 -21.03125 L 13.75 -5.75 C 14.800781 -6.03125 15.867188 -6.253906 16.953125 -6.421875 C 18.035156 -6.597656 19.078125 -6.6875 20.078125 -6.6875 Z M 39.09375 -6.6875 "/></g></g></g><g fill="#ffffff" fill-opacity="1"><g transform="translate(816.130522, 612.338816)"><g><path d="M 4.953125 -26.734375 L 24.515625 -26.734375 L 24.515625 -20.75 L 4.953125 -20.75 Z M 4.953125 -26.734375 "/></g></g></g><g fill="#ffffff" fill-opacity="1"><g transform="translate(845.558959, 612.338816)"><g><path d="M 28.921875 -20.484375 L 28.921875 -43.890625 C 28.921875 -44.578125 28.945312 -45.328125 29 -46.140625 C 29.050781 -46.960938 29.128906 -47.796875 29.234375 -48.640625 L 8.5625 -20.484375 Z M 43.6875 -20.484375 L 43.6875 -16.4375 C 43.6875 -16.007812 43.5625 -15.648438 43.3125 -15.359375 C 43.0625 -15.078125 42.671875 -14.9375 42.140625 -14.9375 L 35.09375 -14.9375 L 35.09375 0 L 28.921875 0 L 28.921875 -14.9375 L 3.71875 -14.9375 C 3.195312 -14.9375 2.742188 -15.085938 2.359375 -15.390625 C 1.972656 -15.691406 1.726562 -16.066406 1.625 -16.515625 L 0.90625 -20.125 L 28.515625 -56.765625 L 35.09375 -56.765625 L 35.09375 -20.484375 Z M 43.6875 -20.484375 "/></g></g></g><g fill="#ffffff" fill-opacity="1"><g transform="translate(770.185711, 720.049034)"><g><path d="M 39.09375 -6.6875 C 39.863281 -6.6875 40.472656 -6.460938 40.921875 -6.015625 C 41.367188 -5.566406 41.59375 -4.988281 41.59375 -4.28125 L 41.59375 0 L 3.71875 0 L 3.71875 -2.421875 C 3.71875 -2.921875 3.820312 -3.429688 4.03125 -3.953125 C 4.25 -4.484375 4.582031 -4.972656 5.03125 -5.421875 L 23.21875 -23.6875 C 24.71875 -25.21875 26.085938 -26.6875 27.328125 -28.09375 C 28.566406 -29.507812 29.625 -30.929688 30.5 -32.359375 C 31.375 -33.785156 32.046875 -35.226562 32.515625 -36.6875 C 32.992188 -38.15625 33.234375 -39.722656 33.234375 -41.390625 C 33.234375 -43.054688 32.96875 -44.515625 32.4375 -45.765625 C 31.90625 -47.023438 31.1875 -48.0625 30.28125 -48.875 C 29.375 -49.695312 28.296875 -50.3125 27.046875 -50.71875 C 25.804688 -51.125 24.472656 -51.328125 23.046875 -51.328125 C 21.597656 -51.328125 20.265625 -51.113281 19.046875 -50.6875 C 17.835938 -50.269531 16.765625 -49.6875 15.828125 -48.9375 C 14.890625 -48.1875 14.101562 -47.296875 13.46875 -46.265625 C 12.832031 -45.234375 12.382812 -44.097656 12.125 -42.859375 C 11.800781 -41.929688 11.367188 -41.316406 10.828125 -41.015625 C 10.285156 -40.710938 9.53125 -40.628906 8.5625 -40.765625 L 4.875 -41.390625 C 5.238281 -43.984375 5.957031 -46.273438 7.03125 -48.265625 C 8.101562 -50.253906 9.445312 -51.921875 11.0625 -53.265625 C 12.6875 -54.617188 14.539062 -55.644531 16.625 -56.34375 C 18.71875 -57.039062 20.976562 -57.390625 23.40625 -57.390625 C 25.8125 -57.390625 28.054688 -57.03125 30.140625 -56.3125 C 32.222656 -55.601562 34.03125 -54.566406 35.5625 -53.203125 C 37.09375 -51.847656 38.296875 -50.191406 39.171875 -48.234375 C 40.046875 -46.285156 40.484375 -44.070312 40.484375 -41.59375 C 40.484375 -39.476562 40.164062 -37.515625 39.53125 -35.703125 C 38.894531 -33.898438 38.035156 -32.175781 36.953125 -30.53125 C 35.867188 -28.894531 34.617188 -27.296875 33.203125 -25.734375 C 31.796875 -24.179688 30.300781 -22.613281 28.71875 -21.03125 L 13.75 -5.75 C 14.800781 -6.03125 15.867188 -6.253906 16.953125 -6.421875 C 18.035156 -6.597656 19.078125 -6.6875 20.078125 -6.6875 Z M 39.09375 -6.6875 "/></g></g></g><g fill="#ffffff" fill-opacity="1"><g transform="translate(816.130522, 720.049034)"><g><path d="M 4.953125 -26.734375 L 24.515625 -26.734375 L 24.515625 -20.75 L 4.953125 -20.75 Z M 4.953125 -26.734375 "/></g></g></g><g fill="#ffffff" fill-opacity="1"><g transform="translate(845.558959, 720.049034)"><g><path d="M 28.921875 -20.484375 L 28.921875 -43.890625 C 28.921875 -44.578125 28.945312 -45.328125 29 -46.140625 C 29.050781 -46.960938 29.128906 -47.796875 29.234375 -48.640625 L 8.5625 -20.484375 Z M 43.6875 -20.484375 L 43.6875 -16.4375 C 43.6875 -16.007812 43.5625 -15.648438 43.3125 -15.359375 C 43.0625 -15.078125 42.671875 -14.9375 42.140625 -14.9375 L 35.09375 -14.9375 L 35.09375 0 L 28.921875 0 L 28.921875 -14.9375 L 3.71875 -14.9375 C 3.195312 -14.9375 2.742188 -15.085938 2.359375 -15.390625 C 1.972656 -15.691406 1.726562 -16.066406 1.625 -16.515625 L 0.90625 -20.125 L 28.515625 -56.765625 L 35.09375 -56.765625 L 35.09375 -20.484375 Z M 43.6875 -20.484375 "/></g></g></g><path fill="#ffffff" d="M 386.359375 266.214844 L 404.359375 266.214844 L 404.359375 272.214844 L 386.359375 272.214844 M 410.359375 266.214844 L 428.359375 266.214844 L 428.359375 272.214844 L 410.359375 272.214844 M 434.359375 266.214844 L 452.359375 266.214844 L 452.359375 272.214844 L 434.359375 272.214844 M 458.359375 266.214844 L 476.359375 266.214844 L 476.359375 272.214844 L 458.359375 272.214844 M 482.359375 266.214844 L 500.359375 266.214844 L 500.359375 272.214844 L 482.359375 272.214844 M 506.359375 266.214844 L 524.359375 266.214844 L 524.359375 272.214844 L 506.359375 272.214844 M 530.359375 266.214844 L 548.359375 266.214844 L 548.359375 272.214844 L 530.359375 272.214844 M 554.359375 266.214844 L 572.359375 266.214844 L 572.359375 272.214844 L 554.359375 272.214844 M 578.359375 266.214844 L 596.359375 266.214844 L 596.359375 272.214844 L 578.359375 272.214844 M 602.359375 266.214844 L 620.359375 266.214844 L 620.359375 272.214844 L 602.359375 272.214844 M 626.359375 266.214844 L 644.359375 266.214844 L 644.359375 272.214844 L 626.359375 272.214844 M 650.359375 266.214844 L 668.359375 266.214844 L 668.359375 272.214844 L 650.359375 272.214844 M 674.359375 266.214844 L 692.359375 266.214844 L 692.359375 272.214844 L 674.359375 272.214844 M 698.359375 266.214844 L 716.359375 266.214844 L 716.359375 272.214844 L 698.359375 272.214844 " fill-opacity="1" fill-rule="nonzero"/><path fill="#ffffff" d="M 385.222656 587.90625 L 403.222656 587.90625 L 403.222656 593.90625 L 385.222656 593.90625 M 409.222656 587.90625 L 427.222656 587.90625 L 427.222656 593.90625 L 409.222656 593.90625 M 433.222656 587.90625 L 451.222656 587.90625 L 451.222656 593.90625 L 433.222656 593.90625 M 457.222656 587.90625 L 475.222656 587.90625 L 475.222656 593.90625 L 457.222656 593.90625 M 481.222656 587.90625 L 499.222656 587.90625 L 499.222656 593.90625 L 481.222656 593.90625 M 505.222656 587.90625 L 523.222656 587.90625 L 523.222656 593.90625 L 505.222656 593.90625 M 529.222656 587.90625 L 547.222656 587.90625 L 547.222656 593.90625 L 529.222656 593.90625 M 553.222656 587.90625 L 571.222656 587.90625 L 571.222656 593.90625 L 553.222656 593.90625 M 577.222656 587.90625 L 595.222656 587.90625 L 595.222656 593.90625 L 577.222656 593.90625 M 601.222656 587.90625 L 619.222656 587.90625 L 619.222656 593.90625 L 601.222656 593.90625 M 625.222656 587.90625 L 643.222656 587.90625 L 643.222656 593.90625 L 625.222656 593.90625 M 649.222656 587.90625 L 667.222656 587.90625 L 667.222656 593.90625 L 649.222656 593.90625 M 673.222656 587.90625 L 691.222656 587.90625 L 691.222656 593.90625 L 673.222656 593.90625 M 697.222656 587.90625 L 715.222656 587.90625 L 715.222656 593.90625 L 697.222656 593.90625 " fill-opacity="1" fill-rule="nonzero"/><path fill="#ffffff" d="M 386.359375 51.753906 L 404.359375 51.753906 L 404.359375 57.753906 L 386.359375 57.753906 M 410.359375 51.753906 L 428.359375 51.753906 L 428.359375 57.753906 L 410.359375 57.753906 M 434.359375 51.753906 L 452.359375 51.753906 L 452.359375 57.753906 L 434.359375 57.753906 M 458.359375 51.753906 L 476.359375 51.753906 L 476.359375 57.753906 L 458.359375 57.753906 M 482.359375 51.753906 L 500.359375 51.753906 L 500.359375 57.753906 L 482.359375 57.753906 M 506.359375 51.753906 L 524.359375 51.753906 L 524.359375 57.753906 L 506.359375 57.753906 M 530.359375 51.753906 L 548.359375 51.753906 L 548.359375 57.753906 L 530.359375 57.753906 M 554.359375 51.753906 L 572.359375 51.753906 L 572.359375 57.753906 L 554.359375 57.753906 M 578.359375 51.753906 L 596.359375 51.753906 L 596.359375 57.753906 L 578.359375 57.753906 M 602.359375 51.753906 L 620.359375 51.753906 L 620.359375 57.753906 L 602.359375 57.753906 M 626.359375 51.753906 L 644.359375 51.753906 L 644.359375 57.753906 L 626.359375 57.753906 M 650.359375 51.753906 L 668.359375 51.753906 L 668.359375 57.753906 L 650.359375 57.753906 M 674.359375 51.753906 L 692.359375 51.753906 L 692.359375 57.753906 L 674.359375 57.753906 M 698.359375 51.753906 L 716.359375 51.753906 L 716.359375 57.753906 L 698.359375 57.753906 " fill-opacity="1" fill-rule="nonzero"/><path fill="#ffffff" d="M 386.359375 373.445312 L 404.359375 373.445312 L 404.359375 379.445312 L 386.359375 379.445312 M 410.359375 373.445312 L 428.359375 373.445312 L 428.359375 379.445312 L 410.359375 379.445312 M 434.359375 373.445312 L 452.359375 373.445312 L 452.359375 379.445312 L 434.359375 379.445312 M 458.359375 373.445312 L 476.359375 373.445312 L 476.359375 379.445312 L 458.359375 379.445312 M 482.359375 373.445312 L 500.359375 373.445312 L 500.359375 379.445312 L 482.359375 379.445312 M 506.359375 373.445312 L 524.359375 373.445312 L 524.359375 379.445312 L 506.359375 379.445312 M 530.359375 373.445312 L 548.359375 373.445312 L 548.359375 379.445312 L 530.359375 379.445312 M 554.359375 373.445312 L 572.359375 373.445312 L 572.359375 379.445312 L 554.359375 379.445312 M 578.359375 373.445312 L 596.359375 373.445312 L 596.359375 379.445312 L 578.359375 379.445312 M 602.359375 373.445312 L 620.359375 373.445312 L 620.359375 379.445312 L 602.359375 379.445312 M 626.359375 373.445312 L 644.359375 373.445312 L 644.359375 379.445312 L 626.359375 379.445312 M 650.359375 373.445312 L 668.359375 373.445312 L 668.359375 379.445312 L 650.359375 379.445312 M 674.359375 373.445312 L 692.359375 373.445312 L 692.359375 379.445312 L 674.359375 379.445312 M 698.359375 373.445312 L 716.359375 373.445312 L 716.359375 379.445312 L 698.359375 379.445312 " fill-opacity="1" fill-rule="nonzero"/><path fill="#ffffff" d="M 386.359375 480.675781 L 404.359375 480.675781 L 404.359375 486.675781 L 386.359375 486.675781 M 410.359375 480.675781 L 428.359375 480.675781 L 428.359375 486.675781 L 410.359375 486.675781 M 434.359375 480.675781 L 452.359375 480.675781 L 452.359375 486.675781 L 434.359375 486.675781 M 458.359375 480.675781 L 476.359375 480.675781 L 476.359375 486.675781 L 458.359375 486.675781 M 482.359375 480.675781 L 500.359375 480.675781 L 500.359375 486.675781 L 482.359375 486.675781 M 506.359375 480.675781 L 524.359375 480.675781 L 524.359375 486.675781 L 506.359375 486.675781 M 530.359375 480.675781 L 548.359375 480.675781 L 548.359375 486.675781 L 530.359375 486.675781 M 554.359375 480.675781 L 572.359375 480.675781 L 572.359375 486.675781 L 554.359375 486.675781 M 578.359375 480.675781 L 596.359375 480.675781 L 596.359375 486.675781 L 578.359375 486.675781 M 602.359375 480.675781 L 620.359375 480.675781 L 620.359375 486.675781 L 602.359375 486.675781 M 626.359375 480.675781 L 644.359375 480.675781 L 644.359375 486.675781 L 626.359375 486.675781 M 650.359375 480.675781 L 668.359375 480.675781 L 668.359375 486.675781 L 650.359375 486.675781 M 674.359375 480.675781 L 692.359375 480.675781 L 692.359375 486.675781 L 674.359375 486.675781 M 698.359375 480.675781 L 716.359375 480.675781 L 716.359375 486.675781 L 698.359375 486.675781 " fill-opacity="1" fill-rule="nonzero"/><path fill="#ffffff" d="M 385.222656 695.136719 L 403.222656 695.136719 L 403.222656 701.136719 L 385.222656 701.136719 M 409.222656 695.136719 L 427.222656 695.136719 L 427.222656 701.136719 L 409.222656 701.136719 M 433.222656 695.136719 L 451.222656 695.136719 L 451.222656 701.136719 L 433.222656 701.136719 M 457.222656 695.136719 L 475.222656 695.136719 L 475.222656 701.136719 L 457.222656 701.136719 M 481.222656 695.136719 L 499.222656 695.136719 L 499.222656 701.136719 L 481.222656 701.136719 M 505.222656 695.136719 L 523.222656 695.136719 L 523.222656 701.136719 L 505.222656 701.136719 M 529.222656 695.136719 L 547.222656 695.136719 L 547.222656 701.136719 L 529.222656 701.136719 M 553.222656 695.136719 L 571.222656 695.136719 L 571.222656 701.136719 L 553.222656 701.136719 M 577.222656 695.136719 L 595.222656 695.136719 L 595.222656 701.136719 L 577.222656 701.136719 M 601.222656 695.136719 L 619.222656 695.136719 L 619.222656 701.136719 L 601.222656 701.136719 M 625.222656 695.136719 L 643.222656 695.136719 L 643.222656 701.136719 L 625.222656 701.136719 M 649.222656 695.136719 L 667.222656 695.136719 L 667.222656 701.136719 L 649.222656 701.136719 M 673.222656 695.136719 L 691.222656 695.136719 L 691.222656 701.136719 L 673.222656 701.136719 M 697.222656 695.136719 L 715.222656 695.136719 L 715.222656 701.136719 L 697.222656 701.136719 " fill-opacity="1" fill-rule="nonzero"/><path fill="#ffffff" d="M 385.222656 158.984375 L 403.222656 158.984375 L 403.222656 164.984375 L 385.222656 164.984375 M 409.222656 158.984375 L 427.222656 158.984375 L 427.222656 164.984375 L 409.222656 164.984375 M 433.222656 158.984375 L 451.222656 158.984375 L 451.222656 164.984375 L 433.222656 164.984375 M 457.222656 158.984375 L 475.222656 158.984375 L 475.222656 164.984375 L 457.222656 164.984375 M 481.222656 158.984375 L 499.222656 158.984375 L 499.222656 164.984375 L 481.222656 164.984375 M 505.222656 158.984375 L 523.222656 158.984375 L 523.222656 164.984375 L 505.222656 164.984375 M 529.222656 158.984375 L 547.222656 158.984375 L 547.222656 164.984375 L 529.222656 164.984375 M 553.222656 158.984375 L 571.222656 158.984375 L 571.222656 164.984375 L 553.222656 164.984375 M 577.222656 158.984375 L 595.222656 158.984375 L 595.222656 164.984375 L 577.222656 164.984375 M 601.222656 158.984375 L 619.222656 158.984375 L 619.222656 164.984375 L 601.222656 164.984375 M 625.222656 158.984375 L 643.222656 158.984375 L 643.222656 164.984375 L 625.222656 164.984375 M 649.222656 158.984375 L 667.222656 158.984375 L 667.222656 164.984375 L 649.222656 164.984375 M 673.222656 158.984375 L 691.222656 158.984375 L 691.222656 164.984375 L 673.222656 164.984375 M 697.222656 158.984375 L 715.222656 158.984375 L 715.222656 164.984375 L 697.222656 164.984375 " fill-opacity="1" fill-rule="nonzero"/></svg>