<svg xmlns="http://www.w3.org/2000/svg" xmlns:xlink="http://www.w3.org/1999/xlink" width="1920" zoomAndPan="magnify" viewBox="0 0 1440 809.999993" height="1080" preserveAspectRatio="xMidYMid meet" version="1.0"><defs><filter x="0%" y="0%" width="100%" height="100%" id="a7854eaebb"><feColorMatrix values="0 0 0 0 1 0 0 0 0 1 0 0 0 0 1 0 0 0 1 0" color-interpolation-filters="sRGB"/></filter><clipPath id="045f04c3b4"><path d="M 2 252.894531 L 1348 252.894531 L 1348 599 L 2 599 Z M 2 252.894531 " clip-rule="nonzero"/></clipPath><mask id="c52a2dd799"><g filter="url(#a7854eaebb)"><rect x="-144" width="1728" fill="#000000" y="-80.999999" height="971.999992" fill-opacity="0.5"/></g></mask><clipPath id="e04b8961f4"><rect x="0" width="164" y="0" height="164"/></clipPath><mask id="265b2416cb"><g filter="url(#a7854eaebb)"><rect x="-144" width="1728" fill="#000000" y="-80.999999" height="971.999992" fill-opacity="0.5"/></g></mask><clipPath id="f95c1a14ef"><rect x="0" width="165" y="0" height="164"/></clipPath><mask id="4e8e49f02e"><g filter="url(#a7854eaebb)"><rect x="-144" width="1728" fill="#000000" y="-80.999999" height="971.999992" fill-opacity="0.5"/></g></mask><clipPath id="d5f4f599fa"><rect x="0" width="164" y="0" height="164"/></clipPath><mask id="d36af2323b"><g filter="url(#a7854eaebb)"><rect x="-144" width="1728" fill="#000000" y="-80.999999" height="971.999992" fill-opacity="0.5"/></g></mask><clipPath id="2d2d2f60f2"><rect x="0" width="92" y="0" height="92"/></clipPath></defs><g clip-path="url(#045f04c3b4)"><path fill="#d4491d" d="M 175.453125 252.894531 L 1174.867188 252.894531 C 1177.695312 252.894531 1180.519531 252.960938 1183.339844 253.101562 C 1186.164062 253.238281 1188.984375 253.449219 1191.796875 253.722656 C 1194.609375 254 1197.414062 254.347656 1200.207031 254.761719 C 1203.003906 255.175781 1205.789062 255.660156 1208.558594 256.210938 C 1211.332031 256.761719 1214.089844 257.382812 1216.832031 258.066406 C 1219.570312 258.753906 1222.296875 259.507812 1225 260.328125 C 1227.703125 261.148438 1230.386719 262.035156 1233.046875 262.988281 C 1235.710938 263.941406 1238.34375 264.957031 1240.957031 266.039062 C 1243.566406 267.121094 1246.152344 268.265625 1248.707031 269.472656 C 1251.261719 270.683594 1253.785156 271.953125 1256.277344 273.285156 C 1258.769531 274.617188 1261.230469 276.011719 1263.652344 277.464844 C 1266.078125 278.917969 1268.464844 280.425781 1270.8125 281.996094 C 1273.164062 283.566406 1275.472656 285.195312 1277.746094 286.878906 C 1280.015625 288.5625 1282.242188 290.300781 1284.425781 292.09375 C 1286.613281 293.886719 1288.75 295.734375 1290.84375 297.628906 C 1292.941406 299.527344 1294.984375 301.476562 1296.984375 303.476562 C 1298.984375 305.472656 1300.929688 307.519531 1302.828125 309.613281 C 1304.726562 311.707031 1306.574219 313.847656 1308.367188 316.03125 C 1310.160156 318.21875 1311.898438 320.445312 1313.582031 322.714844 C 1315.265625 324.984375 1316.890625 327.296875 1318.460938 329.644531 C 1320.03125 331.996094 1321.542969 334.382812 1322.996094 336.808594 C 1324.449219 339.230469 1325.84375 341.691406 1327.175781 344.183594 C 1328.507812 346.675781 1329.777344 349.199219 1330.988281 351.753906 C 1332.195312 354.308594 1333.339844 356.890625 1334.421875 359.503906 C 1335.503906 362.113281 1336.519531 364.75 1337.472656 367.410156 C 1338.425781 370.074219 1339.3125 372.757812 1340.132812 375.460938 C 1340.953125 378.164062 1341.707031 380.886719 1342.390625 383.628906 C 1343.078125 386.371094 1343.699219 389.128906 1344.25 391.902344 C 1344.800781 394.671875 1345.285156 397.457031 1345.699219 400.253906 C 1346.113281 403.046875 1346.457031 405.851562 1346.734375 408.664062 C 1347.011719 411.476562 1347.222656 414.296875 1347.359375 417.117188 C 1347.5 419.941406 1347.566406 422.765625 1347.566406 425.59375 C 1347.566406 428.417969 1347.5 431.242188 1347.359375 434.066406 C 1347.222656 436.890625 1347.011719 439.707031 1346.734375 442.519531 C 1346.457031 445.332031 1346.113281 448.136719 1345.699219 450.933594 C 1345.285156 453.730469 1344.800781 456.511719 1344.25 459.285156 C 1343.699219 462.058594 1343.078125 464.8125 1342.390625 467.554688 C 1341.707031 470.296875 1340.953125 473.019531 1340.132812 475.726562 C 1339.3125 478.429688 1338.425781 481.113281 1337.472656 483.773438 C 1336.519531 486.433594 1335.503906 489.070312 1334.421875 491.683594 C 1333.339844 494.292969 1332.195312 496.875 1330.988281 499.429688 C 1329.777344 501.988281 1328.507812 504.511719 1327.175781 507.003906 C 1325.84375 509.496094 1324.449219 511.953125 1322.996094 514.378906 C 1321.542969 516.800781 1320.03125 519.191406 1318.460938 521.539062 C 1316.890625 523.890625 1315.265625 526.199219 1313.582031 528.46875 C 1311.898438 530.742188 1310.160156 532.96875 1308.367188 535.152344 C 1306.574219 537.335938 1304.726562 539.476562 1302.828125 541.570312 C 1300.933594 543.664062 1298.984375 545.710938 1296.984375 547.710938 C 1294.984375 549.707031 1292.941406 551.65625 1290.84375 553.554688 C 1288.75 555.453125 1286.613281 557.296875 1284.425781 559.089844 C 1282.242188 560.882812 1280.015625 562.625 1277.746094 564.308594 C 1275.472656 565.992188 1273.164062 567.617188 1270.8125 569.1875 C 1268.464844 570.757812 1266.078125 572.269531 1263.652344 573.722656 C 1261.230469 575.175781 1258.769531 576.566406 1256.277344 577.902344 C 1253.785156 579.234375 1251.261719 580.503906 1248.707031 581.710938 C 1246.152344 582.921875 1243.566406 584.066406 1240.957031 585.148438 C 1238.34375 586.226562 1235.710938 587.246094 1233.046875 588.199219 C 1230.386719 589.148438 1227.703125 590.035156 1225 590.855469 C 1222.296875 591.675781 1219.570312 592.429688 1216.832031 593.117188 C 1214.089844 593.804688 1211.332031 594.421875 1208.558594 594.972656 C 1205.789062 595.527344 1203.003906 596.007812 1200.207031 596.421875 C 1197.414062 596.839844 1194.609375 597.183594 1191.796875 597.460938 C 1188.980469 597.738281 1186.164062 597.945312 1183.339844 598.085938 C 1180.519531 598.222656 1177.695312 598.292969 1174.867188 598.292969 L 175.453125 598.292969 C 172.628906 598.292969 169.804688 598.222656 166.980469 598.085938 C 164.15625 597.945312 161.339844 597.738281 158.527344 597.460938 C 155.714844 597.183594 152.910156 596.839844 150.113281 596.421875 C 147.316406 596.007812 144.535156 595.527344 141.761719 594.972656 C 138.988281 594.421875 136.234375 593.804688 133.492188 593.117188 C 130.75 592.429688 128.027344 591.675781 125.320312 590.855469 C 122.617188 590.035156 119.933594 589.148438 117.273438 588.199219 C 114.613281 587.246094 111.976562 586.226562 109.363281 585.148438 C 106.753906 584.066406 104.171875 582.921875 101.617188 581.710938 C 99.058594 580.503906 96.535156 579.234375 94.042969 577.902344 C 91.550781 576.566406 89.09375 575.175781 86.667969 573.722656 C 84.246094 572.269531 81.855469 570.757812 79.507812 569.1875 C 77.15625 567.617188 74.847656 565.992188 72.578125 564.308594 C 70.308594 562.625 68.078125 560.882812 65.894531 559.089844 C 63.710938 557.296875 61.570312 555.453125 59.476562 553.554688 C 57.382812 551.65625 55.335938 549.707031 53.335938 547.710938 C 51.339844 545.710938 49.390625 543.664062 47.492188 541.570312 C 45.59375 539.476562 43.75 537.335938 41.957031 535.152344 C 40.164062 532.96875 38.425781 530.738281 36.742188 528.46875 C 35.058594 526.199219 33.429688 523.890625 31.859375 521.539062 C 30.289062 519.191406 28.777344 516.800781 27.324219 514.378906 C 25.871094 511.953125 24.480469 509.496094 23.144531 507.003906 C 21.8125 504.511719 20.542969 501.988281 19.335938 499.429688 C 18.125 496.875 16.980469 494.292969 15.898438 491.683594 C 14.820312 489.070312 13.800781 486.433594 12.847656 483.773438 C 11.898438 481.113281 11.011719 478.429688 10.191406 475.726562 C 9.371094 473.019531 8.617188 470.296875 7.929688 467.554688 C 7.242188 464.8125 6.625 462.058594 6.074219 459.285156 C 5.519531 456.511719 5.039062 453.730469 4.625 450.933594 C 4.207031 448.136719 3.863281 445.332031 3.585938 442.519531 C 3.308594 439.707031 3.101562 436.890625 2.960938 434.066406 C 2.824219 431.242188 2.753906 428.417969 2.753906 425.59375 C 2.753906 422.765625 2.824219 419.941406 2.960938 417.117188 C 3.101562 414.296875 3.308594 411.476562 3.585938 408.664062 C 3.863281 405.851562 4.207031 403.046875 4.625 400.253906 C 5.039062 397.457031 5.519531 394.671875 6.074219 391.902344 C 6.625 389.128906 7.242188 386.371094 7.929688 383.628906 C 8.617188 380.886719 9.371094 378.164062 10.191406 375.460938 C 11.011719 372.757812 11.898438 370.074219 12.847656 367.410156 C 13.800781 364.75 14.820312 362.113281 15.898438 359.503906 C 16.980469 356.890625 18.125 354.308594 19.335938 351.753906 C 20.542969 349.199219 21.8125 346.675781 23.144531 344.183594 C 24.480469 341.691406 25.871094 339.230469 27.324219 336.808594 C 28.777344 334.382812 30.289062 331.996094 31.859375 329.644531 C 33.429688 327.296875 35.058594 324.984375 36.742188 322.714844 C 38.425781 320.445312 40.164062 318.21875 41.957031 316.03125 C 43.75 313.847656 45.59375 311.707031 47.492188 309.613281 C 49.390625 307.519531 51.339844 305.472656 53.335938 303.476562 C 55.335938 301.476562 57.382812 299.527344 59.476562 297.628906 C 61.570312 295.734375 63.710938 293.886719 65.894531 292.09375 C 68.078125 290.300781 70.308594 288.5625 72.578125 286.878906 C 74.847656 285.195312 77.15625 283.566406 79.507812 281.996094 C 81.855469 280.425781 84.246094 278.917969 86.667969 277.464844 C 89.09375 276.011719 91.550781 274.617188 94.042969 273.285156 C 96.535156 271.953125 99.058594 270.683594 101.617188 269.472656 C 104.171875 268.265625 106.753906 267.121094 109.363281 266.039062 C 111.976562 264.957031 114.613281 263.941406 117.273438 262.988281 C 119.933594 262.035156 122.617188 261.148438 125.320312 260.328125 C 128.027344 259.507812 130.75 258.753906 133.492188 258.066406 C 136.234375 257.382812 138.988281 256.761719 141.761719 256.210938 C 144.535156 255.660156 147.316406 255.175781 150.113281 254.761719 C 152.910156 254.347656 155.714844 254 158.527344 253.722656 C 161.339844 253.449219 164.15625 253.238281 166.980469 253.101562 C 169.804688 252.960938 172.628906 252.894531 175.453125 252.894531 Z M 175.453125 252.894531 " fill-opacity="1" fill-rule="nonzero"/></g><path fill="#ffffff" d="M 275.667969 428.671875 C 275.667969 429.832031 275.640625 430.992188 275.582031 432.148438 C 275.523438 433.308594 275.441406 434.464844 275.328125 435.617188 C 275.210938 436.773438 275.070312 437.921875 274.902344 439.070312 C 274.730469 440.21875 274.53125 441.359375 274.304688 442.496094 C 274.078125 443.632812 273.824219 444.765625 273.542969 445.890625 C 273.261719 447.015625 272.953125 448.132812 272.617188 449.242188 C 272.28125 450.351562 271.917969 451.453125 271.527344 452.542969 C 271.136719 453.636719 270.71875 454.71875 270.273438 455.789062 C 269.832031 456.859375 269.359375 457.921875 268.863281 458.96875 C 268.367188 460.015625 267.847656 461.050781 267.300781 462.074219 C 266.753906 463.097656 266.183594 464.105469 265.585938 465.101562 C 264.992188 466.09375 264.371094 467.074219 263.726562 468.039062 C 263.082031 469.003906 262.414062 469.949219 261.722656 470.882812 C 261.03125 471.8125 260.320312 472.726562 259.582031 473.625 C 258.847656 474.519531 258.089844 475.398438 257.3125 476.257812 C 256.535156 477.117188 255.734375 477.957031 254.914062 478.777344 C 254.09375 479.597656 253.253906 480.394531 252.394531 481.175781 C 251.535156 481.953125 250.660156 482.710938 249.761719 483.445312 C 248.867188 484.179688 247.953125 484.894531 247.019531 485.585938 C 246.089844 486.277344 245.140625 486.945312 244.175781 487.589844 C 243.210938 488.230469 242.234375 488.851562 241.238281 489.449219 C 240.242188 490.042969 239.234375 490.617188 238.210938 491.164062 C 237.191406 491.710938 236.15625 492.230469 235.105469 492.726562 C 234.058594 493.222656 233 493.691406 231.925781 494.136719 C 230.855469 494.578125 229.773438 494.996094 228.683594 495.386719 C 227.589844 495.777344 226.488281 496.140625 225.378906 496.476562 C 224.269531 496.816406 223.152344 497.125 222.027344 497.40625 C 220.902344 497.6875 219.773438 497.941406 218.636719 498.167969 C 217.496094 498.394531 216.355469 498.59375 215.207031 498.761719 C 214.0625 498.933594 212.910156 499.074219 211.757812 499.1875 C 210.601562 499.300781 209.445312 499.386719 208.289062 499.445312 C 207.128906 499.5 205.972656 499.53125 204.8125 499.53125 C 203.652344 499.53125 202.492188 499.5 201.335938 499.445312 C 200.175781 499.386719 199.019531 499.300781 197.867188 499.1875 C 196.710938 499.074219 195.5625 498.933594 194.414062 498.761719 C 193.269531 498.59375 192.125 498.394531 190.988281 498.167969 C 189.851562 497.941406 188.71875 497.6875 187.59375 497.40625 C 186.46875 497.125 185.351562 496.816406 184.242188 496.476562 C 183.132812 496.140625 182.03125 495.777344 180.941406 495.386719 C 179.847656 494.996094 178.765625 494.578125 177.695312 494.136719 C 176.625 493.691406 175.566406 493.222656 174.515625 492.726562 C 173.46875 492.230469 172.433594 491.710938 171.410156 491.164062 C 170.386719 490.617188 169.378906 490.042969 168.382812 489.449219 C 167.390625 488.851562 166.410156 488.230469 165.445312 487.589844 C 164.480469 486.945312 163.535156 486.277344 162.601562 485.585938 C 161.671875 484.894531 160.757812 484.179688 159.859375 483.445312 C 158.964844 482.710938 158.085938 481.953125 157.226562 481.175781 C 156.367188 480.394531 155.527344 479.597656 154.707031 478.777344 C 153.890625 477.957031 153.089844 477.117188 152.3125 476.257812 C 151.53125 475.398438 150.773438 474.519531 150.039062 473.625 C 149.304688 472.726562 148.589844 471.8125 147.898438 470.882812 C 147.207031 469.949219 146.542969 469.003906 145.898438 468.039062 C 145.253906 467.074219 144.632812 466.09375 144.035156 465.101562 C 143.441406 464.105469 142.867188 463.097656 142.320312 462.074219 C 141.777344 461.050781 141.253906 460.015625 140.757812 458.96875 C 140.261719 457.921875 139.792969 456.859375 139.347656 455.789062 C 138.90625 454.71875 138.488281 453.636719 138.097656 452.542969 C 137.707031 451.453125 137.34375 450.351562 137.007812 449.242188 C 136.671875 448.132812 136.359375 447.015625 136.078125 445.890625 C 135.796875 444.765625 135.542969 443.632812 135.316406 442.496094 C 135.089844 441.359375 134.894531 440.21875 134.722656 439.070312 C 134.550781 437.921875 134.410156 436.773438 134.296875 435.617188 C 134.183594 434.464844 134.097656 433.308594 134.039062 432.148438 C 133.984375 430.992188 133.957031 429.832031 133.957031 428.671875 C 133.957031 427.515625 133.984375 426.355469 134.039062 425.195312 C 134.097656 424.039062 134.183594 422.882812 134.296875 421.726562 C 134.410156 420.574219 134.550781 419.425781 134.722656 418.277344 C 134.894531 417.128906 135.089844 415.988281 135.316406 414.851562 C 135.542969 413.710938 135.796875 412.582031 136.078125 411.457031 C 136.359375 410.332031 136.671875 409.214844 137.007812 408.105469 C 137.34375 406.996094 137.707031 405.894531 138.097656 404.804688 C 138.488281 403.710938 138.90625 402.628906 139.347656 401.558594 C 139.792969 400.488281 140.261719 399.425781 140.757812 398.378906 C 141.253906 397.332031 141.777344 396.296875 142.320312 395.273438 C 142.867188 394.25 143.441406 393.242188 144.035156 392.246094 C 144.632812 391.25 145.253906 390.273438 145.898438 389.308594 C 146.542969 388.34375 147.207031 387.394531 147.898438 386.464844 C 148.589844 385.535156 149.304688 384.621094 150.039062 383.722656 C 150.773438 382.828125 151.53125 381.949219 152.3125 381.089844 C 153.089844 380.230469 153.890625 379.390625 154.707031 378.570312 C 155.527344 377.75 156.367188 376.953125 157.226562 376.171875 C 158.085938 375.394531 158.964844 374.636719 159.859375 373.902344 C 160.757812 373.164062 161.671875 372.453125 162.601562 371.761719 C 163.535156 371.070312 164.480469 370.402344 165.445312 369.757812 C 166.410156 369.113281 167.390625 368.496094 168.382812 367.898438 C 169.378906 367.300781 170.386719 366.730469 171.410156 366.183594 C 172.433594 365.636719 173.46875 365.117188 174.515625 364.621094 C 175.566406 364.125 176.625 363.65625 177.695312 363.210938 C 178.765625 362.765625 179.847656 362.351562 180.941406 361.960938 C 182.03125 361.570312 183.132812 361.207031 184.242188 360.867188 C 185.351562 360.53125 186.46875 360.222656 187.59375 359.941406 C 188.71875 359.660156 189.851562 359.40625 190.988281 359.179688 C 192.125 358.953125 193.269531 358.753906 194.414062 358.585938 C 195.5625 358.414062 196.710938 358.273438 197.867188 358.160156 C 199.019531 358.046875 200.175781 357.960938 201.335938 357.902344 C 202.492188 357.847656 203.652344 357.816406 204.8125 357.816406 C 205.972656 357.816406 207.128906 357.847656 208.289062 357.902344 C 209.445312 357.960938 210.601562 358.046875 211.757812 358.160156 C 212.910156 358.273438 214.0625 358.414062 215.207031 358.585938 C 216.355469 358.753906 217.496094 358.953125 218.636719 359.179688 C 219.773438 359.40625 220.902344 359.660156 222.027344 359.941406 C 223.152344 360.222656 224.269531 360.53125 225.378906 360.867188 C 226.488281 361.207031 227.589844 361.570312 228.683594 361.960938 C 229.773438 362.351562 230.855469 362.765625 231.925781 363.210938 C 233 363.65625 234.058594 364.125 235.105469 364.621094 C 236.15625 365.117188 237.191406 365.636719 238.210938 366.183594 C 239.234375 366.730469 240.242188 367.300781 241.238281 367.898438 C 242.234375 368.496094 243.210938 369.113281 244.175781 369.757812 C 245.140625 370.402344 246.089844 371.070312 247.019531 371.761719 C 247.953125 372.453125 248.867188 373.164062 249.761719 373.902344 C 250.660156 374.636719 251.535156 375.394531 252.394531 376.171875 C 253.253906 376.953125 254.09375 377.75 254.914062 378.570312 C 255.734375 379.390625 256.535156 380.230469 257.3125 381.089844 C 258.089844 381.949219 258.847656 382.828125 259.582031 383.722656 C 260.320312 384.621094 261.03125 385.535156 261.722656 386.464844 C 262.414062 387.394531 263.082031 388.34375 263.726562 389.308594 C 264.371094 390.273438 264.992188 391.25 265.585938 392.246094 C 266.183594 393.242188 266.753906 394.25 267.300781 395.273438 C 267.847656 396.292969 268.367188 397.332031 268.863281 398.378906 C 269.359375 399.425781 269.832031 400.488281 270.273438 401.558594 C 270.71875 402.628906 271.136719 403.710938 271.527344 404.804688 C 271.917969 405.894531 272.28125 406.996094 272.617188 408.105469 C 272.953125 409.214844 273.261719 410.332031 273.542969 411.457031 C 273.824219 412.582031 274.078125 413.710938 274.304688 414.851562 C 274.53125 415.988281 274.730469 417.128906 274.902344 418.277344 C 275.070312 419.425781 275.210938 420.574219 275.328125 421.726562 C 275.441406 422.882812 275.523438 424.039062 275.582031 425.195312 C 275.640625 426.355469 275.667969 427.515625 275.667969 428.671875 Z M 275.667969 428.671875 " fill-opacity="1" fill-rule="nonzero"/><g mask="url(#c52a2dd799)"><g transform="matrix(1, 0, 0, 1, 383, 343)"><g clip-path="url(#e04b8961f4)"><path fill="#ffffff" d="M 148.726562 87.304688 C 148.726562 88.464844 148.699219 89.621094 148.640625 90.78125 C 148.585938 91.9375 148.5 93.09375 148.386719 94.25 C 148.273438 95.402344 148.128906 96.554688 147.960938 97.703125 C 147.789062 98.847656 147.59375 99.992188 147.367188 101.128906 C 147.140625 102.265625 146.886719 103.394531 146.605469 104.519531 C 146.320312 105.644531 146.011719 106.761719 145.675781 107.871094 C 145.339844 108.984375 144.976562 110.082031 144.585938 111.175781 C 144.195312 112.265625 143.777344 113.347656 143.332031 114.417969 C 142.890625 115.492188 142.421875 116.550781 141.925781 117.597656 C 141.429688 118.648438 140.90625 119.683594 140.359375 120.707031 C 139.8125 121.726562 139.242188 122.738281 138.648438 123.730469 C 138.050781 124.726562 137.429688 125.707031 136.785156 126.667969 C 136.140625 127.632812 135.472656 128.582031 134.785156 129.511719 C 134.09375 130.445312 133.378906 131.359375 132.644531 132.253906 C 131.910156 133.152344 131.152344 134.027344 130.371094 134.886719 C 129.59375 135.746094 128.792969 136.585938 127.972656 137.40625 C 127.152344 138.226562 126.316406 139.027344 125.457031 139.804688 C 124.597656 140.585938 123.71875 141.339844 122.820312 142.078125 C 121.925781 142.8125 121.011719 143.527344 120.082031 144.214844 C 119.148438 144.90625 118.199219 145.574219 117.238281 146.21875 C 116.273438 146.863281 115.292969 147.484375 114.296875 148.078125 C 113.304688 148.675781 112.296875 149.246094 111.273438 149.792969 C 110.25 150.339844 109.214844 150.863281 108.167969 151.359375 C 107.117188 151.851562 106.058594 152.324219 104.988281 152.765625 C 103.914062 153.210938 102.832031 153.628906 101.742188 154.019531 C 100.648438 154.410156 99.550781 154.773438 98.441406 155.109375 C 97.332031 155.445312 96.214844 155.753906 95.089844 156.035156 C 93.964844 156.320312 92.832031 156.574219 91.695312 156.800781 C 90.558594 157.023438 89.414062 157.222656 88.269531 157.394531 C 87.121094 157.5625 85.96875 157.707031 84.816406 157.820312 C 83.664062 157.933594 82.507812 158.019531 81.347656 158.074219 C 80.191406 158.132812 79.03125 158.160156 77.871094 158.160156 C 76.710938 158.160156 75.554688 158.132812 74.394531 158.074219 C 73.238281 158.019531 72.082031 157.933594 70.925781 157.820312 C 69.773438 157.707031 68.621094 157.5625 67.476562 157.394531 C 66.328125 157.222656 65.183594 157.023438 64.046875 156.800781 C 62.910156 156.574219 61.78125 156.320312 60.65625 156.035156 C 59.53125 155.753906 58.414062 155.445312 57.304688 155.109375 C 56.195312 154.773438 55.09375 154.410156 54 154.019531 C 52.910156 153.628906 51.828125 153.210938 50.757812 152.765625 C 49.683594 152.324219 48.625 151.851562 47.578125 151.359375 C 46.527344 150.863281 45.492188 150.339844 44.46875 149.792969 C 43.449219 149.246094 42.4375 148.675781 41.445312 148.078125 C 40.449219 147.484375 39.46875 146.863281 38.507812 146.21875 C 37.542969 145.574219 36.59375 144.90625 35.664062 144.214844 C 34.730469 143.527344 33.816406 142.8125 32.921875 142.078125 C 32.023438 141.339844 31.148438 140.585938 30.289062 139.804688 C 29.429688 139.027344 28.589844 138.226562 27.769531 137.40625 C 26.949219 136.585938 26.148438 135.746094 25.371094 134.886719 C 24.59375 134.027344 23.835938 133.152344 23.097656 132.253906 C 22.363281 131.359375 21.648438 130.445312 20.960938 129.511719 C 20.269531 128.582031 19.601562 127.632812 18.957031 126.671875 C 18.3125 125.707031 17.691406 124.726562 17.097656 123.730469 C 16.5 122.738281 15.929688 121.726562 15.382812 120.707031 C 14.835938 119.683594 14.3125 118.648438 13.820312 117.597656 C 13.324219 116.550781 12.851562 115.492188 12.410156 114.417969 C 11.964844 113.347656 11.546875 112.265625 11.15625 111.175781 C 10.765625 110.082031 10.402344 108.984375 10.066406 107.871094 C 9.730469 106.761719 9.421875 105.644531 9.140625 104.519531 C 8.855469 103.394531 8.601562 102.265625 8.378906 101.128906 C 8.152344 99.992188 7.953125 98.847656 7.78125 97.703125 C 7.613281 96.554688 7.46875 95.402344 7.355469 94.25 C 7.242188 93.09375 7.15625 91.9375 7.101562 90.78125 C 7.042969 89.621094 7.015625 88.464844 7.015625 87.304688 C 7.015625 86.144531 7.042969 84.984375 7.101562 83.828125 C 7.15625 82.667969 7.242188 81.511719 7.355469 80.359375 C 7.46875 79.207031 7.613281 78.054688 7.78125 76.90625 C 7.953125 75.761719 8.152344 74.617188 8.378906 73.480469 C 8.601562 72.34375 8.855469 71.210938 9.140625 70.085938 C 9.421875 68.964844 9.730469 67.847656 10.066406 66.734375 C 10.402344 65.625 10.765625 64.527344 11.15625 63.433594 C 11.546875 62.34375 11.964844 61.261719 12.410156 60.1875 C 12.851562 59.117188 13.324219 58.058594 13.820312 57.007812 C 14.3125 55.960938 14.835938 54.925781 15.382812 53.902344 C 15.929688 52.878906 16.5 51.871094 17.097656 50.878906 C 17.691406 49.882812 18.3125 48.902344 18.957031 47.9375 C 19.601562 46.976562 20.269531 46.027344 20.960938 45.09375 C 21.648438 44.164062 22.363281 43.25 23.097656 42.355469 C 23.835938 41.457031 24.59375 40.578125 25.371094 39.71875 C 26.148438 38.859375 26.949219 38.023438 27.769531 37.203125 C 28.589844 36.382812 29.429688 35.582031 30.289062 34.804688 C 31.148438 34.023438 32.023438 33.269531 32.921875 32.53125 C 33.816406 31.796875 34.730469 31.082031 35.664062 30.390625 C 36.59375 29.703125 37.542969 29.035156 38.507812 28.390625 C 39.46875 27.746094 40.449219 27.125 41.445312 26.527344 C 42.4375 25.933594 43.449219 25.363281 44.46875 24.816406 C 45.492188 24.269531 46.527344 23.746094 47.578125 23.25 C 48.625 22.753906 49.683594 22.285156 50.757812 21.84375 C 51.828125 21.398438 52.910156 20.980469 54 20.589844 C 55.09375 20.199219 56.195312 19.835938 57.304688 19.5 C 58.414062 19.164062 59.53125 18.855469 60.65625 18.570312 C 61.78125 18.289062 62.910156 18.035156 64.046875 17.808594 C 65.183594 17.582031 66.328125 17.386719 67.476562 17.214844 C 68.621094 17.046875 69.773438 16.902344 70.925781 16.789062 C 72.082031 16.675781 73.238281 16.589844 74.394531 16.535156 C 75.554688 16.476562 76.710938 16.449219 77.871094 16.449219 C 79.03125 16.449219 80.191406 16.476562 81.347656 16.535156 C 82.507812 16.589844 83.664062 16.675781 84.816406 16.789062 C 85.96875 16.902344 87.121094 17.046875 88.269531 17.214844 C 89.414062 17.386719 90.558594 17.582031 91.695312 17.808594 C 92.832031 18.035156 93.964844 18.289062 95.089844 18.570312 C 96.214844 18.855469 97.332031 19.164062 98.441406 19.5 C 99.550781 19.835938 100.648438 20.199219 101.742188 20.589844 C 102.832031 20.980469 103.914062 21.398438 104.988281 21.84375 C 106.058594 22.285156 107.117188 22.753906 108.167969 23.25 C 109.214844 23.746094 110.25 24.269531 111.273438 24.816406 C 112.296875 25.363281 113.304688 25.933594 114.296875 26.527344 C 115.292969 27.125 116.273438 27.746094 117.238281 28.390625 C 118.199219 29.035156 119.148438 29.703125 120.082031 30.390625 C 121.011719 31.082031 121.925781 31.796875 122.820312 32.53125 C 123.71875 33.269531 124.597656 34.023438 125.457031 34.804688 C 126.316406 35.582031 127.15625 36.382812 127.972656 37.203125 C 128.792969 38.023438 129.59375 38.859375 130.371094 39.71875 C 131.152344 40.578125 131.910156 41.457031 132.644531 42.355469 C 133.378906 43.25 134.09375 44.164062 134.785156 45.09375 C 135.472656 46.027344 136.140625 46.976562 136.785156 47.9375 C 137.429688 48.902344 138.050781 49.882812 138.648438 50.878906 C 139.242188 51.871094 139.8125 52.878906 140.359375 53.902344 C 140.90625 54.925781 141.429688 55.960938 141.925781 57.007812 C 142.421875 58.058594 142.890625 59.117188 143.332031 60.1875 C 143.777344 61.261719 144.195312 62.34375 144.585938 63.433594 C 144.976562 64.527344 145.339844 65.625 145.675781 66.734375 C 146.011719 67.847656 146.320312 68.964844 146.605469 70.085938 C 146.886719 71.210938 147.140625 72.34375 147.367188 73.480469 C 147.59375 74.617188 147.789062 75.761719 147.960938 76.90625 C 148.128906 78.054688 148.273438 79.207031 148.386719 80.359375 C 148.5 81.511719 148.585938 82.667969 148.640625 83.828125 C 148.699219 84.984375 148.726562 86.144531 148.726562 87.304688 Z M 148.726562 87.304688 " fill-opacity="1" fill-rule="nonzero"/></g></g></g><g mask="url(#265b2416cb)"><g transform="matrix(1, 0, 0, 1, 636, 343)"><g clip-path="url(#f95c1a14ef)"><path fill="#ffffff" d="M 151.605469 84.222656 C 151.605469 85.382812 151.578125 86.542969 151.519531 87.699219 C 151.464844 88.859375 151.378906 90.015625 151.265625 91.167969 C 151.152344 92.324219 151.007812 93.472656 150.839844 94.621094 C 150.667969 95.765625 150.472656 96.910156 150.246094 98.046875 C 150.019531 99.183594 149.765625 100.316406 149.484375 101.441406 C 149.199219 102.566406 148.890625 103.683594 148.554688 104.792969 C 148.21875 105.902344 147.855469 107.003906 147.464844 108.09375 C 147.074219 109.1875 146.65625 110.269531 146.210938 111.339844 C 145.769531 112.410156 145.300781 113.46875 144.804688 114.519531 C 144.308594 115.566406 143.785156 116.601562 143.238281 117.625 C 142.691406 118.648438 142.121094 119.65625 141.527344 120.652344 C 140.929688 121.644531 140.308594 122.625 139.664062 123.589844 C 139.019531 124.554688 138.351562 125.5 137.664062 126.433594 C 136.972656 127.363281 136.257812 128.277344 135.523438 129.175781 C 134.789062 130.070312 134.03125 130.949219 133.25 131.808594 C 132.472656 132.667969 131.671875 133.507812 130.851562 134.328125 C 130.03125 135.144531 129.195312 135.945312 128.335938 136.722656 C 127.476562 137.503906 126.597656 138.261719 125.699219 138.996094 C 124.804688 139.730469 123.890625 140.445312 122.960938 141.136719 C 122.027344 141.828125 121.078125 142.492188 120.117188 143.136719 C 119.152344 143.78125 118.171875 144.402344 117.175781 145 C 116.183594 145.59375 115.175781 146.167969 114.152344 146.714844 C 113.128906 147.257812 112.09375 147.78125 111.046875 148.277344 C 109.996094 148.773438 108.9375 149.242188 107.867188 149.6875 C 106.792969 150.128906 105.710938 150.546875 104.621094 150.9375 C 103.527344 151.328125 102.429688 151.691406 101.320312 152.027344 C 100.207031 152.367188 99.089844 152.675781 97.96875 152.957031 C 96.84375 153.238281 95.710938 153.492188 94.574219 153.71875 C 93.4375 153.945312 92.292969 154.144531 91.148438 154.3125 C 90 154.484375 88.847656 154.625 87.695312 154.738281 C 86.542969 154.851562 85.386719 154.9375 84.226562 154.996094 C 83.070312 155.050781 81.910156 155.078125 80.75 155.078125 C 79.589844 155.078125 78.433594 155.050781 77.273438 154.996094 C 76.117188 154.9375 74.960938 154.851562 73.804688 154.738281 C 72.652344 154.625 71.5 154.484375 70.355469 154.3125 C 69.207031 154.144531 68.0625 153.945312 66.925781 153.71875 C 65.789062 153.492188 64.660156 153.238281 63.535156 152.957031 C 62.410156 152.675781 61.292969 152.367188 60.183594 152.027344 C 59.070312 151.691406 57.972656 151.328125 56.878906 150.9375 C 55.789062 150.546875 54.707031 150.128906 53.636719 149.6875 C 52.5625 149.242188 51.503906 148.773438 50.457031 148.277344 C 49.40625 147.78125 48.371094 147.257812 47.347656 146.714844 C 46.328125 146.167969 45.316406 145.59375 44.324219 145 C 43.328125 144.402344 42.347656 143.78125 41.386719 143.136719 C 40.421875 142.492188 39.472656 141.828125 38.542969 141.136719 C 37.609375 140.445312 36.695312 139.730469 35.800781 138.996094 C 34.902344 138.261719 34.027344 137.503906 33.167969 136.722656 C 32.308594 135.945312 31.46875 135.144531 30.648438 134.328125 C 29.828125 133.507812 29.027344 132.667969 28.25 131.808594 C 27.472656 130.949219 26.714844 130.070312 25.976562 129.175781 C 25.242188 128.277344 24.527344 127.363281 23.839844 126.433594 C 23.148438 125.5 22.480469 124.554688 21.835938 123.589844 C 21.191406 122.625 20.570312 121.644531 19.976562 120.652344 C 19.378906 119.65625 18.808594 118.648438 18.261719 117.625 C 17.714844 116.601562 17.191406 115.566406 16.695312 114.519531 C 16.203125 113.46875 15.730469 112.410156 15.289062 111.339844 C 14.84375 110.269531 14.425781 109.1875 14.035156 108.09375 C 13.644531 107.003906 13.28125 105.902344 12.945312 104.792969 C 12.609375 103.683594 12.300781 102.566406 12.019531 101.441406 C 11.734375 100.316406 11.480469 99.183594 11.253906 98.046875 C 11.03125 96.910156 10.832031 95.765625 10.660156 94.621094 C 10.492188 93.472656 10.347656 92.324219 10.234375 91.167969 C 10.121094 90.015625 10.035156 88.859375 9.980469 87.699219 C 9.921875 86.542969 9.894531 85.382812 9.894531 84.222656 C 9.894531 83.0625 9.921875 81.90625 9.980469 80.746094 C 10.035156 79.589844 10.121094 78.433594 10.234375 77.277344 C 10.347656 76.125 10.492188 74.972656 10.660156 73.828125 C 10.832031 72.679688 11.03125 71.539062 11.253906 70.402344 C 11.480469 69.261719 11.734375 68.132812 12.019531 67.007812 C 12.300781 65.882812 12.609375 64.765625 12.945312 63.65625 C 13.28125 62.546875 13.644531 61.445312 14.035156 60.351562 C 14.425781 59.261719 14.84375 58.179688 15.289062 57.109375 C 15.730469 56.035156 16.203125 54.976562 16.695312 53.929688 C 17.191406 52.878906 17.714844 51.84375 18.261719 50.824219 C 18.808594 49.800781 19.378906 48.792969 19.976562 47.796875 C 20.570312 46.800781 21.191406 45.824219 21.835938 44.859375 C 22.480469 43.894531 23.148438 42.945312 23.839844 42.015625 C 24.527344 41.082031 25.242188 40.167969 25.976562 39.273438 C 26.714844 38.375 27.472656 37.5 28.25 36.640625 C 29.027344 35.78125 29.828125 34.941406 30.648438 34.121094 C 31.46875 33.300781 32.308594 32.5 33.167969 31.722656 C 34.027344 30.945312 34.902344 30.1875 35.800781 29.453125 C 36.695312 28.714844 37.609375 28.003906 38.542969 27.3125 C 39.472656 26.621094 40.421875 25.953125 41.386719 25.308594 C 42.347656 24.664062 43.328125 24.042969 44.324219 23.449219 C 45.316406 22.851562 46.328125 22.28125 47.347656 21.734375 C 48.371094 21.1875 49.40625 20.667969 50.457031 20.171875 C 51.503906 19.675781 52.5625 19.207031 53.636719 18.761719 C 54.707031 18.316406 55.789062 17.902344 56.878906 17.507812 C 57.972656 17.117188 59.070312 16.753906 60.183594 16.417969 C 61.292969 16.082031 62.410156 15.773438 63.535156 15.492188 C 64.660156 15.210938 65.789062 14.957031 66.925781 14.730469 C 68.0625 14.503906 69.207031 14.304688 70.355469 14.132812 C 71.5 13.964844 72.652344 13.824219 73.804688 13.710938 C 74.960938 13.59375 76.117188 13.511719 77.273438 13.453125 C 78.433594 13.394531 79.589844 13.367188 80.75 13.367188 C 81.910156 13.367188 83.070312 13.394531 84.226562 13.453125 C 85.386719 13.511719 86.542969 13.59375 87.695312 13.710938 C 88.847656 13.824219 90 13.964844 91.148438 14.132812 C 92.292969 14.304688 93.4375 14.503906 94.574219 14.730469 C 95.710938 14.957031 96.84375 15.210938 97.964844 15.492188 C 99.089844 15.773438 100.207031 16.082031 101.320312 16.417969 C 102.429688 16.753906 103.527344 17.117188 104.621094 17.507812 C 105.710938 17.902344 106.792969 18.316406 107.867188 18.761719 C 108.9375 19.207031 109.996094 19.675781 111.046875 20.171875 C 112.09375 20.667969 113.128906 21.1875 114.152344 21.734375 C 115.175781 22.28125 116.183594 22.851562 117.175781 23.449219 C 118.171875 24.042969 119.152344 24.664062 120.117188 25.308594 C 121.078125 25.953125 122.027344 26.621094 122.960938 27.3125 C 123.890625 28.003906 124.804688 28.714844 125.699219 29.453125 C 126.597656 30.1875 127.476562 30.945312 128.335938 31.722656 C 129.195312 32.5 130.03125 33.300781 130.851562 34.121094 C 131.671875 34.941406 132.472656 35.78125 133.25 36.640625 C 134.03125 37.5 134.789062 38.375 135.523438 39.273438 C 136.257812 40.167969 136.972656 41.082031 137.664062 42.015625 C 138.351562 42.945312 139.019531 43.894531 139.664062 44.859375 C 140.308594 45.824219 140.929688 46.800781 141.527344 47.796875 C 142.121094 48.792969 142.691406 49.800781 143.238281 50.824219 C 143.785156 51.84375 144.308594 52.878906 144.804688 53.929688 C 145.300781 54.976562 145.769531 56.035156 146.210938 57.109375 C 146.65625 58.179688 147.074219 59.261719 147.464844 60.351562 C 147.855469 61.445312 148.21875 62.546875 148.554688 63.65625 C 148.890625 64.765625 149.199219 65.882812 149.484375 67.007812 C 149.765625 68.132812 150.019531 69.261719 150.246094 70.402344 C 150.472656 71.539062 150.667969 72.679688 150.839844 73.828125 C 151.007812 74.972656 151.152344 76.125 151.265625 77.277344 C 151.378906 78.433594 151.464844 79.589844 151.519531 80.746094 C 151.578125 81.90625 151.605469 83.0625 151.605469 84.222656 Z M 151.605469 84.222656 " fill-opacity="1" fill-rule="nonzero"/></g></g></g><g mask="url(#4e8e49f02e)"><g transform="matrix(1, 0, 0, 1, 890, 343)"><g clip-path="url(#d5f4f599fa)"><path fill="#ffffff" d="M 147.503906 87.304688 C 147.503906 88.464844 147.476562 89.621094 147.417969 90.78125 C 147.363281 91.9375 147.277344 93.09375 147.164062 94.25 C 147.050781 95.402344 146.90625 96.554688 146.738281 97.703125 C 146.566406 98.847656 146.371094 99.992188 146.144531 101.128906 C 145.917969 102.265625 145.664062 103.394531 145.382812 104.519531 C 145.097656 105.644531 144.789062 106.761719 144.453125 107.871094 C 144.117188 108.984375 143.753906 110.082031 143.363281 111.175781 C 142.972656 112.265625 142.554688 113.347656 142.109375 114.417969 C 141.667969 115.492188 141.199219 116.550781 140.703125 117.597656 C 140.207031 118.648438 139.683594 119.683594 139.136719 120.707031 C 138.589844 121.726562 138.019531 122.738281 137.425781 123.730469 C 136.828125 124.726562 136.207031 125.707031 135.5625 126.667969 C 134.917969 127.632812 134.25 128.582031 133.5625 129.511719 C 132.871094 130.445312 132.15625 131.359375 131.421875 132.253906 C 130.6875 133.152344 129.929688 134.027344 129.148438 134.886719 C 128.371094 135.746094 127.570312 136.585938 126.75 137.40625 C 125.933594 138.226562 125.09375 139.027344 124.234375 139.804688 C 123.375 140.585938 122.496094 141.339844 121.597656 142.078125 C 120.703125 142.8125 119.789062 143.527344 118.859375 144.214844 C 117.925781 144.90625 116.976562 145.574219 116.015625 146.21875 C 115.050781 146.863281 114.070312 147.484375 113.074219 148.078125 C 112.082031 148.675781 111.074219 149.246094 110.050781 149.792969 C 109.027344 150.339844 107.992188 150.863281 106.945312 151.359375 C 105.894531 151.851562 104.835938 152.324219 103.765625 152.765625 C 102.691406 153.210938 101.613281 153.628906 100.519531 154.019531 C 99.429688 154.410156 98.328125 154.773438 97.21875 155.109375 C 96.109375 155.445312 94.992188 155.753906 93.867188 156.035156 C 92.742188 156.320312 91.609375 156.574219 90.472656 156.800781 C 89.335938 157.023438 88.191406 157.222656 87.046875 157.394531 C 85.898438 157.5625 84.75 157.707031 83.59375 157.820312 C 82.441406 157.933594 81.285156 158.019531 80.125 158.074219 C 78.96875 158.132812 77.808594 158.160156 76.648438 158.160156 C 75.488281 158.160156 74.332031 158.132812 73.171875 158.074219 C 72.015625 158.019531 70.859375 157.933594 69.703125 157.820312 C 68.550781 157.707031 67.398438 157.5625 66.253906 157.394531 C 65.105469 157.222656 63.960938 157.023438 62.824219 156.800781 C 61.6875 156.574219 60.558594 156.320312 59.433594 156.035156 C 58.308594 155.753906 57.191406 155.445312 56.082031 155.109375 C 54.972656 154.773438 53.871094 154.410156 52.777344 154.019531 C 51.6875 153.628906 50.605469 153.210938 49.535156 152.765625 C 48.460938 152.324219 47.402344 151.851562 46.355469 151.359375 C 45.304688 150.863281 44.269531 150.339844 43.246094 149.792969 C 42.226562 149.246094 41.214844 148.675781 40.222656 148.078125 C 39.226562 147.484375 38.246094 146.863281 37.285156 146.21875 C 36.320312 145.574219 35.371094 144.90625 34.441406 144.214844 C 33.507812 143.527344 32.59375 142.8125 31.699219 142.078125 C 30.800781 141.339844 29.925781 140.585938 29.066406 139.804688 C 28.207031 139.027344 27.367188 138.226562 26.546875 137.40625 C 25.726562 136.585938 24.925781 135.746094 24.148438 134.886719 C 23.371094 134.027344 22.613281 133.152344 21.875 132.253906 C 21.140625 131.359375 20.425781 130.445312 19.738281 129.511719 C 19.046875 128.582031 18.378906 127.632812 17.734375 126.671875 C 17.089844 125.707031 16.46875 124.726562 15.875 123.730469 C 15.277344 122.738281 14.707031 121.726562 14.160156 120.707031 C 13.613281 119.683594 13.089844 118.648438 12.597656 117.597656 C 12.101562 116.550781 11.628906 115.492188 11.1875 114.417969 C 10.742188 113.347656 10.324219 112.265625 9.933594 111.175781 C 9.542969 110.082031 9.179688 108.984375 8.84375 107.871094 C 8.507812 106.761719 8.199219 105.644531 7.917969 104.519531 C 7.632812 103.394531 7.378906 102.265625 7.15625 101.128906 C 6.929688 99.992188 6.730469 98.847656 6.558594 97.703125 C 6.390625 96.554688 6.246094 95.402344 6.132812 94.25 C 6.019531 93.09375 5.933594 91.9375 5.878906 90.78125 C 5.820312 89.621094 5.792969 88.464844 5.792969 87.304688 C 5.792969 86.144531 5.820312 84.984375 5.878906 83.828125 C 5.933594 82.667969 6.019531 81.511719 6.132812 80.359375 C 6.246094 79.207031 6.390625 78.054688 6.558594 76.90625 C 6.730469 75.761719 6.929688 74.617188 7.15625 73.480469 C 7.378906 72.34375 7.632812 71.210938 7.917969 70.085938 C 8.199219 68.964844 8.507812 67.847656 8.84375 66.734375 C 9.179688 65.625 9.542969 64.527344 9.933594 63.433594 C 10.324219 62.34375 10.742188 61.261719 11.1875 60.1875 C 11.628906 59.117188 12.101562 58.058594 12.597656 57.007812 C 13.089844 55.960938 13.613281 54.925781 14.160156 53.902344 C 14.707031 52.878906 15.277344 51.871094 15.875 50.878906 C 16.46875 49.882812 17.089844 48.902344 17.734375 47.9375 C 18.378906 46.976562 19.046875 46.027344 19.738281 45.09375 C 20.425781 44.164062 21.140625 43.25 21.875 42.355469 C 22.613281 41.457031 23.371094 40.578125 24.148438 39.71875 C 24.925781 38.859375 25.726562 38.023438 26.546875 37.203125 C 27.367188 36.382812 28.207031 35.582031 29.066406 34.804688 C 29.925781 34.023438 30.800781 33.269531 31.699219 32.53125 C 32.59375 31.796875 33.507812 31.082031 34.441406 30.390625 C 35.371094 29.703125 36.320312 29.035156 37.285156 28.390625 C 38.246094 27.746094 39.226562 27.125 40.222656 26.527344 C 41.214844 25.933594 42.226562 25.363281 43.246094 24.816406 C 44.269531 24.269531 45.304688 23.746094 46.355469 23.25 C 47.402344 22.753906 48.460938 22.285156 49.535156 21.84375 C 50.605469 21.398438 51.6875 20.980469 52.777344 20.589844 C 53.871094 20.199219 54.972656 19.835938 56.082031 19.5 C 57.191406 19.164062 58.308594 18.855469 59.433594 18.570312 C 60.558594 18.289062 61.6875 18.035156 62.824219 17.808594 C 63.960938 17.582031 65.105469 17.386719 66.253906 17.214844 C 67.398438 17.046875 68.550781 16.902344 69.703125 16.789062 C 70.859375 16.675781 72.015625 16.589844 73.171875 16.535156 C 74.332031 16.476562 75.488281 16.449219 76.648438 16.449219 C 77.808594 16.449219 78.96875 16.476562 80.125 16.535156 C 81.285156 16.589844 82.441406 16.675781 83.59375 16.789062 C 84.75 16.902344 85.898438 17.046875 87.046875 17.214844 C 88.191406 17.386719 89.335938 17.582031 90.472656 17.808594 C 91.609375 18.035156 92.742188 18.289062 93.867188 18.570312 C 94.992188 18.855469 96.109375 19.164062 97.21875 19.5 C 98.328125 19.835938 99.429688 20.199219 100.519531 20.589844 C 101.613281 20.980469 102.691406 21.398438 103.765625 21.84375 C 104.835938 22.285156 105.894531 22.753906 106.945312 23.25 C 107.992188 23.746094 109.027344 24.269531 110.050781 24.816406 C 111.074219 25.363281 112.082031 25.933594 113.074219 26.527344 C 114.070312 27.125 115.050781 27.746094 116.015625 28.390625 C 116.976562 29.035156 117.925781 29.703125 118.859375 30.390625 C 119.789062 31.082031 120.703125 31.796875 121.597656 32.53125 C 122.496094 33.269531 123.375 34.023438 124.234375 34.804688 C 125.09375 35.582031 125.933594 36.382812 126.75 37.203125 C 127.570312 38.023438 128.371094 38.859375 129.148438 39.71875 C 129.929688 40.578125 130.6875 41.457031 131.421875 42.355469 C 132.15625 43.25 132.871094 44.164062 133.5625 45.09375 C 134.25 46.027344 134.917969 46.976562 135.5625 47.9375 C 136.207031 48.902344 136.828125 49.882812 137.425781 50.878906 C 138.019531 51.871094 138.589844 52.878906 139.136719 53.902344 C 139.683594 54.925781 140.207031 55.960938 140.703125 57.007812 C 141.199219 58.058594 141.667969 59.117188 142.109375 60.1875 C 142.554688 61.261719 142.972656 62.34375 143.363281 63.433594 C 143.753906 64.527344 144.117188 65.625 144.453125 66.734375 C 144.789062 67.847656 145.097656 68.964844 145.382812 70.085938 C 145.664062 71.210938 145.917969 72.34375 146.144531 73.480469 C 146.371094 74.617188 146.566406 75.761719 146.738281 76.90625 C 146.90625 78.054688 147.050781 79.207031 147.164062 80.359375 C 147.277344 81.511719 147.363281 82.667969 147.417969 83.828125 C 147.476562 84.984375 147.503906 86.144531 147.503906 87.304688 Z M 147.503906 87.304688 " fill-opacity="1" fill-rule="nonzero"/></g></g></g><g mask="url(#d36af2323b)"><g transform="matrix(1, 0, 0, 1, 1144, 379)"><g clip-path="url(#2d2d2f60f2)"><path fill="#ffffff" d="M 81.789062 48.222656 C 81.789062 49.535156 81.726562 50.84375 81.597656 52.148438 C 81.46875 53.453125 81.277344 54.75 81.019531 56.035156 C 80.765625 57.324219 80.445312 58.59375 80.066406 59.847656 C 79.683594 61.105469 79.242188 62.339844 78.742188 63.550781 C 78.238281 64.761719 77.679688 65.945312 77.058594 67.101562 C 76.441406 68.257812 75.769531 69.382812 75.039062 70.472656 C 74.3125 71.5625 73.53125 72.617188 72.699219 73.628906 C 71.867188 74.644531 70.988281 75.613281 70.058594 76.542969 C 69.132812 77.46875 68.160156 78.351562 67.148438 79.183594 C 66.132812 80.015625 65.082031 80.792969 63.992188 81.523438 C 62.898438 82.253906 61.777344 82.925781 60.621094 83.542969 C 59.460938 84.164062 58.277344 84.722656 57.066406 85.222656 C 55.855469 85.726562 54.621094 86.167969 53.367188 86.546875 C 52.109375 86.929688 50.839844 87.246094 49.554688 87.503906 C 48.265625 87.757812 46.972656 87.953125 45.667969 88.078125 C 44.359375 88.207031 43.050781 88.273438 41.742188 88.273438 C 40.429688 88.273438 39.121094 88.207031 37.816406 88.078125 C 36.511719 87.953125 35.214844 87.757812 33.925781 87.503906 C 32.640625 87.246094 31.371094 86.929688 30.113281 86.546875 C 28.859375 86.167969 27.625 85.726562 26.414062 85.222656 C 25.203125 84.722656 24.019531 84.164062 22.863281 83.542969 C 21.703125 82.925781 20.582031 82.253906 19.492188 81.523438 C 18.398438 80.792969 17.347656 80.015625 16.332031 79.183594 C 15.320312 78.351562 14.347656 77.46875 13.421875 76.542969 C 12.496094 75.613281 11.613281 74.644531 10.78125 73.628906 C 9.949219 72.617188 9.167969 71.5625 8.441406 70.472656 C 7.710938 69.382812 7.039062 68.257812 6.421875 67.101562 C 5.800781 65.945312 5.242188 64.761719 4.738281 63.550781 C 4.238281 62.339844 3.796875 61.105469 3.417969 59.847656 C 3.035156 58.59375 2.71875 57.324219 2.460938 56.035156 C 2.207031 54.75 2.011719 53.453125 1.882812 52.148438 C 1.757812 50.84375 1.691406 49.535156 1.691406 48.222656 C 1.691406 46.910156 1.757812 45.605469 1.882812 44.296875 C 2.011719 42.992188 2.207031 41.695312 2.460938 40.410156 C 2.71875 39.125 3.035156 37.851562 3.417969 36.597656 C 3.796875 35.34375 4.238281 34.109375 4.738281 32.898438 C 5.242188 31.6875 5.800781 30.5 6.421875 29.34375 C 7.039062 28.1875 7.710938 27.0625 8.441406 25.972656 C 9.167969 24.882812 9.949219 23.832031 10.78125 22.816406 C 11.613281 21.804688 12.496094 20.832031 13.421875 19.90625 C 14.347656 18.976562 15.320312 18.097656 16.332031 17.265625 C 17.347656 16.433594 18.398438 15.652344 19.492188 14.925781 C 20.582031 14.195312 21.703125 13.523438 22.863281 12.902344 C 24.019531 12.285156 25.203125 11.726562 26.414062 11.222656 C 27.625 10.722656 28.859375 10.28125 30.113281 9.898438 C 31.371094 9.519531 32.640625 9.199219 33.925781 8.945312 C 35.214844 8.6875 36.511719 8.496094 37.816406 8.367188 C 39.121094 8.238281 40.429688 8.175781 41.742188 8.175781 C 43.050781 8.175781 44.359375 8.238281 45.667969 8.367188 C 46.972656 8.496094 48.265625 8.6875 49.554688 8.945312 C 50.839844 9.199219 52.109375 9.519531 53.367188 9.898438 C 54.621094 10.28125 55.855469 10.722656 57.066406 11.222656 C 58.277344 11.726562 59.460938 12.285156 60.621094 12.902344 C 61.777344 13.523438 62.898438 14.195312 63.992188 14.925781 C 65.082031 15.652344 66.132812 16.433594 67.148438 17.265625 C 68.160156 18.097656 69.132812 18.976562 70.058594 19.90625 C 70.988281 20.832031 71.867188 21.804688 72.699219 22.816406 C 73.53125 23.832031 74.3125 24.882812 75.039062 25.972656 C 75.769531 27.0625 76.441406 28.1875 77.058594 29.34375 C 77.679688 30.5 78.238281 31.6875 78.742188 32.898438 C 79.242188 34.109375 79.683594 35.34375 80.066406 36.597656 C 80.445312 37.851562 80.765625 39.125 81.019531 40.410156 C 81.277344 41.695312 81.46875 42.992188 81.597656 44.296875 C 81.726562 45.605469 81.789062 46.910156 81.789062 48.222656 Z M 81.789062 48.222656 " fill-opacity="1" fill-rule="nonzero"/></g></g></g></svg>