<svg xmlns="http://www.w3.org/2000/svg" xmlns:xlink="http://www.w3.org/1999/xlink" width="1920" zoomAndPan="magnify" viewBox="0 0 1440 809.999993" height="1080" preserveAspectRatio="xMidYMid meet" version="1.0"><defs><filter x="0%" y="0%" width="100%" height="100%" id="ac3138f223"><feColorMatrix values="0 0 0 0 1 0 0 0 0 1 0 0 0 0 1 0 0 0 1 0" color-interpolation-filters="sRGB"/></filter><mask id="3ab5bb747d"><g filter="url(#ac3138f223)"><rect x="-144" width="1728" fill="#000000" y="-80.999999" height="971.999992" fill-opacity="0.52"/></g></mask><clipPath id="6b39e31f72"><path d="M 0 0 L 1440 0 L 1440 720 L 0 720 Z M 0 0 " clip-rule="nonzero"/></clipPath><clipPath id="4226597989"><rect x="0" width="1440" y="0" height="720"/></clipPath></defs><g mask="url(#3ab5bb747d)"><g transform="matrix(1, 0, 0, 1, 0, 90)"><g clip-path="url(#4226597989)"><g clip-path="url(#6b39e31f72)"><path fill="#e67644" d="M 1439.996094 719.992188 L 1362.585938 719.992188 C 1362.585938 365.667969 1074.316406 77.398438 720 77.398438 C 365.667969 77.398438 77.398438 365.667969 77.398438 719.992188 L -0.00390625 719.992188 C -0.00390625 322.988281 322.988281 0 719.996094 0 C 1117.003906 0 1439.996094 322.988281 1439.996094 719.992188 Z M 1439.996094 719.992188 " fill-opacity="1" fill-rule="nonzero"/></g></g></g></g></svg>