<svg xmlns="http://www.w3.org/2000/svg" xmlns:xlink="http://www.w3.org/1999/xlink" width="1920" zoomAndPan="magnify" viewBox="0 0 1440 809.999993" height="1080" preserveAspectRatio="xMidYMid meet" version="1.0"><defs><filter x="0%" y="0%" width="100%" height="100%" id="6ae951296b"><feColorMatrix values="0 0 0 0 1 0 0 0 0 1 0 0 0 0 1 0 0 0 1 0" color-interpolation-filters="sRGB"/></filter><mask id="9b34c03059"><g filter="url(#6ae951296b)"><rect x="-144" width="1728" fill="#000000" y="-80.999999" height="971.999992" fill-opacity="0.52"/></g></mask><clipPath id="175506c791"><path d="M 70 65 L 1388 65 L 1388 796 L 70 796 Z M 70 65 " clip-rule="nonzero"/></clipPath><clipPath id="253089c4b3"><path d="M 4.617188 139.007812 L 1318.804688 0.1875 L 1388.214844 657.28125 L 74.027344 796.101562 Z M 4.617188 139.007812 " clip-rule="nonzero"/></clipPath><clipPath id="63c6e2a952"><path d="M 4.617188 139.007812 L 1318.804688 0.1875 L 1388.214844 657.28125 L 74.027344 796.101562 Z M 4.617188 139.007812 " clip-rule="nonzero"/></clipPath><clipPath id="d5809778e0"><rect x="0" width="1388" y="0" height="796"/></clipPath><mask id="29a221cd01"><g filter="url(#6ae951296b)"><rect x="-144" width="1728" fill="#000000" y="-80.999999" height="971.999992" fill-opacity="0.52"/></g></mask><clipPath id="1cfaabe533"><path d="M 107 104 L 960.480469 104 L 960.480469 660 L 107 660 Z M 107 104 " clip-rule="nonzero"/></clipPath><clipPath id="378ce5c1ca"><path d="M 3.851562 241.964844 L 839.71875 0.65625 L 960.371094 418.589844 L 124.507812 659.894531 Z M 3.851562 241.964844 " clip-rule="nonzero"/></clipPath><clipPath id="52e8459ca0"><path d="M 3.851562 241.964844 L 839.71875 0.65625 L 960.371094 418.589844 L 124.507812 659.894531 Z M 3.851562 241.964844 " clip-rule="nonzero"/></clipPath><clipPath id="6e3c1ab2d0"><rect x="0" width="961" y="0" height="661"/></clipPath></defs><g mask="url(#9b34c03059)"><g transform="matrix(1, 0, 0, 1, 52, 14)"><g clip-path="url(#d5809778e0)"><g clip-path="url(#175506c791)"><g clip-path="url(#253089c4b3)"><g clip-path="url(#63c6e2a952)"><path fill="#e67644" d="M 1387.988281 657.191406 L 1317.355469 664.652344 C 1283.203125 341.339844 992.375 106.082031 669.066406 140.234375 C 345.746094 174.386719 110.488281 465.214844 144.640625 788.527344 L 74.011719 795.988281 C 35.746094 433.730469 299.339844 107.875 661.601562 69.609375 C 1023.867188 31.34375 1349.722656 294.933594 1387.988281 657.191406 Z M 1387.988281 657.191406 " fill-opacity="1" fill-rule="nonzero"/></g></g></g></g></g></g><g mask="url(#29a221cd01)"><g transform="matrix(1, 0, 0, 1, 330, 97)"><g clip-path="url(#6e3c1ab2d0)"><g clip-path="url(#1cfaabe533)"><g clip-path="url(#378ce5c1ca)"><g clip-path="url(#52e8459ca0)"><path fill="#e67644" d="M 960.242188 418.558594 L 915.316406 431.527344 C 855.949219 225.886719 640.34375 106.878906 434.703125 166.246094 C 229.054688 225.613281 110.046875 441.222656 169.414062 646.863281 L 124.492188 659.832031 C 57.972656 429.417969 191.316406 187.84375 421.730469 121.324219 C 652.148438 54.804688 893.726562 188.144531 960.242188 418.558594 Z M 960.242188 418.558594 " fill-opacity="1" fill-rule="nonzero"/></g></g></g></g></g></g></svg>