<svg xmlns="http://www.w3.org/2000/svg" xmlns:xlink="http://www.w3.org/1999/xlink" width="1920" zoomAndPan="magnify" viewBox="0 0 1440 809.999993" height="1080" preserveAspectRatio="xMidYMid meet" version="1.0"><defs><filter x="0%" y="0%" width="100%" height="100%" id="9ee02f8c07"><feColorMatrix values="0 0 0 0 1 0 0 0 0 1 0 0 0 0 1 0 0 0 1 0" color-interpolation-filters="sRGB"/></filter><mask id="806931464f"><g filter="url(#9ee02f8c07)"><rect x="-144" width="1728" fill="#000000" y="-80.999999" height="971.999992" fill-opacity="0.04"/></g></mask><clipPath id="a91e32f59c"><rect x="0" width="89" y="0" height="245"/></clipPath><mask id="df60932189"><g filter="url(#9ee02f8c07)"><rect x="-144" width="1728" fill="#000000" y="-80.999999" height="971.999992" fill-opacity="0.03"/></g></mask><clipPath id="c1ed4f357a"><rect x="0" width="71" y="0" height="299"/></clipPath><mask id="49776d2238"><g filter="url(#9ee02f8c07)"><rect x="-144" width="1728" fill="#000000" y="-80.999999" height="971.999992" fill-opacity="0.04"/></g></mask><clipPath id="10a98857b7"><rect x="0" width="232" y="0" height="265"/></clipPath><mask id="df76d5489a"><g filter="url(#9ee02f8c07)"><rect x="-144" width="1728" fill="#000000" y="-80.999999" height="971.999992" fill-opacity="0.87"/></g></mask><clipPath id="c4abe156a9"><path d="M 0.195312 1.195312 L 8.707031 1.195312 L 8.707031 9.703125 L 0.195312 9.703125 Z M 0.195312 1.195312 " clip-rule="nonzero"/></clipPath><clipPath id="2715b1634d"><path d="M 4.453125 1.195312 C 2.101562 1.195312 0.195312 3.097656 0.195312 5.449219 C 0.195312 7.800781 2.101562 9.703125 4.453125 9.703125 C 6.800781 9.703125 8.707031 7.800781 8.707031 5.449219 C 8.707031 3.097656 6.800781 1.195312 4.453125 1.195312 Z M 4.453125 1.195312 " clip-rule="nonzero"/></clipPath><clipPath id="3d5db3ba92"><rect x="0" width="9" y="0" height="10"/></clipPath><mask id="80864d873b"><g filter="url(#9ee02f8c07)"><rect x="-144" width="1728" fill="#000000" y="-80.999999" height="971.999992" fill-opacity="0.87"/></g></mask><clipPath id="016159a13f"><path d="M 0.148438 0.546875 L 11.789062 0.546875 L 11.789062 12.1875 L 0.148438 12.1875 Z M 0.148438 0.546875 " clip-rule="nonzero"/></clipPath><clipPath id="ebe48b967f"><path d="M 5.96875 0.546875 C 2.753906 0.546875 0.148438 3.152344 0.148438 6.367188 C 0.148438 9.582031 2.753906 12.1875 5.96875 12.1875 C 9.183594 12.1875 11.789062 9.582031 11.789062 6.367188 C 11.789062 3.152344 9.183594 0.546875 5.96875 0.546875 Z M 5.96875 0.546875 " clip-rule="nonzero"/></clipPath><clipPath id="00a2fcac3e"><rect x="0" width="12" y="0" height="13"/></clipPath><mask id="3ceaaae725"><g filter="url(#9ee02f8c07)"><rect x="-144" width="1728" fill="#000000" y="-80.999999" height="971.999992" fill-opacity="0.87"/></g></mask><clipPath id="886c7227f0"><path d="M 0.300781 0.761719 L 11.945312 0.761719 L 11.945312 12.402344 L 0.300781 12.402344 Z M 0.300781 0.761719 " clip-rule="nonzero"/></clipPath><clipPath id="f3b01b917f"><path d="M 6.125 0.761719 C 2.910156 0.761719 0.300781 3.367188 0.300781 6.582031 C 0.300781 9.796875 2.910156 12.402344 6.125 12.402344 C 9.339844 12.402344 11.945312 9.796875 11.945312 6.582031 C 11.945312 3.367188 9.339844 0.761719 6.125 0.761719 Z M 6.125 0.761719 " clip-rule="nonzero"/></clipPath><clipPath id="5358f71c6e"><rect x="0" width="12" y="0" height="13"/></clipPath></defs><g mask="url(#806931464f)"><g transform="matrix(1, 0, 0, 1, 632, 532)"><g clip-path="url(#a91e32f59c)"><path fill="#000000" d="M 64.167969 239.792969 L 64.296875 234.164062 L 66.160156 234.210938 L 66.027344 239.835938 Z M 64.328125 232.3125 L 64.386719 226.738281 L 66.25 226.757812 L 66.191406 232.332031 Z M 64.394531 224.902344 L 64.378906 219.3125 L 66.242188 219.304688 L 66.257812 224.898438 Z M 64.359375 217.453125 L 64.269531 211.863281 L 66.128906 211.832031 L 66.222656 217.421875 Z M 64.226562 210.019531 L 64.054688 204.464844 L 65.917969 204.40625 L 66.085938 209.964844 Z M 63.984375 202.601562 L 63.734375 197.003906 L 65.59375 196.917969 L 65.84375 202.519531 Z M 63.636719 195.160156 L 63.304688 189.621094 L 65.160156 189.511719 L 65.496094 195.050781 Z M 63.179688 187.773438 L 62.753906 182.171875 L 64.609375 182.03125 L 65.035156 187.632812 Z M 62.601562 180.332031 L 62.09375 174.796875 L 63.949219 174.625 L 64.453125 180.160156 Z M 61.914062 172.976562 L 61.308594 167.386719 L 63.160156 167.183594 L 63.761719 172.777344 Z M 61.09375 165.546875 L 60.402344 160.023438 L 62.25 159.792969 L 62.941406 165.316406 Z M 60.160156 158.207031 L 59.367188 152.65625 L 61.207031 152.390625 L 62.003906 157.945312 Z M 59.089844 150.828125 L 58.199219 145.324219 L 60.039062 145.027344 L 60.925781 150.53125 Z M 57.894531 143.515625 L 56.902344 138.007812 L 58.734375 137.675781 L 59.726562 143.1875 Z M 56.554688 136.1875 L 55.464844 130.71875 L 57.289062 130.351562 L 58.382812 135.824219 Z M 55.085938 128.925781 L 53.886719 123.460938 L 55.703125 123.0625 L 56.90625 128.523438 Z M 53.472656 121.65625 L 52.164062 116.234375 L 53.972656 115.796875 L 55.28125 121.222656 Z M 51.714844 114.457031 L 50.296875 109.046875 L 52.097656 108.574219 L 53.515625 113.984375 Z M 49.808594 107.265625 L 48.277344 101.898438 L 50.066406 101.386719 L 51.597656 106.753906 Z M 47.753906 100.140625 L 46.105469 94.796875 L 47.882812 94.25 L 49.535156 99.59375 Z M 45.539062 93.039062 L 43.777344 87.746094 L 45.542969 87.160156 L 47.308594 92.453125 Z M 43.179688 86.015625 L 41.292969 80.75 L 43.042969 80.121094 L 44.933594 85.386719 Z M 40.652344 79.019531 L 38.648438 73.816406 L 40.386719 73.148438 L 42.386719 78.351562 Z M 37.972656 72.113281 L 35.839844 66.9375 L 37.5625 66.226562 L 39.691406 71.40625 Z M 35.121094 65.242188 L 32.875 60.140625 L 34.578125 59.390625 L 36.824219 64.492188 Z M 32.117188 58.472656 L 29.738281 53.402344 L 31.421875 52.613281 L 33.800781 57.683594 Z M 28.933594 51.738281 C 28.117188 50.074219 27.289062 48.414062 26.449219 46.769531 L 28.105469 45.921875 C 28.953125 47.578125 29.785156 49.246094 30.605469 50.921875 Z M 25.597656 45.121094 C 24.738281 43.46875 23.867188 41.828125 22.980469 40.195312 L 24.617188 39.304688 C 25.507812 40.949219 26.386719 42.597656 27.25 44.261719 Z M 22.089844 38.570312 C 21.191406 36.945312 20.28125 35.332031 19.359375 33.730469 L 20.96875 32.800781 C 21.902344 34.410156 22.816406 36.035156 23.71875 37.667969 Z M 18.421875 32.121094 C 17.484375 30.515625 16.53125 28.921875 15.5625 27.339844 L 17.148438 26.371094 C 18.125 27.960938 19.082031 29.566406 20.03125 31.179688 Z M 14.589844 25.761719 C 13.609375 24.1875 12.617188 22.621094 11.609375 21.066406 L 13.171875 20.050781 C 14.183594 21.617188 15.183594 23.195312 16.167969 24.78125 Z M 10.59375 19.507812 C 9.574219 17.957031 8.539062 16.417969 7.492188 14.886719 L 9.027344 13.832031 C 10.082031 15.375 11.125 16.925781 12.148438 18.488281 Z M 6.441406 13.363281 L 4.527344 10.648438 L 6.050781 9.578125 L 7.960938 12.292969 Z M 6.441406 13.363281 " fill-opacity="1" fill-rule="nonzero"/></g></g></g><g mask="url(#df60932189)"><g transform="matrix(1, 0, 0, 1, 785, 22)"><g clip-path="url(#c1ed4f357a)"><path fill="#000000" d="M 28.730469 293.664062 C 29.871094 292.210938 30.980469 290.730469 32.050781 289.226562 L 33.566406 290.304688 C 32.480469 291.832031 31.355469 293.335938 30.195312 294.8125 Z M 33.109375 287.710938 C 34.15625 286.191406 35.171875 284.648438 36.148438 283.078125 L 37.730469 284.0625 C 36.734375 285.65625 35.707031 287.226562 34.644531 288.769531 Z M 37.113281 281.503906 C 38.066406 279.921875 38.984375 278.320312 39.867188 276.6875 L 41.503906 277.574219 C 40.605469 279.230469 39.675781 280.859375 38.707031 282.464844 Z M 40.730469 275.0625 C 41.585938 273.429688 42.402344 271.773438 43.1875 270.089844 L 44.875 270.878906 C 44.078125 272.585938 43.246094 274.265625 42.378906 275.925781 Z M 43.957031 268.414062 C 44.710938 266.738281 45.433594 265.035156 46.121094 263.308594 L 47.851562 263.996094 C 47.152344 265.75 46.421875 267.476562 45.65625 269.179688 Z M 46.792969 261.589844 C 47.449219 259.871094 48.074219 258.132812 48.667969 256.367188 L 50.433594 256.960938 C 49.832031 258.75 49.199219 260.515625 48.53125 262.253906 Z M 49.246094 254.617188 C 49.808594 252.863281 50.339844 251.09375 50.839844 249.296875 L 52.632812 249.796875 C 52.125 251.617188 51.585938 253.410156 51.015625 255.183594 Z M 51.324219 247.515625 C 51.792969 245.742188 52.234375 243.941406 52.644531 242.125 L 54.460938 242.535156 C 54.046875 244.375 53.597656 246.195312 53.121094 247.996094 Z M 53.042969 240.320312 C 53.425781 238.523438 53.78125 236.707031 54.105469 234.867188 L 55.9375 235.191406 C 55.609375 237.050781 55.25 238.890625 54.863281 240.707031 Z M 54.417969 233.046875 C 54.71875 231.234375 54.992188 229.402344 55.238281 227.546875 L 57.082031 227.792969 C 56.835938 229.664062 56.558594 231.519531 56.253906 233.351562 Z M 55.46875 225.71875 C 55.691406 223.890625 55.890625 222.046875 56.058594 220.183594 L 57.914062 220.351562 C 57.742188 222.234375 57.542969 224.097656 57.316406 225.941406 Z M 56.214844 218.347656 C 56.367188 216.511719 56.488281 214.660156 56.589844 212.789062 L 58.449219 212.886719 C 58.347656 214.773438 58.222656 216.644531 58.074219 218.496094 Z M 56.675781 210.949219 C 56.757812 209.105469 56.8125 207.246094 56.84375 205.371094 L 58.707031 205.402344 C 58.675781 207.296875 58.617188 209.171875 58.535156 211.03125 Z M 56.871094 203.535156 C 56.886719 201.691406 56.878906 199.832031 56.847656 197.957031 L 58.710938 197.929688 C 58.738281 199.820312 58.746094 201.691406 58.730469 203.550781 Z M 56.8125 196.109375 C 56.769531 194.273438 56.703125 192.421875 56.613281 190.554688 L 58.472656 190.46875 C 58.5625 192.351562 58.628906 194.214844 58.671875 196.066406 Z M 56.519531 188.683594 C 56.421875 186.855469 56.300781 185.015625 56.160156 183.15625 L 58.015625 183.015625 C 58.160156 184.886719 58.277344 186.742188 58.378906 188.582031 Z M 56.011719 181.296875 C 55.863281 179.46875 55.691406 177.625 55.5 175.769531 L 57.355469 175.578125 C 57.546875 177.445312 57.71875 179.300781 57.867188 181.140625 Z M 55.308594 173.929688 L 54.648438 168.378906 L 56.496094 168.160156 L 57.15625 173.707031 Z M 54.410156 166.5625 L 53.617188 161.007812 L 55.460938 160.746094 L 56.253906 166.296875 Z M 53.339844 159.207031 L 52.421875 153.6875 L 54.257812 153.382812 L 55.175781 158.902344 Z M 52.101562 151.863281 L 51.074219 146.402344 L 52.90625 146.058594 L 53.929688 151.519531 Z M 50.714844 144.582031 L 49.578125 139.121094 L 51.402344 138.742188 L 52.539062 144.203125 Z M 49.1875 137.324219 L 47.941406 131.851562 L 49.757812 131.441406 L 51.003906 136.910156 Z M 47.523438 130.074219 L 46.1875 124.648438 L 47.996094 124.203125 L 49.328125 129.628906 Z M 45.726562 122.839844 L 44.3125 117.46875 L 46.113281 116.996094 L 47.527344 122.363281 Z M 43.828125 115.683594 L 42.320312 110.292969 L 44.113281 109.789062 L 45.621094 115.179688 Z M 41.8125 108.527344 L 40.222656 103.160156 L 42.007812 102.632812 L 43.597656 108 Z M 39.679688 101.371094 L 38.035156 96.074219 L 39.8125 95.523438 L 41.457031 100.820312 Z M 37.472656 94.308594 L 35.738281 88.984375 L 37.507812 88.40625 L 39.242188 93.730469 Z M 35.160156 87.238281 L 33.363281 81.945312 L 35.125 81.34375 L 36.921875 86.640625 Z M 32.75 80.175781 L 30.90625 74.9375 L 32.660156 74.320312 L 34.507812 79.558594 Z M 30.28125 73.195312 L 28.351562 67.917969 L 30.101562 67.28125 L 32.027344 72.558594 Z M 27.714844 66.199219 L 25.746094 60.988281 L 27.488281 60.328125 L 29.457031 65.542969 Z M 25.078125 59.246094 L 23.054688 54.046875 L 24.789062 53.371094 L 26.816406 58.574219 Z M 22.378906 52.332031 L 20.296875 47.132812 L 22.023438 46.441406 L 24.105469 51.640625 Z M 19.59375 45.398438 L 17.480469 40.265625 L 19.203125 39.554688 L 21.3125 44.6875 Z M 16.769531 38.554688 L 14.582031 33.375 L 16.296875 32.648438 L 18.484375 37.832031 Z M 13.859375 31.683594 L 11.65625 26.578125 L 13.363281 25.839844 L 15.570312 30.945312 Z M 10.910156 24.875 L 8.644531 19.746094 L 10.347656 18.992188 L 12.613281 24.121094 Z M 7.894531 18.066406 L 5.601562 12.980469 L 7.296875 12.214844 L 9.59375 17.300781 Z M 4.828125 11.285156 L 3.605469 8.617188 L 5.296875 7.839844 L 6.519531 10.507812 Z M 4.828125 11.285156 " fill-opacity="1" fill-rule="nonzero"/></g></g></g><g mask="url(#49776d2238)"><g transform="matrix(1, 0, 0, 1, 581, 273)"><g clip-path="url(#10a98857b7)"><path fill="#000000" d="M 226.179688 45.21875 C 224.304688 45.144531 222.441406 45.09375 220.589844 45.074219 L 220.613281 43.210938 C 222.480469 43.234375 224.359375 43.28125 226.253906 43.359375 Z M 218.75 45.058594 C 216.878906 45.054688 215.023438 45.074219 213.183594 45.125 L 213.132812 43.261719 C 214.992188 43.214844 216.863281 43.191406 218.753906 43.199219 Z M 211.332031 45.183594 C 209.46875 45.25 207.621094 45.34375 205.792969 45.46875 L 205.667969 43.613281 C 207.515625 43.488281 209.382812 43.390625 211.265625 43.320312 Z M 203.9375 45.605469 C 202.085938 45.75 200.25 45.925781 198.429688 46.128906 L 198.222656 44.277344 C 200.0625 44.070312 201.917969 43.894531 203.792969 43.75 Z M 196.578125 46.34375 C 194.730469 46.574219 192.902344 46.832031 191.089844 47.117188 L 190.796875 45.28125 C 192.628906 44.988281 194.480469 44.726562 196.347656 44.496094 Z M 189.261719 47.421875 C 187.425781 47.734375 185.605469 48.082031 183.804688 48.460938 L 183.421875 46.640625 C 185.246094 46.257812 187.085938 45.90625 188.945312 45.585938 Z M 182.007812 48.851562 C 180.1875 49.257812 178.386719 49.695312 176.605469 50.167969 L 176.128906 48.367188 C 177.933594 47.890625 179.757812 47.445312 181.605469 47.03125 Z M 174.828125 50.652344 C 173.035156 51.152344 171.261719 51.683594 169.507812 52.25 L 168.933594 50.480469 C 170.714844 49.90625 172.511719 49.363281 174.328125 48.855469 Z M 167.757812 52.832031 C 166 53.425781 164.261719 54.058594 162.542969 54.722656 L 161.871094 52.984375 C 163.613281 52.3125 165.375 51.671875 167.160156 51.066406 Z M 160.824219 55.398438 C 159.105469 56.09375 157.40625 56.820312 155.726562 57.582031 L 154.957031 55.886719 C 156.660156 55.113281 158.382812 54.375 160.128906 53.671875 Z M 154.050781 58.359375 C 152.378906 59.148438 150.726562 59.972656 149.09375 60.832031 L 148.226562 59.1875 C 149.882812 58.3125 151.558594 57.476562 153.257812 56.675781 Z M 147.464844 61.707031 C 145.84375 62.59375 144.242188 63.511719 142.660156 64.46875 L 141.699219 62.875 C 143.300781 61.90625 144.925781 60.972656 146.574219 60.074219 Z M 141.085938 65.4375 C 139.523438 66.414062 137.976562 67.429688 136.453125 68.476562 L 135.398438 66.945312 C 136.945312 65.878906 138.511719 64.851562 140.101562 63.859375 Z M 134.941406 69.535156 C 133.4375 70.605469 131.953125 71.707031 130.488281 72.84375 L 129.34375 71.375 C 130.832031 70.222656 132.335938 69.101562 133.863281 68.019531 Z M 129.039062 73.988281 C 127.601562 75.140625 126.179688 76.328125 124.78125 77.550781 L 123.554688 76.148438 C 124.976562 74.910156 126.417969 73.703125 127.878906 72.535156 Z M 123.402344 78.769531 C 122.03125 80 120.679688 81.265625 119.347656 82.566406 L 118.046875 81.230469 C 119.398438 79.914062 120.769531 78.632812 122.160156 77.386719 Z M 118.035156 83.859375 C 116.734375 85.164062 115.457031 86.496094 114.195312 87.863281 L 112.824219 86.601562 C 114.105469 85.214844 115.402344 83.863281 116.71875 82.546875 Z M 112.941406 89.234375 C 111.714844 90.597656 110.507812 91.992188 109.320312 93.421875 L 107.890625 92.226562 C 109.09375 90.785156 110.316406 89.371094 111.558594 87.992188 Z M 108.136719 94.859375 C 106.980469 96.277344 105.839844 97.730469 104.71875 99.214844 L 103.234375 98.089844 C 104.367188 96.589844 105.519531 95.121094 106.691406 93.683594 Z M 103.609375 100.703125 C 102.519531 102.179688 101.445312 103.683594 100.390625 105.21875 L 98.855469 104.164062 C 99.921875 102.613281 101.007812 101.089844 102.109375 99.597656 Z M 99.347656 106.75 C 98.324219 108.277344 97.316406 109.832031 96.320312 111.414062 L 94.746094 110.425781 C 95.746094 108.824219 96.765625 107.253906 97.804688 105.710938 Z M 95.351562 112.980469 C 94.386719 114.554688 93.4375 116.15625 92.503906 117.785156 L 90.890625 116.859375 C 91.832031 115.214844 92.789062 113.597656 93.761719 112.007812 Z M 91.601562 119.378906 C 90.699219 120.984375 89.816406 122.617188 88.945312 124.273438 L 87.296875 123.410156 C 88.175781 121.738281 89.066406 120.089844 89.976562 118.46875 Z M 88.085938 125.929688 C 87.253906 127.558594 86.429688 129.207031 85.625 130.886719 L 83.945312 130.078125 C 84.761719 128.386719 85.589844 126.722656 86.429688 125.078125 Z M 84.824219 132.570312 C 84.042969 134.230469 83.273438 135.910156 82.519531 137.617188 L 80.816406 136.867188 C 81.578125 135.144531 82.351562 133.449219 83.136719 131.777344 Z M 81.777344 139.316406 C 81.042969 141.011719 80.324219 142.726562 79.617188 144.46875 L 77.894531 143.765625 C 78.605469 142.015625 79.328125 140.285156 80.070312 138.578125 Z M 78.933594 146.171875 C 78.25 147.886719 77.582031 149.621094 76.925781 151.378906 L 75.183594 150.726562 C 75.84375 148.957031 76.515625 147.210938 77.203125 145.484375 Z M 76.277344 153.132812 C 75.648438 154.851562 75.035156 156.589844 74.429688 158.347656 L 72.667969 157.742188 C 73.277344 155.972656 73.898438 154.222656 74.53125 152.496094 Z M 73.828125 160.113281 C 73.242188 161.855469 72.667969 163.621094 72.101562 165.40625 L 70.328125 164.84375 C 70.894531 163.050781 71.472656 161.273438 72.066406 159.519531 Z M 71.554688 167.160156 L 69.941406 172.539062 L 68.15625 172.003906 L 69.769531 166.625 Z M 69.433594 174.304688 L 67.953125 179.660156 L 66.160156 179.167969 L 67.636719 173.808594 Z M 67.480469 181.453125 L 66.105469 186.867188 L 64.300781 186.410156 L 65.675781 180.996094 Z M 65.675781 188.648438 L 64.402344 194.113281 L 62.589844 193.691406 L 63.863281 188.226562 Z M 64 195.925781 L 62.84375 201.347656 L 61.023438 200.957031 L 62.179688 195.535156 Z M 62.472656 203.160156 L 61.398438 208.664062 L 59.570312 208.308594 L 60.644531 202.804688 Z M 61.0625 210.460938 L 60.085938 215.960938 L 58.253906 215.632812 L 59.230469 210.136719 Z M 59.773438 217.796875 L 58.882812 223.289062 L 57.042969 222.992188 L 57.933594 217.5 Z M 58.601562 225.109375 L 57.785156 230.667969 L 55.941406 230.394531 L 56.757812 224.839844 Z M 57.527344 232.507812 L 56.796875 238.003906 L 54.953125 237.757812 L 55.683594 232.265625 Z M 56.566406 239.839844 L 55.898438 245.429688 L 54.050781 245.210938 L 54.71875 239.617188 Z M 55.695312 247.246094 L 55.105469 252.777344 L 53.253906 252.578125 L 53.84375 247.046875 Z M 54.917969 254.625 L 54.53125 258.675781 L 52.679688 258.5 L 53.066406 254.449219 Z M 54.917969 254.625 " fill-opacity="1" fill-rule="nonzero"/></g></g></g><g mask="url(#df76d5489a)"><g transform="matrix(1, 0, 0, 1, 807, 312)"><g clip-path="url(#3d5db3ba92)"><g clip-path="url(#c4abe156a9)"><g clip-path="url(#2715b1634d)"><path fill="#df985e" d="M 0.195312 1.195312 L 8.707031 1.195312 L 8.707031 9.703125 L 0.195312 9.703125 Z M 0.195312 1.195312 " fill-opacity="1" fill-rule="nonzero"/></g></g></g></g></g><g mask="url(#80864d873b)"><g transform="matrix(1, 0, 0, 1, 628, 531)"><g clip-path="url(#00a2fcac3e)"><g clip-path="url(#016159a13f)"><g clip-path="url(#ebe48b967f)"><path fill="#df985e" d="M 0.148438 0.546875 L 11.789062 0.546875 L 11.789062 12.1875 L 0.148438 12.1875 Z M 0.148438 0.546875 " fill-opacity="1" fill-rule="nonzero"/></g></g></g></g></g><g mask="url(#3ceaaae725)"><g transform="matrix(1, 0, 0, 1, 690, 771)"><g clip-path="url(#5358f71c6e)"><g clip-path="url(#886c7227f0)"><g clip-path="url(#f3b01b917f)"><path fill="#df985e" d="M 0.300781 0.761719 L 11.945312 0.761719 L 11.945312 12.402344 L 0.300781 12.402344 Z M 0.300781 0.761719 " fill-opacity="1" fill-rule="nonzero"/></g></g></g></g></g></svg>