<svg xmlns="http://www.w3.org/2000/svg" xmlns:xlink="http://www.w3.org/1999/xlink" width="1920" zoomAndPan="magnify" viewBox="0 0 1440 809.999993" height="1080" preserveAspectRatio="xMidYMid meet" version="1.0"><defs><filter x="0%" y="0%" width="100%" height="100%" id="64421d5551"><feColorMatrix values="0 0 0 0 1 0 0 0 0 1 0 0 0 0 1 0 0 0 1 0" color-interpolation-filters="sRGB"/></filter><mask id="ca36e814b4"><g filter="url(#64421d5551)"><rect x="-144" width="1728" fill="#000000" y="-80.999999" height="971.999992" fill-opacity="0.04"/></g></mask><clipPath id="7b25b34052"><rect x="0" width="830" y="0" height="810"/></clipPath></defs><g mask="url(#ca36e814b4)"><g transform="matrix(1, 0, 0, 1, 0, 0.000000000000039746)"><g clip-path="url(#7b25b34052)"><path fill="#000000" d="M 813.710938 221.96875 L 798.246094 218.707031 L 799.332031 213.570312 L 814.792969 216.832031 Z M 793.171875 217.671875 L 777.679688 214.628906 L 778.691406 209.480469 L 794.183594 212.519531 Z M 772.585938 213.667969 L 757.058594 210.863281 L 757.992188 205.699219 L 773.519531 208.503906 Z M 751.949219 209.980469 L 736.382812 207.425781 L 737.234375 202.246094 L 752.796875 204.800781 Z M 731.261719 206.628906 L 715.660156 204.339844 L 716.421875 199.144531 L 732.023438 201.433594 Z M 710.523438 203.632812 L 694.882812 201.632812 L 695.550781 196.425781 L 711.191406 198.425781 Z M 689.722656 201.023438 C 684.46875 200.414062 679.253906 199.851562 674.085938 199.332031 L 674.609375 194.109375 C 679.804688 194.628906 685.042969 195.195312 690.324219 195.808594 Z M 668.898438 198.824219 C 663.628906 198.324219 658.40625 197.871094 653.230469 197.464844 L 653.640625 192.230469 C 658.847656 192.640625 664.097656 193.09375 669.394531 193.597656 Z M 648.042969 197.070312 C 642.761719 196.6875 637.53125 196.351562 632.34375 196.066406 L 632.632812 190.824219 C 637.851562 191.109375 643.113281 191.449219 648.425781 191.835938 Z M 627.15625 195.792969 C 621.871094 195.535156 616.632812 195.328125 611.445312 195.171875 L 611.605469 189.925781 C 616.824219 190.082031 622.09375 190.289062 627.414062 190.550781 Z M 606.214844 195.03125 C 600.941406 194.910156 595.71875 194.839844 590.546875 194.828125 L 590.5625 189.578125 C 595.769531 189.589844 601.027344 189.660156 606.339844 189.785156 Z M 585.273438 194.832031 C 579.992188 194.855469 574.769531 194.933594 569.597656 195.074219 L 569.457031 189.824219 C 574.667969 189.6875 579.929688 189.605469 585.25 189.582031 Z M 564.347656 195.234375 C 559.070312 195.417969 553.847656 195.660156 548.683594 195.964844 L 548.375 190.722656 C 553.582031 190.414062 558.847656 190.171875 564.167969 189.988281 Z M 543.472656 196.292969 C 538.203125 196.644531 532.992188 197.066406 527.839844 197.546875 L 527.347656 192.320312 C 532.546875 191.832031 537.804688 191.410156 543.121094 191.054688 Z M 522.671875 198.054688 C 517.417969 198.597656 512.226562 199.207031 507.101562 199.882812 L 506.414062 194.679688 C 511.589844 193.996094 516.832031 193.378906 522.136719 192.835938 Z M 501.90625 200.597656 C 496.679688 201.339844 491.519531 202.15625 486.429688 203.042969 L 485.527344 197.871094 C 490.671875 196.976562 495.886719 196.152344 501.164062 195.398438 Z M 481.28125 203.96875 C 476.097656 204.933594 470.980469 205.972656 465.9375 207.085938 L 464.804688 201.960938 C 469.90625 200.832031 475.078125 199.78125 480.324219 198.808594 Z M 460.875 208.234375 C 455.746094 209.433594 450.6875 210.710938 445.707031 212.070312 L 444.328125 207.003906 C 449.371094 205.628906 454.488281 204.335938 459.683594 203.121094 Z M 440.65625 213.480469 C 435.589844 214.933594 430.605469 216.46875 425.703125 218.089844 L 424.054688 213.105469 C 429.027344 211.460938 434.078125 209.90625 439.207031 208.433594 Z M 420.773438 219.757812 C 415.804688 221.476562 410.921875 223.28125 406.121094 225.179688 L 404.191406 220.296875 C 409.0625 218.371094 414.019531 216.539062 419.058594 214.792969 Z M 401.277344 227.132812 C 396.421875 229.136719 391.652344 231.234375 386.96875 233.425781 L 384.746094 228.667969 C 389.5 226.445312 394.34375 224.316406 399.277344 222.28125 Z M 382.277344 235.667969 C 377.566406 237.960938 372.945312 240.355469 368.417969 242.847656 L 365.886719 238.246094 C 370.492188 235.714844 375.1875 233.28125 379.976562 230.945312 Z M 363.867188 245.398438 C 359.324219 247.996094 354.875 250.699219 350.519531 253.496094 L 347.679688 249.082031 C 352.109375 246.234375 356.636719 243.484375 361.257812 240.839844 Z M 346.175781 256.34375 C 341.832031 259.246094 337.585938 262.253906 333.4375 265.359375 L 330.289062 261.15625 C 334.515625 257.992188 338.835938 254.933594 343.257812 251.980469 Z M 329.296875 268.519531 C 325.183594 271.71875 321.167969 275.023438 317.25 278.429688 L 313.804688 274.46875 C 317.792969 271 321.882812 267.632812 326.074219 264.375 Z M 313.359375 281.878906 C 309.496094 285.367188 305.734375 288.957031 302.070312 292.652344 L 298.34375 288.957031 C 302.074219 285.191406 305.90625 281.535156 309.839844 277.984375 Z M 298.445312 296.378906 C 294.859375 300.132812 291.367188 303.992188 287.976562 307.953125 L 283.988281 304.542969 C 287.441406 300.503906 290.996094 296.574219 294.648438 292.753906 Z M 284.632812 311.933594 C 281.335938 315.929688 278.136719 320.03125 275.03125 324.234375 L 270.808594 321.113281 C 273.96875 316.835938 277.226562 312.664062 280.582031 308.59375 Z M 271.972656 328.453125 C 268.96875 332.667969 266.058594 336.988281 263.242188 341.402344 L 258.816406 338.582031 C 261.679688 334.089844 264.640625 329.695312 267.695312 325.40625 Z M 260.492188 345.804688 C 257.785156 350.210938 255.171875 354.710938 252.644531 359.308594 L 248.042969 356.78125 C 250.609375 352.109375 253.265625 347.535156 256.015625 343.054688 Z M 250.167969 363.910156 C 247.753906 368.480469 245.425781 373.140625 243.1875 377.890625 L 238.4375 375.652344 C 240.710938 370.828125 243.074219 366.097656 245.527344 361.457031 Z M 241.007812 382.601562 C 238.875 387.304688 236.824219 392.097656 234.859375 396.976562 L 229.988281 395.015625 C 231.984375 390.066406 234.0625 385.207031 236.226562 380.433594 Z M 232.933594 401.847656 C 231.070312 406.664062 229.28125 411.566406 227.574219 416.554688 L 222.605469 414.855469 C 224.335938 409.800781 226.148438 404.835938 228.039062 399.953125 Z M 225.925781 421.472656 C 224.3125 426.378906 222.777344 431.363281 221.316406 436.429688 L 216.269531 434.972656 C 217.75 429.847656 219.304688 424.800781 220.9375 419.835938 Z M 219.894531 441.457031 C 218.519531 446.4375 217.21875 451.492188 215.984375 456.625 L 210.878906 455.394531 C 212.125 450.207031 213.445312 445.09375 214.835938 440.0625 Z M 214.785156 461.726562 C 213.632812 466.761719 212.546875 471.871094 211.527344 477.054688 L 206.375 476.039062 C 207.40625 470.804688 208.503906 465.644531 209.667969 460.554688 Z M 210.546875 482.152344 C 209.597656 487.234375 208.714844 492.382812 207.890625 497.601562 L 202.703125 496.785156 C 203.535156 491.515625 204.429688 486.320312 205.386719 481.191406 Z M 207.097656 502.769531 C 206.339844 507.882812 205.640625 513.0625 205 518.304688 L 199.789062 517.667969 C 200.433594 512.382812 201.140625 507.15625 201.90625 502 Z M 204.386719 523.527344 C 203.800781 528.664062 203.277344 533.859375 202.804688 539.121094 L 197.574219 538.652344 C 198.050781 533.351562 198.582031 528.109375 199.167969 522.933594 Z M 202.359375 544.34375 C 201.933594 549.507812 201.566406 554.730469 201.25 560.015625 L 196.011719 559.703125 C 196.328125 554.378906 196.699219 549.117188 197.125 543.914062 Z M 200.960938 565.195312 C 200.6875 570.371094 200.464844 575.605469 200.292969 580.894531 L 195.046875 580.726562 C 195.21875 575.402344 195.441406 570.132812 195.71875 564.921875 Z M 200.144531 586.101562 C 200.007812 591.285156 199.921875 596.523438 199.886719 601.808594 L 194.636719 601.773438 C 194.671875 596.453125 194.757812 591.183594 194.894531 585.964844 Z M 199.863281 607.03125 C 199.859375 612.21875 199.898438 617.457031 199.984375 622.738281 L 194.738281 622.824219 C 194.648438 617.511719 194.609375 612.242188 194.613281 607.027344 Z M 200.085938 627.972656 C 200.199219 633.15625 200.355469 638.386719 200.558594 643.667969 L 195.3125 643.871094 C 195.109375 638.558594 194.953125 633.296875 194.835938 628.085938 Z M 200.769531 648.90625 C 200.996094 654.085938 201.261719 659.316406 201.570312 664.589844 L 196.328125 664.894531 C 196.019531 659.59375 195.75 654.339844 195.527344 649.136719 Z M 201.886719 669.808594 L 202.988281 685.507812 L 197.753906 685.878906 L 196.648438 670.179688 Z M 203.402344 690.707031 L 204.789062 706.382812 L 199.5625 706.847656 L 198.171875 691.171875 Z M 205.292969 711.574219 L 206.945312 727.226562 L 201.726562 727.777344 L 200.074219 712.125 Z M 207.535156 732.410156 L 209.4375 748.039062 L 204.226562 748.671875 L 202.324219 733.042969 Z M 210.105469 753.207031 L 212.238281 768.816406 L 207.039062 769.527344 L 204.902344 753.917969 Z M 212.980469 773.96875 L 215.335938 789.558594 L 210.144531 790.34375 L 207.789062 774.753906 Z M 216.148438 794.695312 L 218.179688 807.117188 L 212.996094 807.964844 L 210.964844 795.542969 Z M 216.148438 794.695312 " fill-opacity="1" fill-rule="nonzero"/></g></g></g></svg>