<svg xmlns="http://www.w3.org/2000/svg" xmlns:xlink="http://www.w3.org/1999/xlink" width="1920" zoomAndPan="magnify" viewBox="0 0 1440 809.999993" height="1080" preserveAspectRatio="xMidYMid meet" version="1.0"><defs><filter x="0%" y="0%" width="100%" height="100%" id="39a838a01e"><feColorMatrix values="0 0 0 0 1 0 0 0 0 1 0 0 0 0 1 0 0 0 1 0" color-interpolation-filters="sRGB"/></filter><mask id="690bb1a959"><g filter="url(#39a838a01e)"><rect x="-144" width="1728" fill="#000000" y="-80.999999" height="971.999992" fill-opacity="0.06"/></g></mask><clipPath id="24b37f41d5"><path d="M 195 2 L 460 2 L 460 763 L 195 763 Z M 195 2 " clip-rule="nonzero"/></clipPath><clipPath id="6cc4cae77a"><path d="M 228.621094 1.160156 L 666.355469 596.257812 L 437.980469 764.242188 L 0.25 169.144531 Z M 228.621094 1.160156 " clip-rule="nonzero"/></clipPath><clipPath id="5362d755a0"><path d="M 666.367188 596.277344 L 228.632812 1.179688 L 0.261719 169.164062 L 437.996094 764.261719 Z M 666.367188 596.277344 " clip-rule="nonzero"/></clipPath><clipPath id="f3fd5bdf41"><path d="M 666.367188 596.277344 L 228.632812 1.179688 L 0.261719 169.164062 L 437.996094 764.261719 Z M 666.367188 596.277344 " clip-rule="nonzero"/></clipPath><clipPath id="e6cf1fa0b2"><rect x="0" width="667" y="0" height="765"/></clipPath></defs><g mask="url(#690bb1a959)"><g transform="matrix(1, 0, 0, 1, 0, 12)"><g clip-path="url(#e6cf1fa0b2)"><g clip-path="url(#24b37f41d5)"><g clip-path="url(#6cc4cae77a)"><g clip-path="url(#5362d755a0)"><g clip-path="url(#f3fd5bdf41)"><path fill="#010101" d="M 226.683594 2.613281 C 220.671875 11.621094 215.625 21.203125 211.253906 31.203125 L 217.402344 33.835938 C 221.503906 24.214844 226.488281 15.046875 232.234375 6.417969 Z M 204.230469 80.941406 L 197.625 79.929688 C 199.136719 69.28125 201.59375 58.671875 204.84375 48.394531 L 211.292969 50.4375 C 208.074219 60.507812 205.800781 70.617188 204.230469 80.941406 Z M 202.4375 130.316406 L 195.730469 130.664062 C 195.027344 119.992188 194.976562 109.207031 195.660156 98.433594 L 202.359375 98.824219 C 201.621094 109.273438 201.824219 119.761719 202.4375 130.316406 Z M 209.921875 179.101562 L 203.355469 180.628906 C 200.816406 170.207031 198.84375 159.554688 197.488281 148.996094 L 204.171875 148.113281 C 205.644531 158.585938 207.5625 168.914062 209.921875 179.101562 Z M 224.921875 226.394531 L 218.640625 228.8125 C 214.652344 218.90625 211.140625 208.652344 208.160156 198.371094 L 214.585938 196.398438 C 217.566406 206.675781 221.023438 216.605469 224.921875 226.394531 Z M 246.324219 271.179688 L 240.445312 274.402344 C 235.214844 265.042969 230.335938 255.425781 225.90625 245.664062 L 232.042969 242.796875 C 236.355469 252.648438 241.058594 262.03125 246.324219 271.179688 Z M 272.410156 313.617188 L 266.882812 317.316406 C 260.9375 308.484375 255.226562 299.476562 249.757812 290.296875 L 255.457031 286.835938 C 260.839844 295.898438 266.550781 304.90625 272.410156 313.617188 Z M 291.917969 341.636719 L 301.375 354.492188 L 296.023438 358.425781 L 286.570312 345.574219 C 283.417969 341.289062 280.382812 336.914062 277.351562 332.542969 L 282.789062 328.726562 C 285.734375 332.980469 288.769531 337.351562 291.917969 341.636719 Z M 326.296875 398.335938 L 306.910156 372.976562 L 312.175781 368.925781 L 331.558594 394.28125 Z M 356.449219 438.335938 C 350.148438 429.765625 343.726562 421.28125 337.390625 412.921875 L 342.652344 408.867188 C 349.074219 417.347656 355.496094 425.828125 361.800781 434.398438 Z M 390.617188 475.566406 L 385.089844 479.261719 C 379.261719 470.34375 373.285156 461.71875 367.101562 453.0625 L 372.539062 449.246094 C 378.722656 457.902344 384.789062 466.644531 390.617188 475.566406 Z M 416.578125 518.832031 L 410.613281 521.933594 C 405.585938 512.609375 400.324219 503.457031 394.820312 494.484375 L 400.519531 491.023438 C 406.230469 500.03125 411.582031 509.300781 416.578125 518.832031 Z M 437.613281 564.617188 L 431.332031 567.039062 C 427.550781 557.164062 423.410156 547.550781 418.828125 538.082031 L 424.96875 535.21875 C 429.429688 544.773438 433.746094 554.625 437.613281 564.617188 Z M 452.457031 612.941406 L 445.886719 614.472656 C 443.527344 604.289062 440.75 594.039062 437.414062 584.023438 L 443.75 581.929688 C 447.058594 592.152344 450.039062 602.433594 452.457031 612.941406 Z M 459.398438 663.230469 L 452.691406 663.578125 C 452.160156 653.144531 451.015625 642.617188 449.304688 632.320312 L 456.015625 631.234375 C 457.695312 641.738281 458.929688 652.382812 459.398438 663.230469 Z M 456.265625 713.773438 L 449.691406 712.554688 C 451.464844 702.261719 452.617188 691.875 452.945312 681.363281 L 459.679688 681.546875 C 459.199219 692.355469 458.101562 703.066406 456.265625 713.773438 Z M 440.777344 762.214844 L 434.660156 759.378906 C 439.054688 749.910156 442.65625 740.105469 445.546875 730.089844 L 452.03125 731.925781 C 449.191406 742.269531 445.324219 752.453125 440.777344 762.214844 Z M 440.777344 762.214844 " fill-opacity="1" fill-rule="nonzero"/></g></g></g></g></g></g></g></svg>