<svg xmlns="http://www.w3.org/2000/svg" xmlns:xlink="http://www.w3.org/1999/xlink" width="1920" zoomAndPan="magnify" viewBox="0 0 1440 809.999993" height="1080" preserveAspectRatio="xMidYMid meet" version="1.0"><defs><filter x="0%" y="0%" width="100%" height="100%" id="d9061eb91f"><feColorMatrix values="0 0 0 0 1 0 0 0 0 1 0 0 0 0 1 0 0 0 1 0" color-interpolation-filters="sRGB"/></filter><mask id="6bcf4a3972"><g filter="url(#d9061eb91f)"><rect x="-144" width="1728" fill="#000000" y="-80.999999" height="971.999992" fill-opacity="0.04"/></g></mask><clipPath id="12b7c5742b"><rect x="0" width="267" y="0" height="684"/></clipPath></defs><g mask="url(#6bcf4a3972)"><g transform="matrix(1, 0, 0, 1, 0, 0.000000000000039746)"><g clip-path="url(#12b7c5742b)"><path fill="#000000" d="M 167 670.027344 L 169.917969 654.503906 L 175.078125 655.476562 L 172.160156 670.996094 Z M 170.824219 649.40625 L 173.4375 633.851562 L 178.613281 634.722656 L 176 650.273438 Z M 174.246094 628.726562 L 176.539062 613.140625 L 181.734375 613.90625 L 179.4375 629.492188 Z M 177.242188 607.992188 L 179.210938 592.378906 L 184.417969 593.035156 L 182.453125 608.648438 Z M 179.804688 587.207031 L 181.429688 571.570312 L 186.652344 572.113281 L 185.027344 587.75 Z M 181.910156 566.378906 L 183.179688 550.714844 L 188.414062 551.136719 L 187.144531 566.804688 Z M 183.542969 545.511719 L 184.449219 529.800781 L 189.6875 530.101562 L 188.785156 545.816406 Z M 184.683594 524.59375 C 184.90625 519.339844 185.082031 514.105469 185.207031 508.894531 L 190.457031 509.019531 C 190.328125 514.265625 190.15625 519.53125 189.929688 524.816406 Z M 185.316406 503.679688 C 185.40625 498.417969 185.449219 493.175781 185.441406 487.957031 L 190.691406 487.949219 C 190.699219 493.203125 190.65625 498.476562 190.5625 503.773438 Z M 185.417969 482.75 C 185.375 477.484375 185.28125 472.246094 185.132812 467.027344 L 190.382812 466.882812 C 190.53125 472.132812 190.625 477.410156 190.667969 482.707031 Z M 184.972656 461.816406 C 184.789062 456.558594 184.554688 451.328125 184.265625 446.117188 L 189.507812 445.828125 C 189.796875 451.074219 190.035156 456.34375 190.21875 461.632812 Z M 183.960938 440.910156 C 183.632812 435.664062 183.253906 430.441406 182.820312 425.242188 L 188.050781 424.804688 C 188.488281 430.042969 188.871094 435.300781 189.199219 440.582031 Z M 182.367188 420.042969 C 181.890625 414.8125 181.363281 409.605469 180.777344 404.421875 L 185.996094 403.832031 C 186.585938 409.054688 187.117188 414.296875 187.59375 419.566406 Z M 180.175781 399.234375 C 179.550781 394.019531 178.867188 388.832031 178.128906 383.667969 L 183.328125 382.925781 C 184.070312 388.128906 184.757812 393.355469 185.386719 398.605469 Z M 177.371094 378.5 C 176.589844 373.3125 175.75 368.148438 174.855469 363.007812 L 180.027344 362.109375 C 180.929688 367.289062 181.773438 372.492188 182.5625 377.71875 Z M 173.941406 357.867188 C 173 352.707031 172.003906 347.570312 170.949219 342.460938 L 176.089844 341.402344 C 177.152344 346.550781 178.160156 351.726562 179.105469 356.925781 Z M 169.871094 337.347656 C 168.773438 332.222656 167.613281 327.125 166.398438 322.050781 L 171.503906 320.824219 C 172.730469 325.941406 173.898438 331.082031 175.003906 336.246094 Z M 165.15625 316.972656 C 163.894531 311.886719 162.574219 306.828125 161.191406 301.796875 L 166.257812 300.40625 C 167.648438 305.480469 168.980469 310.582031 170.253906 315.707031 Z M 159.789062 296.761719 C 158.363281 291.722656 156.878906 286.707031 155.332031 281.722656 L 160.347656 280.167969 C 161.90625 285.195312 163.402344 290.25 164.84375 295.332031 Z M 153.765625 276.738281 C 152.175781 271.75 150.523438 266.789062 148.816406 261.855469 L 153.773438 260.132812 C 155.5 265.109375 157.164062 270.113281 158.769531 275.140625 Z M 147.082031 256.921875 C 145.328125 251.992188 143.511719 247.089844 141.636719 242.214844 L 146.539062 240.332031 C 148.429688 245.25 150.257812 250.191406 152.027344 255.164062 Z M 139.742188 237.34375 C 137.824219 232.476562 135.847656 227.640625 133.808594 222.828125 L 138.644531 220.777344 C 140.699219 225.632812 142.691406 230.511719 144.625 235.417969 Z M 131.75 218.019531 C 129.671875 213.226562 127.53125 208.457031 125.332031 203.710938 L 130.09375 201.503906 C 132.3125 206.289062 134.472656 211.097656 136.566406 215.933594 Z M 123.113281 198.976562 C 120.875 194.257812 118.578125 189.5625 116.21875 184.894531 L 120.90625 182.527344 C 123.285156 187.234375 125.601562 191.96875 127.855469 196.730469 Z M 113.84375 180.234375 C 111.449219 175.59375 108.996094 170.980469 106.480469 166.390625 L 111.085938 163.867188 C 113.621094 168.496094 116.09375 173.148438 118.507812 177.828125 Z M 103.949219 161.8125 C 101.40625 157.253906 98.800781 152.722656 96.136719 148.21875 L 100.65625 145.546875 C 103.339844 150.089844 105.96875 154.65625 108.535156 159.253906 Z M 93.453125 143.726562 C 90.761719 139.253906 88.007812 134.8125 85.199219 130.394531 L 89.625 127.578125 C 92.460938 132.03125 95.234375 136.507812 97.949219 141.015625 Z M 82.367188 125.992188 C 79.535156 121.613281 76.640625 117.261719 73.6875 112.933594 L 78.023438 109.976562 C 81 114.335938 83.917969 118.722656 86.773438 123.136719 Z M 70.71875 108.621094 C 67.746094 104.339844 64.714844 100.082031 61.625 95.847656 L 65.867188 92.753906 C 68.980469 97.019531 72.035156 101.3125 75.03125 105.628906 Z M 58.519531 91.628906 C 55.417969 87.445312 52.253906 83.285156 49.035156 79.148438 L 53.175781 75.921875 C 56.421875 80.089844 59.609375 84.285156 62.738281 88.503906 Z M 45.800781 75.023438 C 42.570312 70.9375 39.28125 66.875 35.9375 62.835938 L 39.980469 59.488281 C 43.351562 63.558594 46.664062 67.652344 49.917969 71.769531 Z M 32.582031 58.8125 C 29.230469 54.824219 25.820312 50.859375 22.359375 46.921875 L 26.304688 43.457031 C 29.792969 47.425781 33.222656 51.417969 36.601562 55.433594 Z M 18.886719 43 C 15.417969 39.109375 11.898438 35.246094 8.324219 31.40625 L 12.167969 27.828125 C 15.765625 31.695312 19.3125 35.585938 22.804688 39.503906 Z M 4.75 27.589844 L 0.726562 23.363281 L 4.527344 19.742188 L 8.550781 23.972656 Z M 4.75 27.589844 " fill-opacity="1" fill-rule="nonzero"/></g></g></g></svg>