<svg xmlns="http://www.w3.org/2000/svg" xmlns:xlink="http://www.w3.org/1999/xlink" width="1920" zoomAndPan="magnify" viewBox="0 0 1440 809.999993" height="1080" preserveAspectRatio="xMidYMid meet" version="1.0"><defs><filter x="0%" y="0%" width="100%" height="100%" id="d51578aa57"><feColorMatrix values="0 0 0 0 1 0 0 0 0 1 0 0 0 0 1 0 0 0 1 0" color-interpolation-filters="sRGB"/></filter><mask id="05ab2fd47b"><g filter="url(#d51578aa57)"><rect x="-144" width="1728" fill="#000000" y="-80.999999" height="971.999992" fill-opacity="0.87"/></g></mask><clipPath id="895ed1fe4e"><path d="M 0 0 L 770.03125 0 L 770.03125 770.03125 L 0 770.03125 Z M 0 0 " clip-rule="nonzero"/></clipPath><clipPath id="11ca1e564f"><path d="M 385.015625 0 C 172.378906 0 0 172.378906 0 385.015625 C 0 597.652344 172.378906 770.03125 385.015625 770.03125 C 597.652344 770.03125 770.03125 597.652344 770.03125 385.015625 C 770.03125 172.378906 597.652344 0 385.015625 0 Z M 385.015625 0 " clip-rule="nonzero"/></clipPath><clipPath id="d80460b4d9"><rect x="0" width="771" y="0" height="771"/></clipPath></defs><g mask="url(#05ab2fd47b)"><g transform="matrix(1, 0, 0, 1, 0, 0.000000000000039746)"><g clip-path="url(#d80460b4d9)"><g clip-path="url(#895ed1fe4e)"><g clip-path="url(#11ca1e564f)"><path fill="#df985e" d="M 0 0 L 770.03125 0 L 770.03125 770.03125 L 0 770.03125 Z M 0 0 " fill-opacity="1" fill-rule="nonzero"/></g></g></g></g></g></svg>